<svg width="579" height="554" viewBox="0 0 579 554" fill="none" xmlns="http://www.w3.org/2000/svg">
<path d="M-126.47 165.648C-135.324 164.025 -157.397 161.919 -160.374 177.872C-165.996 208.004 -140.922 222.176 -129.803 226.018C-120.907 229.091 149.121 297.196 279.697 334.489C266.859 317.607 281.283 261.766 295.519 259.461L-126.47 165.648Z" fill="#CFCFCF"/>
<path d="M309.264 247.521C306.083 246.103 298.94 244.146 295.811 247.66C292.682 251.175 296.705 257.544 299.108 260.29L295.519 259.461C281.283 261.766 266.859 317.607 279.697 334.489C364.443 353.396 532.527 394.511 544.826 389.951C560.199 384.252 577.925 359.491 555.888 333.207C538.259 312.18 384.126 267.322 309.264 247.521Z" fill="#365BCD"/>
<path d="M300.85 263.007L453.524 309.808" stroke="#233C88" stroke-width="6.10498" stroke-linecap="round"/>
</svg>
