<svg width="373" height="714" viewBox="0 0 373 714" fill="none" xmlns="http://www.w3.org/2000/svg">
<path d="M755.771 193.263C744.887 160.978 660.29 46.2298 632.912 21.9015L598.989 38.869L380.253 187.472L520.778 370.764L717.639 223.451L755.771 193.263Z" fill="#111111"/>
<path d="M632.912 21.9015C626.332 16.0548 609.863 3.30435 609.863 3.30435C600.31 4.8656 579.495 9.48574 572.664 15.4764C570.229 17.6119 546.908 34.521 516.39 56.6186L510.201 61.0994L510.194 61.1045L510.183 61.1125L510.182 61.1134C455.562 100.66 381.958 153.952 361.299 170.629L380.253 187.472L598.989 38.869L632.912 21.9015Z" fill="#111111"/>
<path fill-rule="evenodd" clip-rule="evenodd" d="M266.136 570.377C276.314 573.768 297.442 580.105 300.53 578.327C300.651 578.257 300.878 578.13 301.207 577.946C311.407 572.253 419.957 511.659 524.876 389.48L520.778 370.764L380.253 187.472L361.299 170.629C343.049 165.719 151.625 295.249 121.977 342.398C118.882 347.32 116.142 351.423 113.791 354.944C105.054 368.026 101.682 373.075 105.371 382.292L88.5283 401.246C82.2103 395.632 55.1895 411.195 57.4156 432.017C57.4156 432.017 63.6413 444.494 70.5205 451.201C76.872 457.393 90.2928 465.002 90.2928 465.002C103.278 465.234 122.812 451.31 119.535 436.336L130.763 423.7C130.763 423.7 141.183 454.388 157.911 477.977C171.371 496.957 199.33 520.435 199.33 520.435C199.33 520.435 151.558 562.573 103.56 604.936C100.008 608.07 96.455 611.206 92.9202 614.326C86.4367 620.049 80.0139 625.718 73.7706 631.23C69.7868 634.747 65.8761 638.2 62.0693 641.562C33.0052 667.225 10.0015 687.557 6.80128 690.442C-2.67316 698.984 7.54064 717.482 21.7778 707.519C29.4825 702.128 53.5737 687.063 83.8306 668.437C87.5064 666.174 91.2731 663.859 95.1126 661.502C98.8905 659.183 102.739 656.823 106.64 654.434C109.878 652.451 113.152 650.447 116.453 648.429C120.032 646.24 123.643 644.035 127.272 641.82C165.694 618.365 206.179 593.841 233.615 577.284C237.203 581.729 248.731 586.57 266.136 570.377Z" fill="#111111"/>
<path d="M524.876 389.48C532.455 382.647 681.42 269.158 754.955 213.268C754.955 213.268 758.269 200.672 755.771 193.263L717.639 223.451L520.778 370.764L524.876 389.48Z" fill="#111111"/>
<path d="M524.876 389.48C532.455 382.647 681.42 269.158 754.955 213.268C754.955 213.268 758.269 200.672 755.771 193.263M524.876 389.48L520.778 370.764M524.876 389.48C419.957 511.659 311.407 572.253 301.207 577.946C300.878 578.13 300.651 578.257 300.53 578.327C297.442 580.105 276.314 573.768 266.136 570.377C248.731 586.57 237.203 581.729 233.615 577.284C206.179 593.841 165.694 618.365 127.272 641.82M755.771 193.263C744.887 160.978 660.29 46.2298 632.912 21.9015M755.771 193.263L717.639 223.451L520.778 370.764M632.912 21.9015C626.332 16.0548 609.863 3.30435 609.863 3.30435C600.31 4.8656 579.495 9.48574 572.664 15.4764C570.229 17.6119 546.908 34.521 516.39 56.6186M632.912 21.9015L598.989 38.869L380.253 187.472M361.299 170.629C343.049 165.719 151.625 295.249 121.977 342.398C118.882 347.32 116.142 351.423 113.791 354.944C105.054 368.026 101.682 373.075 105.371 382.292L88.5283 401.246C82.2103 395.632 55.1895 411.195 57.4156 432.017C57.4156 432.017 63.6413 444.494 70.5205 451.201C76.872 457.393 90.2928 465.002 90.2928 465.002C103.278 465.234 122.812 451.31 119.535 436.336M361.299 170.629L380.253 187.472M361.299 170.629C381.958 153.952 455.562 100.66 510.182 61.1134L510.183 61.1125M119.535 436.336C120.283 435.494 127.332 427.561 130.763 423.7M119.535 436.336L130.763 423.7M130.763 423.7C130.763 423.7 141.183 454.388 157.911 477.977C171.371 496.957 199.33 520.435 199.33 520.435C199.33 520.435 151.558 562.573 103.56 604.936M520.778 370.764L380.253 187.472M520.778 370.764L448.142 441.901C393.049 483.4 279.588 564.994 266.485 559.381C198.746 527.455 125.378 400.071 129.001 376.907C131.899 358.377 243.512 271.37 298.956 230.184L380.253 187.472M83.8306 668.437C53.5737 687.063 29.4825 702.128 21.7778 707.519C7.54064 717.482 -2.67316 698.984 6.80128 690.442C10.0015 687.557 33.0052 667.225 62.0693 641.562M83.8306 668.437C76.6756 665.22 62.3062 655.34 62.0693 641.562M83.8306 668.437C87.5064 666.174 91.2731 663.859 95.1126 661.502M62.0693 641.562C65.8761 638.2 69.7868 634.747 73.7706 631.23M95.1126 661.502C87.5529 657.297 72.701 645.355 73.7706 631.23M95.1126 661.502C98.8905 659.183 102.739 656.823 106.64 654.434M73.7706 631.23C80.0139 625.718 86.4367 620.049 92.9202 614.326M106.64 654.434C98.7827 651.966 83.184 642.233 83.649 623.048M106.64 654.434C109.878 652.451 113.152 650.447 116.453 648.429M92.9202 614.326C93.7208 622.575 99.5482 640.945 116.453 648.429M92.9202 614.326C96.455 611.206 100.008 608.07 103.56 604.936M116.453 648.429C120.032 646.24 123.643 644.035 127.272 641.82M103.56 604.936C104.166 614.132 109.757 634.384 127.272 641.82M510.183 61.1125C510.187 61.1099 510.19 61.1072 510.194 61.1045M510.183 61.1125L510.194 61.1045M516.39 56.6186C514.357 58.0901 512.293 59.5847 510.201 61.0994M516.39 56.6186L510.201 61.0994M510.194 61.1045L510.201 61.0994M510.194 61.1045C510.196 61.1028 510.199 61.1011 510.201 61.0994M325.403 485.728L209.683 333.901L274.736 404.9L325.403 485.728ZM341.544 471.804L225.59 316L294.855 390.742L341.544 471.804ZM359.792 459.752L242.667 301.023L314.039 377.637L359.792 459.752ZM381.9 445.477L260.797 286.983L335.093 362.426L381.9 445.477Z" stroke="black" stroke-width="6.25181"/>
</svg>
