<svg width="1440" height="1228" viewBox="0 0 1440 1228" fill="none" xmlns="http://www.w3.org/2000/svg">
<g clip-path="url(#clip0_460_22)">
<path fill-rule="evenodd" clip-rule="evenodd" d="M449.32 534.641C455.94 579.509 408.369 598.757 383.757 602.772C316.265 613.493 244.841 571.884 164.916 525.321L163.392 524.433C85.4399 479.023 48.9005 396.934 44.1619 386.288C44.0044 385.935 43.8821 385.66 43.7945 385.468C43.1597 384.076 41.2533 379.519 41.2143 376.191C39.9296 367.943 41.3041 358.257 42.0484 350.695C42.4081 347.039 43.5721 343.975 43.6244 342.509C43.8338 336.644 49.1749 310.408 95.2059 295.902C141.237 281.395 231.415 305.169 323.164 367.171C414.913 429.173 441.045 478.555 449.32 534.641ZM68.2867 391.839C59.1826 368.427 48.6243 355.439 66.4038 327.385C76.4184 311.583 96.5487 305.522 113.324 302.534C118.6 301.594 123.544 300.959 127.736 300.42C127.993 300.387 128.247 300.354 128.498 300.322C129.1 300.244 129.697 300.167 130.289 300.09C147.989 297.786 214.915 314.857 299.856 361.934C318.733 372.396 335.405 383.649 350.037 395.2C401.248 435.627 427.461 479.701 435.648 506.257C441.828 526.301 439.001 543.494 430.179 556.754C423.972 566.082 414.799 573.465 403.705 578.525C361.887 596.044 302.315 578.736 242.754 549.646C219.524 538.301 196.296 525.164 174.124 511.603C116.329 476.253 108.961 464.459 84.2977 424.982L84.2923 424.973L84.2742 424.944C84.2643 424.929 84.2545 424.913 84.2447 424.897C83.5145 423.728 82.7692 422.535 82.0069 421.317C81.3123 420.206 80.6035 419.075 79.8794 417.921C75.7001 411.26 72.2266 402.151 69.5618 395.163L69.5596 395.157C69.1123 393.984 68.6879 392.871 68.2867 391.839Z" fill="#D9D9D9"/>
<path fill-rule="evenodd" clip-rule="evenodd" d="M-115.044 756.74C-135.942 807.38 -14.4106 940.037 92.335 910.961L373.164 613.679C353.516 613.56 275.947 599.42 247.513 587.435C244.526 586.176 240.459 584.545 235.513 582.561L235.505 582.558L235.502 582.557C181.59 560.932 23.438 497.495 23.6547 418.956L-115.044 756.74ZM95.2609 705.521C82.5669 699.196 24.5232 701.577 9.197 705.924C12.7933 728.564 50.0164 780.251 73.2677 786.954C102.332 795.332 155.08 798.7 151.309 780.947C147.538 763.195 111.128 713.429 95.2609 705.521Z" fill="#365BCD"/>
<path d="M43.7945 385.468C43.1597 384.076 41.2533 379.519 41.2143 376.191L23.6547 418.956C23.438 497.495 181.59 560.932 235.502 582.557L235.505 582.558L235.513 582.561C240.459 584.545 244.526 586.176 247.513 587.435C275.947 599.42 353.516 613.56 373.164 613.679L383.757 602.772C316.265 613.493 244.841 571.884 164.916 525.321L163.392 524.433C85.4399 479.023 48.9005 396.934 44.1619 386.288C44.0044 385.935 43.8821 385.66 43.7945 385.468Z" fill="#2F4DA8"/>
<path d="M9.197 705.924C24.5232 701.577 82.5669 699.196 95.2609 705.521C111.128 713.429 147.538 763.195 151.309 780.947C155.08 798.7 102.332 795.332 73.2677 786.954C50.0164 780.251 12.7933 728.564 9.197 705.924Z" fill="#2F4DA8"/>
<path fill-rule="evenodd" clip-rule="evenodd" d="M127.736 300.42C123.544 300.959 118.6 301.594 113.324 302.534L82.0069 421.317C82.7692 422.535 83.5145 423.728 84.2447 424.897L84.2742 424.944L84.2923 424.973L84.2977 424.982C108.961 464.459 116.329 476.253 174.124 511.603C196.296 525.164 219.524 538.301 242.754 549.646L254.366 532.929L350.037 395.2C335.405 383.649 318.733 372.396 299.856 361.934C214.915 314.857 147.989 297.786 130.289 300.09C129.697 300.167 129.1 300.244 128.498 300.322C128.247 300.354 127.993 300.387 127.736 300.42Z" fill="#BEBEBE"/>
<path d="M66.4038 327.385C48.6243 355.439 59.1826 368.427 68.2867 391.839C68.6879 392.871 69.1123 393.984 69.5596 395.157L69.5618 395.163C72.2266 402.151 75.7001 411.26 79.8794 417.921C80.6035 419.075 81.3123 420.206 82.0069 421.317L113.324 302.534C96.5487 305.522 76.4184 311.583 66.4038 327.385Z" fill="#B5B5B5"/>
<path fill-rule="evenodd" clip-rule="evenodd" d="M254.366 532.929C303.896 545.746 408.402 568.454 430.179 556.754C439.001 543.494 441.828 526.301 435.648 506.257C427.461 479.701 401.248 435.627 350.037 395.2L254.366 532.929Z" fill="#B2B2B2"/>
<path d="M242.754 549.646C302.315 578.736 361.887 596.044 403.705 578.525C414.799 573.465 423.972 566.082 430.179 556.754C408.402 568.454 303.896 545.746 254.366 532.929L242.754 549.646Z" fill="#A0A0A0"/>
<path fill-rule="evenodd" clip-rule="evenodd" d="M279.861 572.694L279.86 572.713C279.789 574.558 279.719 576.376 279.65 578.163C279.719 576.37 279.79 574.546 279.861 572.694Z" fill="#D9D9D9"/>
<path d="M282.138 681.668C282.71 679.815 278.227 627.282 277.943 625.571C277.852 625.02 278.614 605.061 279.65 578.163L279.86 572.713L279.861 572.694L279.862 572.663C280.269 562.102 280.863 551.345 281.306 539.703C217.865 526.449 123.07 451.102 80.566 410.795C80.1818 418.522 79.8287 425.85 79.8005 427.183C79.7526 429.441 66.3201 583.909 59.6098 660.861C71.2382 667.975 138.059 672.219 184.044 675.14C206.922 676.592 224.642 677.718 227.844 678.706C237.48 681.681 281.565 683.521 282.138 681.668Z" fill="#8C7B72"/>
<path d="M427.807 268.534C269.79 146.804 197.598 271.934 181.255 349.715C181.935 349.925 184.911 350.242 186.775 350.298C203.872 275.188 274.193 154.619 424.946 274.026C473.962 312.221 576.122 220.365 515.895 178.631C455.669 136.896 333.54 41.4232 231.135 111.143C178.61 151.523 165.699 77.968 170.591 55.6377C176.992 26.4179 124.57 -7.54818 81.2984 60.4685C83.3156 61.4072 85.2687 62.468 86.8691 63.6135C97.9294 27.4384 165.715 5.38777 165.091 55.5794C164.598 95.2412 182.646 153.834 232.144 118.832C331.393 44.5545 450.861 143.155 509.355 179.489C567.85 215.822 474.534 304.885 427.807 268.534Z" fill="#F5F4F0"/>
<path d="M28.9275 57.12L103.192 111.684L103.408 129.44L53.0288 203.117L32.2473 204.892L-38.9425 150.452L13.7626 61.7971L28.9275 57.12Z" fill="#7B90D4"/>
<path fill-rule="evenodd" clip-rule="evenodd" d="M70.7637 56.611L63.2592 61.195L32.5959 39.549L7.66746 44.0303L-27.3822 89.8374L-62.4318 135.644L-58.9206 161.085L35.0967 223.402L58.2267 220.801L125.791 125.562L120.847 107.392L122.678 101.462L98.626 84.6992C99.825 83.4456 102.337 80.5678 102.795 79.0854C103.367 77.2323 92.8535 67.8969 86.8691 63.6135C85.2687 62.468 83.3156 61.4072 81.2984 60.4685C77.2811 58.5991 73.0096 57.2144 70.7637 56.611ZM103.192 111.684L28.9275 57.12L13.7626 61.7971L-38.9425 150.452L32.2473 204.892L53.0288 203.117L103.408 129.44L103.192 111.684Z" fill="#5568A3"/>
<path fill-rule="evenodd" clip-rule="evenodd" d="M81.3138 395.986L128.394 339.483C139.714 340.948 163.243 344.154 166.801 345.252L181.255 349.715L180.5 366.999L186.5 366.999L186.775 350.298C190.018 350.397 194.202 350.263 198.257 350.132C202.027 350.011 205.686 349.893 208.374 349.97C215.617 350.176 243.734 351.145 246.329 351.946C248.404 352.587 273.639 390.148 285.997 408.848C285.088 415.739 283.501 430.079 284.435 432.316C285.057 433.809 283.237 488.972 281.306 539.703C217.865 526.449 123.07 451.102 80.566 410.795C80.8331 405.426 81.1152 399.864 81.3138 395.986Z" fill="#9B897F"/>
<path d="M186.775 350.298C184.911 350.242 181.935 349.925 181.255 349.715L180.5 366.999L186.5 366.999L186.775 350.298Z" fill="#F5F4F0"/>
<path d="M169 357.646L197.474 360.042" stroke="#333333" stroke-width="4.05884"/>
<path fill-rule="evenodd" clip-rule="evenodd" d="M538.579 384.184C543.295 380.654 544.256 373.969 540.726 369.253L539.229 367.253C535.698 362.537 529.013 361.576 524.297 365.107L288.937 541.306C298.421 543.501 317.902 547.885 319.947 547.861L538.579 384.184ZM234.121 582.343L31.1655 734.283C26.4495 737.814 25.4885 744.499 29.0191 749.215L30.5162 751.215C34.0467 755.931 40.7319 756.892 45.4479 753.361L261.708 591.461C260.329 591.194 242.742 585.271 234.121 582.343Z" fill="#9A805B"/>
<path d="M234.121 582.343C242.742 585.271 260.329 591.194 261.708 591.461L319.947 547.861C317.902 547.885 298.421 543.501 288.937 541.306L234.121 582.343Z" fill="#826C4B"/>
<path fill-rule="evenodd" clip-rule="evenodd" d="M-115.044 756.74C-135.942 807.38 -14.4106 940.037 92.3351 910.961L373.164 613.679C353.516 613.56 275.947 599.42 247.513 587.435C244.526 586.176 240.459 584.545 235.513 582.561L235.505 582.558L235.502 582.557C181.59 560.932 23.438 497.495 23.6547 418.956L-115.044 756.74ZM87.5614 693.265C74.8673 686.939 -44.4932 647.583 -59.8195 651.929C-56.2232 674.57 12.2755 779.007 57.5708 792.064C86.635 800.442 162.521 798.609 158.75 780.857C154.979 763.104 103.429 701.172 87.5614 693.265Z" fill="#365BCD"/>
<path d="M43.7945 385.468C43.1598 384.076 41.2534 379.519 41.2143 376.191L23.6547 418.956C23.438 497.495 181.59 560.932 235.502 582.557L235.505 582.558L235.513 582.561C240.459 584.545 244.526 586.176 247.513 587.435C275.947 599.42 353.516 613.56 373.164 613.679L383.757 602.772C316.265 613.493 244.842 571.884 164.916 525.321L163.392 524.433C153.862 518.882 144.951 512.782 136.641 506.331C86.7201 467.579 58.5045 416.172 48.1859 394.947C46.1728 390.806 44.8409 387.814 44.1619 386.288C44.0045 385.935 43.8821 385.66 43.7945 385.468Z" fill="#2F4DA8"/>
<path d="M-59.8195 651.929C-44.4932 647.583 74.8673 686.939 87.5614 693.265C103.429 701.172 154.979 763.104 158.75 780.857C162.521 798.609 86.635 800.442 57.5708 792.064C12.2755 779.007 -56.2232 674.57 -59.8195 651.929Z" fill="#2F4DA8"/>
<path fill-rule="evenodd" clip-rule="evenodd" d="M383.757 602.772C408.369 598.757 455.94 579.509 449.32 534.641C446.716 516.988 442.342 499.999 434.71 483.072L426.6 484.516C430.708 492.57 433.692 499.913 435.648 506.257C440.449 521.83 439.814 535.682 435.154 547.306C429.597 561.167 418.316 571.86 403.705 578.525C361.887 596.044 302.315 578.736 242.754 549.646C219.524 538.301 196.296 525.164 174.124 511.603C167.168 507.348 160.943 503.435 155.331 499.774L136.641 506.331C144.951 512.782 153.862 518.882 163.392 524.433L164.916 525.321C244.842 571.884 316.265 613.493 383.757 602.772Z" fill="#D9D9D9"/>
<path fill-rule="evenodd" clip-rule="evenodd" d="M84.2038 424.832L84.2023 424.829C84.0235 424.543 83.8438 424.255 83.6632 423.966C83.8443 424.256 84.0245 424.545 84.2038 424.832Z" fill="#BEBEBE"/>
<path d="M79.8795 417.921C75.7001 411.26 72.2266 402.151 69.5619 395.163L69.5596 395.157C69.1124 393.984 68.6879 392.871 68.2868 391.839C67.6504 390.203 67.0069 388.617 66.3664 387.074L48.1859 394.947C58.5045 416.172 86.7201 467.579 136.641 506.331L155.331 499.774C114.305 473.013 105.993 459.708 84.2977 424.982L84.2924 424.973L84.2742 424.944L84.2447 424.897L84.2038 424.832L84.2023 424.829L83.6632 423.966C83.1198 423.097 82.568 422.214 82.0069 421.317C81.3123 420.206 80.6036 419.075 79.8795 417.921Z" fill="#D9D9D9"/>
<path fill-rule="evenodd" clip-rule="evenodd" d="M746.121 56.1254L1626.5 104.7L1593.77 826.868C1587.91 850.235 1556.86 895.275 1479.48 888.501C1402.09 881.727 815.659 816.515 532.116 784.756C475.191 778.387 479.661 721.419 489.011 693.731C533.799 526.344 627.034 177.645 641.672 121.942C656.311 66.2394 717.404 54.8548 746.121 56.1254ZM686.898 139.286C689.714 124.232 704.472 94.5186 740.981 96.0981C777.491 97.6776 1277.95 126.19 1523.61 140.249L1577.4 153.148C1567.59 343.335 1547.21 734.062 1544.17 775.479C1541.14 816.895 1494.42 834.137 1469.41 833.318C1256.8 811.697 863.864 770.083 684.13 751.047C684.108 751.045 684.085 751.043 684.062 751.04C684.044 751.038 684.027 751.036 684.009 751.034L683.942 751.027L683.802 751.012C683.754 751.007 683.705 751.002 683.657 750.997C683.542 750.985 683.428 750.973 683.313 750.961C677.653 750.361 672.207 749.784 666.986 749.231C661.02 748.6 655.348 747.999 649.991 747.432C619.57 744.211 599.265 742.064 592.469 741.358C550.244 736.972 560.46 679.384 563.047 670.958L686.898 139.286Z" fill="#F5F4F0"/>
<path d="M822.543 440.594C709.551 478.809 702.95 597.975 760.135 659.199C846.211 724.678 957.162 720.564 992.524 700.723C999.927 696.57 1006.79 691.845 1013.42 687.28C1043.79 666.37 1069.29 648.816 1119.44 704.93C1193.61 787.925 1398.19 769.948 1469.48 760.879C1480.95 759.42 1489.16 750.095 1494.84 735.363L1498.87 537.899C1492.07 475.868 1482.38 422.491 1479.96 412.21C1473.73 385.698 1335.93 340.193 1209.01 344.651C1128.93 347.464 1098.73 377.923 1075.06 401.803C1061.21 415.771 1049.6 427.487 1031.54 430.103C1015.01 432.496 998.689 430.109 979.972 427.371C943.28 422.004 897.367 415.287 822.543 440.594Z" fill="#E7CB83"/>
<path d="M980.011 388.756C1031.57 401.758 1050.01 384.24 1053.09 367.932C1056.16 351.624 1026.31 314.894 980.079 322.493C955.98 326.454 943.349 314.64 930.28 302.415C918.28 291.19 905.91 279.618 883.95 279.596C838.076 279.549 774.697 309.809 784.47 363.071C793.189 410.586 863.145 400.519 918.826 392.507C944.979 388.743 967.983 385.433 980.011 388.756Z" fill="#E7CB83"/>
<path fill-rule="evenodd" clip-rule="evenodd" d="M686.898 139.286C689.714 124.232 704.472 94.5186 740.981 96.0981L740.877 198.304L740.855 219.467L740.853 221.835L740.848 226.939C734.143 230.493 731.087 222.574 725.482 226.923C724.087 228.699 720.804 232.88 718.073 234.703C717.022 235.405 715.775 236.049 714.258 236.589C711.022 237.468 709.995 240.128 709.017 242.663C708.606 243.727 708.204 244.769 707.65 245.648C707.237 246.304 706.74 246.869 706.092 247.285C703.673 251.292 704.02 255.855 703.296 257.993L702.024 248.782L701.816 247.281L686.898 139.286Z" fill="#BEBEBE"/>
<path fill-rule="evenodd" clip-rule="evenodd" d="M592.469 741.358C550.244 736.972 560.46 679.384 563.047 670.958L592.528 683.275L607.189 689.4C603.465 701.181 601.622 725.518 624.046 728.613L592.469 741.358Z" fill="#BEBEBE"/>
<path fill-rule="evenodd" clip-rule="evenodd" d="M740.833 241.678C724.172 242.075 710.839 267.001 706.255 279.415C692.019 338.997 672.99 425.17 656.235 503.555C662.246 491.011 680.031 465.112 703.088 461.873C726.146 458.635 727.44 484.665 725.205 498.086C715.828 530.019 700.432 598.985 713.868 619.387C730.663 644.89 771.236 694.388 822.274 704.627C839.816 708.147 855.923 710.606 870.539 712.837C898.451 717.098 921.233 719.954 937.599 728.932C957.205 739.689 969.309 751.306 972.465 756.092C1140.01 772.842 1334.87 792.058 1465.37 804.855L1494.32 760.904L1494.84 735.363C1489.16 750.095 1480.95 759.42 1469.48 760.879C1398.19 769.948 1193.61 787.925 1119.44 704.93C1069.29 648.816 1043.79 666.37 1013.42 687.28C1006.79 691.845 999.927 696.57 992.524 700.723C957.162 720.564 846.211 724.678 760.135 659.199C702.95 597.975 709.551 478.809 822.543 440.594C897.367 415.287 943.28 422.004 979.972 427.371C998.689 430.109 1015.01 432.496 1031.54 430.103C1049.6 427.487 1061.21 415.771 1075.06 401.803C1098.73 377.923 1128.93 347.464 1209.01 344.651C1335.93 340.193 1473.73 385.698 1479.96 412.21C1482.38 422.491 1492.07 475.868 1498.87 537.899L1504.12 280.228C1256.63 267.212 757.493 241.281 740.833 241.678ZM1053.09 367.932C1050.01 384.24 1031.57 401.758 980.011 388.756C967.983 385.433 944.979 388.743 918.826 392.507C863.145 400.519 793.189 410.586 784.47 363.071C774.697 309.809 838.076 279.549 883.95 279.596C905.91 279.618 918.28 291.19 930.28 302.415C943.349 314.64 955.98 326.454 980.079 322.493C1026.31 314.894 1056.16 351.624 1053.09 367.932ZM1020.52 316.417C1044.77 328.166 1066.87 344.506 1069.91 365.401C1070.91 382.222 1107.48 360.342 1119.8 350.16C1132.12 339.978 1179.24 330.341 1232.04 330.395C1250.9 330.414 1269.61 332.672 1289.93 335.829C1346.37 344.593 1445.64 372.905 1468.49 387.725C1489.75 401.515 1486.99 349.035 1485.13 313.626L1485.13 313.624C1484.81 307.633 1484.52 302.13 1484.38 297.521C1487.27 294.635 1484.69 288.448 1451.26 286.783C1448.89 286.665 1442.96 286.04 1434.48 285.147C1393.79 280.862 1294.38 270.392 1247.38 279.966C1163.24 279.88 1086.15 271.101 1028.56 264.542C984.761 259.554 952.242 255.851 936.473 258.231C913.289 261.73 912.015 280.117 921.156 283.184C925.031 284.485 931.293 290.734 938.038 297.464C947.204 306.611 957.262 316.647 963.429 316.359C966.036 316.238 969.217 315.724 972.914 315.127C984.399 313.272 1000.86 310.613 1020.52 316.417Z" fill="#ECDBB0"/>
<path d="M617.871 693.862C617.855 709.304 621.856 717.586 641.061 721.745C648.955 723.455 795.462 738.396 972.465 756.092C969.309 751.306 957.205 739.689 937.599 728.932C921.233 719.954 898.451 717.098 870.539 712.837C855.923 710.606 839.816 708.147 822.274 704.627C771.236 694.388 730.663 644.89 713.868 619.387C700.432 598.985 715.828 530.019 725.205 498.086C727.44 484.665 726.146 458.635 703.088 461.873C680.031 465.112 662.246 491.011 656.235 503.555C635.277 601.607 617.877 687.473 617.871 693.862Z" fill="#E7C183"/>
<path d="M1020.52 316.417C1044.77 328.166 1066.87 344.506 1069.91 365.401C1070.91 382.222 1107.48 360.342 1119.8 350.16C1132.12 339.978 1179.24 330.341 1232.04 330.395C1250.9 330.414 1269.61 332.672 1289.93 335.829C1346.37 344.593 1445.64 372.905 1468.49 387.725C1489.75 401.515 1486.99 349.035 1485.13 313.626L1485.13 313.624C1484.81 307.633 1484.52 302.13 1484.38 297.521C1487.27 294.635 1484.69 288.448 1451.26 286.783C1448.89 286.665 1442.96 286.04 1434.48 285.147C1393.79 280.862 1294.38 270.392 1247.38 279.966C1163.24 279.88 1086.15 271.101 1028.56 264.542C984.761 259.554 952.242 255.851 936.473 258.231C913.289 261.73 912.015 280.117 921.156 283.184C925.031 284.485 931.293 290.734 938.038 297.464C947.204 306.611 957.262 316.647 963.429 316.359C966.036 316.238 969.217 315.724 972.914 315.127C984.399 313.272 1000.86 310.613 1020.52 316.417Z" fill="#E7C183"/>
<path fill-rule="evenodd" clip-rule="evenodd" d="M740.981 96.0981C777.491 97.6776 1277.95 126.19 1523.61 140.249L1577.4 153.148C1567.59 343.335 1547.21 734.062 1544.17 775.479C1541.14 816.895 1494.42 834.137 1469.41 833.318C1256.8 811.697 863.864 770.083 684.13 751.047L684.062 751.04L684.009 751.034L683.942 751.027L683.802 751.012L683.657 750.997L683.313 750.961L666.986 749.231L649.991 747.432C619.57 744.211 599.265 742.064 592.469 741.358L624.046 728.613L1474.68 814.875L1494.32 760.904L1494.84 735.363L1498.87 537.899C1500.43 552.171 1501.84 566.902 1502.98 581.671L1518.57 258.824L1511.44 253.203C1509.27 250.327 1504.6 241.481 1499.93 232.646L1499.93 232.644C1494.39 222.152 1488.85 211.675 1487.53 211.231C1486.36 210.842 1483.36 212.065 1479.72 213.548C1473.78 215.968 1466.14 219.081 1462.03 217.007C1456.74 214.332 1455.75 212.7 1455.92 212.218C1450.31 213.232 1435.33 215.255 1420.24 215.24C1417.48 214.687 1415.38 213.806 1413.41 212.974C1409.89 211.493 1406.75 210.169 1400.87 211.142C1395.82 211.979 1393.55 214.181 1392.02 215.665C1390.77 216.876 1390.01 217.61 1388.64 216.737C1386.19 215.181 1376.06 215.057 1371.31 215.19C1368.59 215.187 1360.6 213.446 1350.42 206.503C1348.38 204.463 1340.22 209.551 1335.12 215.153C1332.16 218.394 1330.75 218.46 1328.11 218.584C1326.19 218.675 1323.61 218.796 1319.31 220.199C1311.15 222.86 1310.48 219.077 1311.16 216.853C1314.73 213.903 1319.73 207.186 1311.17 203.915C1306.09 201.972 1304.57 203.486 1302 206.045C1299.16 208.871 1295.04 212.972 1283.43 215.1C1283.42 221.286 1277.83 217.421 1275.02 215.474C1274.94 215.422 1274.87 215.372 1274.8 215.323C1274.68 215.241 1274.57 215.163 1274.46 215.091C1272.42 213.71 1264.44 210.768 1260.7 209.47L1253.06 203.856L1240.83 200.275C1234.03 203.327 1216.85 207.897 1202.53 201.765C1194.36 200.459 1193.73 201.433 1191.72 204.548C1190.57 206.325 1188.97 208.798 1185.26 211.942C1178.67 217.534 1178.47 215.473 1178.19 212.625C1178.04 211.065 1177.86 209.269 1176.6 208.365C1174.94 207.173 1172.16 206.426 1169.1 205.604C1165.61 204.666 1161.75 203.629 1158.77 201.721C1154.29 198.856 1148.74 201.878 1146.53 203.747L1139.9 211.896L1135.31 209.343L1126.14 206.785L1116.45 209.323C1115.41 207.453 1112.01 203.304 1106.78 201.668C1101.54 200.031 1100.17 203.365 1100.15 205.236L1083.32 210.819L1083.32 206.741L1074.67 200.616C1073.64 201.804 1071.01 204.384 1068.64 205.197C1066.26 206.01 1058.75 206.206 1055.29 206.203L1052.24 202.632L1046.63 206.194C1046.62 207.213 1046.01 209.558 1043.56 210.778C1041.11 211.999 1036.77 211.281 1034.9 210.77L1032.86 204.141C1029.24 204.817 1018.76 205.962 1005.85 205.133C999.322 207.165 999.052 205.296 999.733 204.107L994.64 200.024L982.909 207.149L977.813 206.124C976.4 205.443 973.574 203.469 973.576 201.022C973.579 198.789 971.489 200.36 969.092 202.162L969.091 202.163C968.207 202.828 967.28 203.525 966.401 204.073C963.14 206.109 960.482 207.126 956.917 204.064C953.352 201.002 949.271 204.056 947.74 206.093C946.515 207.723 942.811 208.127 941.111 208.125L932.959 205.059L929.899 207.095C924.292 206.919 912.875 206.466 912.06 206.057C911.43 205.741 911.384 205.621 911.321 205.455C911.282 205.352 911.236 205.231 911.041 205.036C910.734 204.728 910.612 204.792 909.779 205.226C909.231 205.512 908.377 205.957 906.962 206.561C904.42 207.648 904.465 207.186 904.517 206.645C904.538 206.427 904.56 206.196 904.414 206.049C904.291 205.926 904.198 205.773 904.112 205.633C903.845 205.195 903.659 204.889 902.885 206.048C902.068 207.27 900.843 208.594 900.333 209.103C899.823 209.103 898.498 208.999 897.275 208.59C896.052 208.181 897.107 207.401 897.787 207.062C897.787 206.552 897.584 205.431 896.769 205.022C895.75 204.511 894.731 204.51 894.221 205.019L891.159 208.074C889.8 207.903 886.776 207.458 885.553 207.049C884.518 206.703 884.652 206.358 884.846 205.855C884.939 205.615 885.045 205.339 885.046 205.01C885.046 204.451 884.433 204.198 883.543 203.83C882.81 203.528 881.89 203.148 880.971 202.457C878.933 200.926 878.93 203.984 878.929 205.004C878.928 206.023 877.398 206.531 875.869 207.039C874.339 207.548 872.301 207.036 871.282 206.525C870.861 206.314 870.875 205.842 870.893 205.253C870.919 204.417 870.952 203.344 869.757 202.446C868.103 201.203 867.454 202.984 866.995 204.244C866.888 204.536 866.792 204.8 866.696 204.991C866.287 205.806 862.788 205.327 861.089 204.986L854.465 202.94C863.13 203.119 874.344 202.96 849.879 200.896C843.478 200.89 839.749 201.554 837.22 202.004C835.922 202.236 834.941 202.41 834.077 202.409C833.404 202.409 832.838 202.444 832.303 202.477C830.812 202.569 829.567 202.646 826.941 201.892C824.475 201.185 824.444 201.211 824.155 201.463C824.026 201.575 823.845 201.732 823.373 201.889L820.314 202.905C819.646 203.127 819.367 203.252 819.095 203.238C818.744 203.219 818.405 202.968 817.256 202.392C816.891 202.209 816.608 202.043 816.363 201.899C815.237 201.237 814.907 201.043 811.14 201.876C809.007 202.348 808.416 202.711 808.087 202.913C807.709 203.146 807.678 203.165 806.042 202.891C803.595 202.48 799.925 202.375 798.396 202.373L797.886 202.882C797.376 203.052 796.153 203.39 795.337 203.389C794.505 203.389 794.692 203.049 795.067 202.37C795.151 202.217 795.245 202.047 795.339 201.86C795.849 200.841 794.83 200.84 793.301 200.839C792.717 200.838 792.356 200.912 792.047 200.975C791.548 201.078 791.187 201.152 790.242 200.836C789.204 200.488 789.106 200.848 788.989 201.274C788.935 201.475 788.876 201.69 788.712 201.854C788.494 202.072 788.556 202.29 788.618 202.509C788.701 202.8 788.784 203.091 788.201 203.382C787.467 203.748 786.734 203.587 786.191 203.467C785.979 203.42 785.795 203.38 785.652 203.38C785.482 203.379 785.426 203.209 785.351 202.983C785.2 202.53 784.974 201.85 783.615 201.848C782.484 201.847 782.608 202.004 782.855 202.318C783.053 202.57 783.331 202.923 783.104 203.377C782.796 203.991 782.489 203.865 781.737 203.555C781.24 203.351 780.549 203.067 779.536 202.864C778.713 202.588 778.925 202.314 779.136 202.04C779.317 201.805 779.498 201.57 779.028 201.334C778.519 201.079 778.136 201.078 777.754 201.078C777.372 201.077 776.989 201.077 776.48 200.822C775.904 200.533 775.817 200.244 775.757 200.048C775.712 199.898 775.683 199.801 775.462 199.801C775.207 199.801 774.824 200.055 774.442 200.31C774.059 200.564 773.677 200.819 773.422 200.819C773.014 200.818 772.231 201.837 771.891 202.346C771.381 202.346 770.362 202.243 770.362 201.835C770.363 201.422 770.029 201.343 768.823 201.057C768.538 200.99 768.204 200.911 767.815 200.813C766.853 200.571 766.686 200.444 766.509 200.43C766.312 200.415 766.103 200.542 764.757 200.81C763.181 201.123 763.164 201.049 763.139 200.946C763.125 200.882 763.107 200.808 762.718 200.808C762.12 200.807 761.873 200.632 761.669 200.487C761.524 200.384 761.4 200.297 761.189 200.296C760.781 200.296 759.999 200.635 759.659 200.804C759.489 200.974 759.047 201.314 758.639 201.313L756.601 201.311C756.091 201.311 756.092 200.291 756.092 199.781C756.093 199.442 755.64 199.554 755.186 199.667C754.96 199.724 754.733 199.78 754.563 199.78C754.458 199.78 754.352 199.758 754.228 199.732C753.755 199.633 753.016 199.48 750.995 200.286C750.485 200.115 749.262 199.673 748.447 199.264C747.428 199.263 746.918 199.262 746.409 198.752C745.9 198.242 745.389 199.261 745.388 199.771C745.388 200.28 743.859 200.279 743.349 200.278C742.961 200.278 741.687 199.094 740.877 198.304L740.981 96.0981ZM740.855 219.467C740.644 223.633 740.848 226.939 740.848 226.939L740.853 221.835L740.855 219.467ZM1300.93 249.388C1300.93 249.93 1288.45 248.842 1300.93 249.388ZM1052.22 216.589L1091.98 218.376C1078.46 217.771 1065.18 217.174 1052.22 216.589ZM906.442 216.441L926.133 216.846C918.638 216.82 911.959 216.702 906.442 216.441Z" fill="#C5C5C5"/>
<path fill-rule="evenodd" clip-rule="evenodd" d="M686.898 139.286L563.047 670.958L592.528 683.275C591.354 680.449 589.713 674.035 592.541 670.988C596.074 667.181 602.671 659.039 597.612 659.034C592.553 659.028 592.553 658.512 592.558 653.415C592.562 649.49 593.144 649.192 595.274 648.102C595.911 647.776 596.686 647.379 597.624 646.793C598.289 646.379 598.909 646.032 599.494 645.705C602.505 644.02 604.612 642.841 607.244 635.589C610.388 626.927 611.412 622.341 611.924 619.283C612.142 617.988 611.339 617.606 610.341 617.132C608.983 616.486 607.264 615.669 607.268 612.142C607.271 609.018 608.489 608.422 609.68 607.839C610.821 607.28 611.937 606.734 611.94 603.992C611.945 599.506 613.991 591.93 615.014 588.703L611.963 581.054L617.994 572.905C618.007 560.563 619.176 558.106 617.123 558.556C615.954 558.812 615.755 558.856 618.011 556.084C624.578 543.498 626.679 539.508 626.928 539.036C626.929 539.034 626.93 539.032 626.931 539.03C626.947 539.001 626.954 538.987 626.954 538.987C626.954 538.987 626.946 539.002 626.931 539.03C626.93 539.032 626.929 539.034 626.928 539.036C626.649 539.562 624.234 544.119 624.235 543.858C624.235 543.45 627.98 536.895 629.852 533.669L629.857 528.572C629.861 525.118 631.32 521.77 632.591 518.855C634.133 515.316 635.398 512.414 633.443 510.735C628.896 504.075 630.755 502.958 633.582 501.258C634.87 500.484 636.358 499.59 637.534 497.996C641.294 492.903 641.299 488.316 641.302 485.257L641.31 477.612L646.741 466.403C647.922 464.366 650.284 459.781 650.286 457.742C650.288 455.703 647.935 451.793 646.758 450.092C648.679 448.563 652.9 444.996 654.411 442.964C655.922 440.932 655.047 435.321 654.421 432.77L654.427 427.04C653.136 426.57 651.708 424.611 656.32 420.538C660.932 416.465 658.25 410.346 656.333 407.795L663.128 392.246C664.316 392.845 667.204 393.127 669.247 389.459C671.29 385.791 670.103 382.833 669.255 381.813L669.263 373.658C669.265 372.298 669.879 369.173 672.328 367.544C674.776 365.915 675.392 362.11 675.393 360.411L675.4 353.785C675.402 352.154 673.365 350.045 672.346 349.194L672.354 342.058C672.355 340.864 673.406 338.971 674.277 337.403C674.893 336.294 675.419 335.348 675.419 334.925C675.42 334.11 677.8 332.889 678.99 332.38C679.331 331.021 680.422 327.692 682.055 325.247C683.689 322.802 684.102 317.285 684.105 314.832C683.426 314.226 682.068 312.403 682.071 309.956C682.073 307.509 685.139 300.438 686.671 297.208C686.676 292.454 687.094 282.946 688.725 282.948C690.356 282.949 693.831 274.118 695.365 269.702L692.311 265.111C691.973 263.749 691.704 260.721 693.336 259.505C694.969 258.289 697.759 254.245 698.95 252.375L701.129 249.829L702.024 248.782L701.816 247.281L686.898 139.286Z" fill="#CECECE"/>
<path d="M1052.22 216.589L1091.98 218.376C1117.56 219.521 1143.95 220.694 1170.47 221.868C1185.43 222.529 1244.25 236.207 1259.15 236.864L1280.05 243.129L1280.08 243.137L1280.11 243.147L1300.93 249.388C1316.66 250.075 1332.01 250.745 1346.8 251.389C1444.83 255.658 1518.57 258.824 1518.57 258.824L1511.44 253.203C1509.27 250.327 1504.6 241.481 1499.93 232.646L1499.93 232.644C1494.39 222.152 1488.85 211.675 1487.53 211.231C1486.36 210.842 1483.36 212.065 1479.72 213.548C1473.78 215.968 1466.14 219.081 1462.03 217.007C1456.74 214.332 1455.75 212.7 1455.92 212.218C1450.31 213.232 1435.33 215.255 1420.24 215.24C1417.48 214.687 1415.38 213.806 1413.41 212.974C1409.89 211.493 1406.75 210.169 1400.87 211.142C1395.82 211.979 1393.55 214.181 1392.02 215.665C1390.77 216.876 1390.01 217.61 1388.64 216.737C1386.19 215.181 1376.06 215.057 1371.31 215.19C1368.59 215.187 1360.6 213.446 1350.42 206.503C1348.38 204.463 1340.22 209.551 1335.12 215.153C1332.16 218.394 1330.75 218.46 1328.11 218.584C1326.19 218.675 1323.61 218.796 1319.31 220.199C1311.15 222.86 1310.48 219.077 1311.16 216.853C1314.73 213.903 1319.73 207.186 1311.17 203.915C1306.09 201.972 1304.57 203.486 1302 206.045C1299.16 208.871 1295.04 212.972 1283.43 215.1C1283.42 221.286 1277.83 217.421 1275.02 215.474L1274.8 215.323C1274.68 215.241 1274.57 215.163 1274.46 215.091C1272.42 213.71 1264.44 210.768 1260.7 209.47L1253.06 203.856L1240.83 200.275C1234.03 203.327 1216.85 207.897 1202.53 201.765C1194.36 200.459 1193.73 201.433 1191.72 204.548C1190.57 206.325 1188.97 208.798 1185.26 211.942C1178.67 217.534 1178.47 215.473 1178.19 212.625C1178.04 211.065 1177.86 209.269 1176.6 208.365C1174.94 207.173 1172.16 206.426 1169.1 205.604C1165.61 204.666 1161.75 203.629 1158.77 201.721C1154.29 198.856 1148.74 201.878 1146.53 203.747L1139.9 211.896L1135.31 209.343L1126.14 206.785L1116.45 209.323C1115.41 207.453 1112.01 203.304 1106.78 201.668C1101.54 200.031 1100.17 203.365 1100.15 205.236L1083.32 210.819L1083.32 206.741L1074.67 200.616C1073.64 201.804 1071.01 204.384 1068.64 205.197C1066.26 206.01 1058.75 206.206 1055.29 206.203L1052.24 202.632L1046.63 206.194C1046.62 207.213 1046.01 209.558 1043.56 210.778C1041.11 211.999 1036.77 211.281 1034.9 210.77L1032.86 204.141C1029.24 204.817 1018.76 205.962 1005.85 205.133C999.322 207.165 999.052 205.296 999.733 204.107L994.64 200.024L982.909 207.149L977.813 206.124C976.4 205.443 973.574 203.469 973.576 201.022C973.579 198.789 971.489 200.36 969.092 202.162L969.091 202.163C968.207 202.828 967.28 203.525 966.401 204.073C963.14 206.109 960.482 207.126 956.917 204.064C953.352 201.002 949.271 204.056 947.74 206.093C946.515 207.723 942.811 208.127 941.111 208.125L932.959 205.059L929.899 207.095C924.292 206.919 912.875 206.466 912.06 206.057C911.43 205.741 911.384 205.621 911.321 205.455C911.282 205.352 911.236 205.231 911.041 205.036C910.734 204.728 910.612 204.792 909.779 205.226C909.231 205.512 908.377 205.957 906.962 206.561C904.42 207.648 904.465 207.186 904.517 206.645C904.538 206.427 904.56 206.196 904.414 206.049C904.291 205.926 904.198 205.773 904.112 205.633C903.845 205.195 903.659 204.889 902.885 206.048C902.068 207.27 900.843 208.594 900.333 209.103C899.823 209.103 898.498 208.999 897.275 208.59C896.052 208.181 897.107 207.401 897.787 207.062C897.787 206.552 897.584 205.431 896.769 205.022C895.75 204.511 894.731 204.51 894.221 205.019L891.159 208.074C889.8 207.903 886.776 207.458 885.553 207.049C884.518 206.703 884.652 206.358 884.846 205.855C884.939 205.615 885.045 205.339 885.046 205.01C885.046 204.451 884.433 204.198 883.543 203.83C882.81 203.528 881.89 203.148 880.971 202.457C878.933 200.926 878.93 203.984 878.929 205.004C878.928 206.023 877.398 206.531 875.869 207.039C874.339 207.548 872.301 207.036 871.282 206.525C870.861 206.314 870.875 205.842 870.893 205.253C870.919 204.417 870.952 203.344 869.757 202.446C868.103 201.203 867.454 202.984 866.995 204.244C866.888 204.536 866.792 204.8 866.696 204.991C866.287 205.806 862.788 205.327 861.089 204.986L854.465 202.94C863.13 203.119 874.344 202.96 849.879 200.896C843.478 200.89 839.749 201.554 837.22 202.004C835.922 202.236 834.941 202.41 834.077 202.409C833.404 202.409 832.838 202.444 832.303 202.477C830.812 202.569 829.567 202.646 826.941 201.892C824.475 201.185 824.444 201.211 824.155 201.463C824.026 201.575 823.845 201.732 823.373 201.889L820.314 202.905C819.646 203.127 819.367 203.252 819.095 203.238C818.744 203.219 818.405 202.968 817.256 202.392C816.891 202.209 816.608 202.043 816.363 201.899C815.237 201.237 814.907 201.043 811.14 201.876C809.007 202.348 808.416 202.711 808.087 202.913C807.709 203.146 807.678 203.165 806.042 202.891C803.595 202.48 799.925 202.375 798.396 202.373L797.886 202.882C797.376 203.052 796.153 203.39 795.337 203.389C794.505 203.389 794.692 203.049 795.067 202.37C795.151 202.217 795.245 202.047 795.339 201.86C795.849 200.841 794.83 200.84 793.301 200.839C792.717 200.838 792.356 200.912 792.047 200.975C791.548 201.078 791.187 201.152 790.242 200.836C789.204 200.488 789.106 200.848 788.989 201.274C788.935 201.475 788.876 201.69 788.712 201.854C788.494 202.072 788.556 202.29 788.618 202.509C788.701 202.8 788.784 203.091 788.201 203.382C787.467 203.748 786.734 203.587 786.191 203.467C785.979 203.42 785.795 203.38 785.652 203.38C785.482 203.379 785.426 203.209 785.351 202.983C785.2 202.53 784.974 201.85 783.615 201.848C782.484 201.847 782.608 202.004 782.855 202.318C783.053 202.57 783.331 202.923 783.104 203.377C782.796 203.991 782.489 203.865 781.737 203.555C781.24 203.351 780.549 203.067 779.536 202.864C778.713 202.588 778.925 202.314 779.136 202.04C779.317 201.805 779.498 201.57 779.028 201.334C778.519 201.079 778.136 201.078 777.754 201.078C777.372 201.077 776.989 201.077 776.48 200.822C775.904 200.533 775.817 200.244 775.757 200.048C775.712 199.898 775.683 199.801 775.462 199.801C775.207 199.801 774.824 200.055 774.442 200.31C774.059 200.564 773.677 200.819 773.422 200.819C773.014 200.818 772.231 201.837 771.891 202.346C771.381 202.346 770.362 202.243 770.362 201.835C770.363 201.422 770.029 201.343 768.823 201.057C768.538 200.99 768.204 200.911 767.815 200.813C766.853 200.571 766.686 200.444 766.509 200.43C766.312 200.415 766.103 200.542 764.757 200.81C763.181 201.123 763.164 201.049 763.139 200.946C763.125 200.882 763.107 200.808 762.718 200.808C762.12 200.807 761.873 200.632 761.669 200.487C761.524 200.384 761.4 200.297 761.189 200.296C760.781 200.296 759.999 200.635 759.659 200.804C759.489 200.974 759.047 201.314 758.639 201.313L756.601 201.311C756.091 201.311 756.092 200.291 756.092 199.781C756.093 199.442 755.64 199.554 755.186 199.667C754.96 199.724 754.733 199.78 754.563 199.78C754.458 199.78 754.352 199.758 754.228 199.732C753.755 199.633 753.016 199.48 750.995 200.286C750.485 200.115 749.262 199.673 748.447 199.264C747.428 199.263 746.918 199.262 746.409 198.752C745.9 198.242 745.389 199.261 745.388 199.771C745.388 200.28 743.859 200.279 743.349 200.278C742.961 200.278 741.687 199.094 740.877 198.304L740.855 219.467C741.232 212.029 742.929 201.846 749.463 202.833C753.528 203.696 766.28 206.766 776.474 206.938C780.551 207.007 839.139 205.096 856.499 207.02C859.13 207.311 858.802 214.186 906.442 216.441L926.133 216.846C938.94 216.89 954.131 216.666 969.987 216.433C998.597 216.012 1029.37 215.558 1052.22 216.589Z" fill="#C5C5C5"/>
<path d="M740.833 241.678C757.493 241.281 1256.63 267.212 1504.12 280.228L1498.87 537.899C1500.43 552.171 1501.84 566.902 1502.98 581.671L1518.57 258.824C1518.57 258.824 1444.83 255.658 1346.8 251.389C1332.01 250.745 1316.66 250.075 1300.93 249.388L1259.15 236.864C1244.25 236.207 1185.43 222.529 1170.47 221.868L926.133 216.846C918.638 216.82 911.959 216.702 906.442 216.441C858.802 214.186 859.13 207.311 856.499 207.02C839.139 205.096 780.551 207.007 776.474 206.938C766.28 206.766 753.528 203.696 749.463 202.833C742.929 201.846 741.232 212.029 740.855 219.467L740.853 221.835L740.848 226.939L740.833 241.678Z" fill="#C5C5C5"/>
<path d="M1091.98 218.376C1078.46 217.771 1065.18 217.174 1052.22 216.589C1029.37 215.558 998.597 216.012 969.987 216.433C954.131 216.666 938.94 216.89 926.133 216.846L1170.47 221.868C1143.95 220.694 1117.56 219.521 1091.98 218.376Z" fill="#C5C5C5"/>
<path fill-rule="evenodd" clip-rule="evenodd" d="M740.855 219.467C740.644 223.633 740.848 226.939 740.848 226.939L740.853 221.835L740.855 219.467Z" fill="#D8C491"/>
<path d="M706.255 279.415C710.839 267.001 724.172 242.075 740.833 241.678L740.848 226.939C734.143 230.493 731.087 222.574 725.482 226.923C724.087 228.699 720.804 232.88 718.073 234.703L707.65 245.648C707.237 246.304 706.74 246.869 706.092 247.285C703.673 251.292 704.02 255.855 703.296 257.993L706.255 279.415Z" fill="#BEBEBE"/>
<path d="M707.65 245.648L718.073 234.703C717.022 235.405 715.775 236.049 714.258 236.589C711.022 237.468 709.995 240.128 709.017 242.663C708.606 243.727 708.204 244.769 707.65 245.648Z" fill="#BEBEBE"/>
<path d="M607.189 689.4L703.296 257.993L702.024 248.782L701.129 249.829L698.95 252.375C697.759 254.245 694.969 258.289 693.336 259.505C691.704 260.721 691.973 263.749 692.311 265.111L695.365 269.702C693.831 274.118 690.356 282.949 688.725 282.948C687.094 282.946 686.676 292.454 686.671 297.208C685.139 300.438 682.073 307.509 682.071 309.956C682.068 312.403 683.426 314.226 684.105 314.832C684.102 317.285 683.689 322.802 682.055 325.247C680.422 327.692 679.331 331.021 678.99 332.38C677.8 332.889 675.42 334.11 675.419 334.925C675.419 335.348 674.893 336.294 674.277 337.403C673.406 338.971 672.355 340.864 672.354 342.058L672.346 349.194C673.365 350.045 675.402 352.154 675.4 353.785L675.393 360.411C675.392 362.11 674.776 365.915 672.328 367.544C669.879 369.173 669.265 372.298 669.263 373.658L669.255 381.813C670.103 382.833 671.29 385.791 669.247 389.459C667.204 393.127 664.316 392.845 663.128 392.246L656.333 407.795C658.25 410.346 660.932 416.465 656.32 420.538C651.708 424.611 653.136 426.57 654.427 427.04L654.421 432.77C655.047 435.321 655.922 440.932 654.411 442.964C652.9 444.996 648.679 448.563 646.758 450.092C647.935 451.793 650.288 455.703 650.286 457.742C650.284 459.781 647.922 464.366 646.741 466.403L641.31 477.612L641.302 485.257C641.299 488.316 641.294 492.903 637.534 497.996C636.358 499.59 634.87 500.484 633.582 501.258C630.755 502.958 628.896 504.075 633.443 510.735C635.398 512.414 634.133 515.316 632.591 518.855C631.32 521.77 629.861 525.118 629.857 528.572L629.852 533.669C627.98 536.895 624.235 543.45 624.235 543.858C624.234 544.119 626.649 539.563 626.928 539.036C626.929 539.034 626.93 539.032 626.931 539.03L626.928 539.036C626.679 539.508 624.578 543.498 618.011 556.084C615.755 558.856 615.954 558.812 617.123 558.556C619.176 558.106 618.007 560.563 617.994 572.905L611.963 581.054L615.014 588.703C613.991 591.93 611.945 599.506 611.94 603.992C611.937 606.734 610.821 607.28 609.68 607.839C608.489 608.422 607.271 609.018 607.268 612.142C607.264 615.669 608.983 616.486 610.341 617.132C611.339 617.606 612.142 617.988 611.924 619.283C611.412 622.341 610.388 626.927 607.244 635.589C604.612 642.841 602.505 644.02 599.494 645.705C598.909 646.032 598.289 646.379 597.624 646.793C596.686 647.379 595.911 647.776 595.274 648.102C593.144 649.192 592.562 649.49 592.558 653.415C592.553 658.512 592.553 659.028 597.612 659.034C602.671 659.039 596.074 667.181 592.541 670.988C589.713 674.035 591.354 680.449 592.528 683.275L607.189 689.4Z" fill="#CECECE"/>
<path d="M607.189 689.4L617.871 693.862C617.877 687.473 635.277 601.607 656.235 503.555C672.99 425.17 692.019 338.997 706.255 279.415L703.296 257.993L607.189 689.4Z" fill="#CECECE"/>
<path d="M641.061 721.745C621.856 717.586 617.855 709.304 617.871 693.862L607.189 689.4C603.465 701.181 601.622 725.518 624.046 728.613L641.061 721.745Z" fill="#BEBEBE"/>
<path d="M1494.32 760.904L1465.37 804.855C1334.87 792.058 1140.01 772.842 972.465 756.092C795.462 738.396 648.955 723.455 641.061 721.745L624.046 728.613L1474.68 814.875L1494.32 760.904Z" fill="#C5C5C5"/>
<path d="M789.536 471.803L761.785 449.44L771.341 445.343L780.343 432.348L791.396 434.026L798.64 426.57L818.569 455.549L814.79 468.046L796.859 459.962L789.536 471.803Z" fill="#536800"/>
<path d="M1387.88 702.425L1366.69 696.051L1320.8 741.943L1341.03 743.832L1387.88 702.425Z" fill="#B35709"/>
<path d="M1270.82 562.228L1279.36 565.453L1288.77 539.304L1281.26 538.553L1270.82 562.228Z" fill="#B35709"/>
<path d="M1256.55 719.518C1259.3 715.929 1262.03 704.653 1250.88 688.255C1236.96 667.758 1265.67 656.988 1270.89 665.187C1276.12 673.386 1273.08 700.038 1287.44 698.497C1301.8 696.956 1301.36 678.505 1294.39 673.894" stroke="#E8BB46" stroke-width="10.1944"/>
<path d="M839.182 631.198C835.64 631.304 829.231 635.229 831.935 650.08C835.315 668.643 808.407 656.586 807.332 649.371C806.257 642.157 818.698 630.822 806.689 622.893C794.679 614.964 788.091 624.35 791.9 630.844" stroke="#E8BB46" stroke-width="10.1944"/>
<path d="M835.141 337.837C832.446 334.203 822.35 328.491 803.524 334.71C779.992 342.483 777.511 311.914 786.829 309.14C796.146 306.365 820.942 316.598 823.398 302.367C825.854 288.136 807.991 283.498 801.647 288.93" stroke="#E8BB46" stroke-width="10.1944"/>
<path d="M1123.24 688.472C1123.98 686.104 1129.19 684.625 1131.7 684.181C1132.95 693.381 1135.03 712.372 1133.37 714.735C1131.31 717.689 1103.03 720.516 1103.49 718.466C1103.96 716.417 1122.32 691.43 1123.24 688.472Z" fill="#637617"/>
<path d="M1313.34 534.474C1315.3 530.539 1320.49 522.907 1325.53 523.85C1331.82 525.028 1345.98 529.352 1343.63 539.58C1341.27 549.808 1331.44 549.811 1327.5 550.205C1323.57 550.599 1313.34 549.815 1313.34 534.474Z" fill="#956F33"/>
<path d="M1011.88 696.836C1009.69 694.188 1005.89 688.071 1008.16 684.777C1010.99 680.66 1018.55 671.926 1025.1 676.845C1031.65 681.763 1028.54 688.779 1027.58 691.71C1026.62 694.64 1022.82 701.688 1011.88 696.836Z" fill="#A07837"/>
<path d="M733.331 481.8C731.147 479.153 727.345 473.035 729.611 469.742C732.444 465.625 740.01 456.891 746.559 461.81C753.109 466.728 749.999 473.744 749.035 476.674C748.072 479.605 744.276 486.653 733.331 481.8Z" fill="#A07837"/>
<path fill-rule="evenodd" clip-rule="evenodd" d="M1254.64 334.92C1246.17 343.196 1228.6 360.383 1218.82 362.138C1225.46 363.007 1232.18 358.881 1238.96 354.718C1248.67 348.758 1258.5 342.722 1268.4 351.146C1282.12 362.808 1277.04 382.125 1273.17 396.818C1271.22 404.231 1269.58 410.467 1270.82 413.948C1271.74 411.257 1272.49 408.248 1273.29 405.026C1276.09 393.734 1279.54 379.837 1293.4 367.945C1307.65 355.716 1497.26 202.652 1590.29 127.648C1597.92 115.85 1606.58 88.0351 1580.15 71.1668C1553.71 54.2984 1520.48 80.9306 1507.17 96.3552C1478.02 123.881 1438.5 161.268 1399.57 198.093L1399.55 198.107C1329.22 264.633 1260.82 329.324 1259.04 330.742C1258.34 331.299 1256.78 332.823 1254.64 334.92ZM1523.28 99.4101L1275.08 336.396C1275.08 336.396 1272.92 338.714 1274.11 340.332C1275.45 342.16 1279.2 340.673 1279.2 340.673L1523.51 105.52L1560.49 127.876L1289.14 349.709C1289.14 349.709 1287.79 351.822 1288.7 353.066C1289.89 354.685 1293.25 353.986 1293.25 353.986L1567.85 128.601L1523.28 99.4101Z" fill="#F6F6F6"/>
<path d="M1275.08 336.396L1523.28 99.4101L1567.85 128.601L1293.25 353.986C1293.25 353.986 1289.89 354.685 1288.7 353.066C1287.79 351.822 1289.14 349.709 1289.14 349.709L1560.49 127.876L1523.51 105.52L1279.2 340.673C1279.2 340.673 1275.45 342.16 1274.11 340.332C1272.92 338.714 1275.08 336.396 1275.08 336.396Z" fill="#ECECEC"/>
<path d="M1180.61 388.812C1179.6 382.178 1189 375.103 1217.84 373.879C1220.49 373.766 1224.79 372.156 1229.7 370.323C1239.4 366.692 1251.46 362.184 1257.63 366.687C1264.81 371.929 1263.26 387.229 1262.29 396.721L1262.29 396.723C1262.01 399.504 1261.77 401.785 1261.83 403.169C1262.06 409.28 1262.04 446.64 1252.94 450.136C1241.51 454.526 1229.5 438.949 1216.33 421.849C1216.33 421.846 1216.32 421.842 1216.32 421.839C1216.32 421.834 1216.31 421.828 1216.31 421.823C1214.93 420.038 1213.54 418.236 1212.14 416.439C1211.86 416.214 1211.57 415.987 1211.28 415.759C1198.03 405.273 1181.48 392.176 1180.61 388.812Z" fill="#F6F6F6"/>
<path d="M1121.16 558.134C1112.21 561.162 1106.3 545.87 1109.24 544.631C1111.05 543.871 1154.11 516.182 1188.84 493.1C1191.83 495.371 1198.26 500.511 1200.02 502.902C1201.78 505.294 1209.63 508.896 1213.34 510.398C1177.23 530.846 1127.09 556.125 1121.16 558.134Z" fill="#FAE5AD"/>
<path d="M1099.48 534.297C1092.07 537.05 1089.72 523.962 1092.66 522.723C1101.36 519.367 1127.39 499.182 1148.19 483.007C1146.6 485.123 1154.13 482.756 1161.62 480.401C1168.15 478.35 1174.64 476.309 1175.07 477.242C1175.66 478.555 1179.24 477.212 1182.66 475.925C1185.77 474.757 1188.76 473.635 1189.29 474.583C1155.24 498.57 1104.5 532.433 1099.48 534.297Z" fill="#FAE5AD"/>
<path d="M1081.09 515.557C1073.8 518.999 1070.04 506.875 1072.22 505.774C1084.69 499.918 1107.85 480.137 1129.58 459.92C1126.48 464.928 1120.88 474.917 1123.38 474.811C1125.81 474.708 1129.79 471.644 1133.44 468.841C1136.84 466.232 1139.94 463.849 1141.22 464.291C1143.33 465.023 1145.08 466.075 1145.69 466.51C1116.78 489.521 1085.04 513.692 1081.09 515.557Z" fill="#FAE5AD"/>
<path fill-rule="evenodd" clip-rule="evenodd" d="M1218.82 362.138C1205.92 363.742 1178.84 367.61 1173.62 370.253C1173.25 370.437 1172.87 370.632 1172.46 370.837C1165.57 374.312 1152.83 380.741 1145.2 388.153C1142.43 390.844 1130.96 402.536 1116.91 416.857C1114.49 419.32 1112 421.86 1109.46 424.446C1108.37 427.775 1106.94 434.812 1109.92 436.33C1112.04 437.414 1110.37 441.341 1109.02 444.489C1108.01 446.853 1107.19 448.778 1108.31 448.731C1109.54 448.678 1112 447.255 1114.37 445.887C1117 444.364 1119.52 442.908 1120.09 443.488C1143.8 422.3 1166.05 401.973 1167.72 399.042C1171.32 392.706 1184.92 402.353 1180.54 408.826C1178.19 412.306 1154.85 436.409 1129.58 459.92C1126.48 464.928 1120.88 474.917 1123.38 474.811C1125.81 474.708 1129.79 471.644 1133.44 468.841C1136.84 466.232 1139.94 463.849 1141.22 464.291C1143.33 465.023 1145.08 466.075 1145.69 466.51C1170.15 447.043 1192.59 428.407 1194.48 424.809C1197.05 421.504 1212.57 428.671 1205.26 436.384C1201.02 440.853 1176.86 460.71 1148.19 483.007C1146.6 485.123 1154.13 482.756 1161.62 480.401C1168.15 478.35 1174.64 476.309 1175.07 477.242C1175.66 478.555 1179.24 477.212 1182.66 475.925C1185.77 474.757 1188.76 473.635 1189.29 474.583C1205.53 463.139 1217.97 453.943 1219.84 451.54C1223.18 448.098 1239.46 455.128 1232.15 462.84C1229.32 465.822 1210.74 478.545 1188.84 493.1C1191.83 495.371 1198.26 500.511 1200.02 502.902C1201.78 505.294 1209.63 508.896 1213.34 510.398C1231.66 500.024 1246.37 490.894 1249.87 486.676C1260.28 474.143 1267.24 460.094 1268.7 450.59C1269.26 446.921 1269.09 442.432 1268.9 437.605C1268.6 429.925 1268.27 421.391 1270.82 413.948C1269.58 410.467 1271.22 404.231 1273.17 396.818C1277.04 382.125 1282.12 362.808 1268.4 351.146C1258.5 342.722 1248.67 348.758 1238.96 354.718C1232.18 358.881 1225.46 363.007 1218.82 362.138ZM1217.84 373.879C1189 375.103 1179.6 382.178 1180.61 388.812C1181.48 392.176 1198.03 405.273 1211.28 415.759L1212.14 416.439C1213.54 418.236 1214.93 420.038 1216.31 421.823L1216.32 421.839L1216.33 421.849C1229.5 438.949 1241.51 454.526 1252.94 450.136C1262.04 446.64 1262.06 409.28 1261.83 403.169C1261.77 401.785 1262.01 399.504 1262.29 396.723L1262.29 396.721C1263.26 387.229 1264.81 371.929 1257.63 366.687C1251.46 362.184 1239.4 366.692 1229.7 370.323C1224.79 372.156 1220.49 373.766 1217.84 373.879Z" fill="#ECECEC"/>
<path d="M1061.56 494.889C1058.75 496.816 1049.75 486.344 1050.79 483.314C1053.31 481.584 1083.71 450.682 1109.46 424.446C1108.37 427.775 1106.94 434.812 1109.92 436.33C1112.04 437.414 1110.37 441.341 1109.02 444.489C1108.01 446.853 1107.19 448.778 1108.31 448.731C1109.54 448.678 1112 447.255 1114.37 445.887C1117 444.364 1119.52 442.908 1120.09 443.488C1092.57 468.09 1063.08 493.853 1061.56 494.889Z" fill="#FAE5AD"/>
<path d="M1089.04 577.109C1085.16 574.148 1078.94 566.827 1085.16 561.239C1092.92 554.253 1109.24 551.075 1113.12 561.232C1117.01 571.389 1086.72 596.79 1099.93 608.85C1113.14 620.909 1120.91 631.065 1124.01 616.462C1127.11 601.86 1113.13 598.054 1124 585.989C1134.88 573.924 1148.08 561.224 1165.17 561.22C1182.26 561.215 1198.57 563.116 1213.33 568.191C1225.14 572.252 1236.38 563.53 1240.52 558.662C1250.36 565.855 1262.59 579.608 1232.76 577.075C1195.47 573.909 1162.84 558.046 1171.39 573.28C1179.94 588.515 1171.4 608.833 1165.18 597.407C1158.96 585.981 1153.52 562.492 1145.75 577.096C1137.99 591.699 1144.21 605.03 1153.53 606.932C1162.85 608.835 1129.45 608.208 1134.89 618.999C1140.33 629.791 1178.39 625.972 1179.94 616.449C1181.49 606.926 1179.16 594.864 1186.15 592.958C1193.14 591.051 1170.61 577.09 1186.15 577.086C1201.68 577.082 1200.14 598.033 1209.46 589.778C1216.91 583.173 1224.47 584.484 1227.32 585.964C1235.87 584.904 1251.71 584.816 1246.74 592.943C1240.53 603.102 1193.92 597.4 1201.69 606.921C1209.46 616.442 1221.89 601.202 1227.33 608.819C1232.77 616.436 1195.48 607.557 1190.82 613.272C1186.16 618.987 1170.62 629.149 1186.16 629.78C1201.7 630.411 1193.93 622.794 1197.81 620.889C1201.69 618.983 1199.36 618.984 1213.35 618.981C1227.33 618.977 1240.53 612.625 1240.53 606.912C1240.53 601.198 1245.97 595.483 1259.18 601.193C1272.38 606.904 1277.82 599.919 1268.5 592.938C1259.17 585.957 1249.85 575.166 1259.17 568.18C1268.49 561.195 1270.04 547.862 1262.27 540.88C1254.5 533.899 1251.39 522.472 1240.52 534.537C1229.64 546.602 1234.31 566.282 1217.99 558.667C1201.68 551.053 1185.36 540.899 1195.46 528.834C1205.55 516.769 1213.32 516.767 1209.44 528.831C1205.56 540.894 1208.67 551.051 1217.99 545.97C1227.31 540.889 1240.52 536.442 1232.75 525.651C1224.97 514.86 1192.34 498.996 1186.13 510.425C1179.92 521.854 1171.38 524.396 1179.92 534.551C1188.47 544.707 1204.01 559.94 1186.14 552.961C1168.27 545.982 1172.15 529.474 1148.07 537.733C1123.99 545.992 1123.99 547.262 1124 556.15C1124 565.038 1121.67 552.976 1134.87 552.973C1148.08 552.97 1160.51 552.332 1162.84 554.236" stroke="#E8BB46" stroke-width="8.15548"/>
<path d="M1290.98 564.697C1301.51 563.335 1322.58 571.316 1308.82 582.532C1288.76 598.885 1309.85 620.252 1322.59 605.976C1320.89 604.108 1318.51 596.802 1322.59 582.529C1327.68 564.688 1338.89 550.414 1348.58 557.547C1358.26 564.681 1332.26 553.474 1335.33 571.823C1338.39 590.172 1314.95 614.643 1335.33 605.973C1355.72 597.304 1322.59 605.977 1322.59 619.23C1322.6 632.482 1313.93 617.193 1296.09 611.59C1278.25 605.987 1255.82 610.58 1271.11 619.242C1286.41 627.903 1301.19 632.488 1296.09 619.236C1290.99 605.984 1285.89 615.161 1290.99 598.848C1296.08 582.536 1296.6 633.508 1315.97 630.955C1335.34 628.401 1339.92 600.365 1348.59 605.97C1357.25 611.576 1337.37 600.366 1348.58 582.523C1359.79 564.68 1388.33 552.951 1365.39 550.408C1342.46 547.864 1364.38 578.953 1375.59 571.813C1386.81 564.674 1349.09 577.427 1357.25 591.696C1365.41 605.966 1350.63 635.024 1342.99 630.948C1335.34 626.872 1291.5 623.825 1296.09 630.959C1300.68 638.094 1335.35 663.572 1335.34 643.693C1335.34 623.814 1344 614.637 1348.59 619.223" stroke="#E8BB46" stroke-width="8.15548"/>
<path d="M757.141 337.998C765.204 343.281 779.756 355.283 773.463 361.03C765.597 368.213 738.301 373.878 738.236 357.027" stroke="#E8BB46" stroke-width="8.15548"/>
<path d="M741.407 646.935C723.437 657.795 736.683 683.199 749.28 679.693C765.027 675.309 782.785 660.235 754.654 662.924" stroke="#E8BB46" stroke-width="8.15548"/>
<path d="M1048.32 674.994C1055.25 670.507 1051.2 663.27 1048.31 660.212C1052.39 656.134 1060.55 668.875 1065.65 671.422C1070.74 673.969 1070.24 688.751 1068.2 693.339C1066.16 697.927 1062.09 700.986 1058.52 695.38C1054.95 689.774 1048.32 687.737 1042.71 686.209C1037.11 684.681 1039.65 680.603 1048.32 674.994Z" fill="#6E8142"/>
<path d="M764.432 465.019C766.364 463.822 770.615 461.787 772.161 463.222C774.094 465.017 783.437 482.288 781.505 484.083C779.574 485.878 772.167 488.796 772.166 486.104C772.166 483.412 766.043 466.813 764.432 465.019Z" fill="#A64609"/>
<path d="M1762.65 1281.19C1753.76 1284.48 1614.08 1256.22 1604.51 1253.56C1599.44 1252.14 1528.88 1244.82 1462.27 1237.9L1462.26 1237.9C1403.35 1231.78 1347.53 1225.98 1342.86 1224.88C1337.87 1223.71 1300.14 1218.18 1261.51 1212.52C1223.23 1206.91 1184.07 1201.18 1175.01 1199.42C1161.6 1196.81 1154.36 1195.8 1147.83 1194.89L1147.82 1194.89C1145.49 1194.57 1143.25 1194.26 1140.85 1193.89C1139.65 1193.7 1135.67 1193.12 1129.64 1192.23C1101.53 1188.08 1028.99 1177.39 988.094 1170.66L995.994 1164.97L994.903 1160.04L1001.88 1153.86L998.951 1150.56L1005.11 1146.42L1002.18 1143.11L1007.69 1138.24L1003.95 1131.06L1014.23 1121.96L1006.26 1115.91C1110.97 1130.82 1325.95 1161.87 1348.16 1166.83C1360.41 1169.56 1431.55 1178.97 1509.02 1189.22L1509.03 1189.22C1607.08 1202.19 1715.27 1216.51 1727.07 1220.33C1743.97 1225.8 1798.21 1227.41 1823.22 1227.53C1805.99 1244.33 1769.76 1278.56 1762.65 1281.19Z" fill="#B6B0A4"/>
<path d="M952.095 894.412C953.888 893.478 972.53 894.989 975.908 896.583C978.177 897.654 980.82 899.47 982.566 898.85C983.42 898.548 984.236 898.258 985.038 898.193C986.051 898.11 988.433 898.051 991.224 897.981L991.226 897.981L991.232 897.981C995.177 897.882 999.935 897.764 1002.8 897.53C1006.68 897.213 1018.42 899.919 1023.54 902.411L1026.24 906.244L1021.47 910.472L1028.3 918.181L1023.12 923.426L1029.14 927.264L1023.66 937.356L1032.12 946.9L1024.61 956.173L1031.4 964.574L1025.64 973.606L1034.91 981.115L1030.82 991.29L1034.63 1002.99L1025.45 1011.12L1028.53 1023.46L1021.43 1031.72L1024.83 1044.43L1018.09 1052.36L1021.86 1064.75L1014.89 1070.93L1019.02 1082.99L1011.75 1094.01L1014.71 1102.53L1006.26 1115.91C1003.52 1115.12 997.58 1113.66 995.782 1114.19C993.984 1114.73 987.874 1115.04 985.044 1115.13C983.397 1114.33 979.729 1112.75 978.226 1112.88C977.648 1112.94 976.856 1112.58 975.848 1112.13L975.846 1112.13C973.58 1111.12 970.226 1109.62 965.776 1111.13C963.543 1111.89 962.173 1112.75 961.07 1113.43C958.997 1114.73 957.866 1115.43 953.711 1113.81C950.56 1112.58 946.125 1112.55 942.076 1112.52C937.945 1112.5 934.217 1112.48 932.67 1111.18C931.66 1110.33 931.242 1109.69 930.91 1109.18C930.236 1108.14 929.912 1107.64 925.689 1107.06C920.646 1106.36 909.467 1103.94 904.508 1102.82C905.5 1102.38 906.474 1102.25 907.38 1102.13C909.027 1101.91 910.451 1101.72 911.351 1099.75C912.067 1098.18 913.157 1097.03 914.216 1095.91C916.12 1093.91 917.923 1092.01 917.276 1087.95C916.268 1081.63 918.9 1066.85 920.903 1062.46C922.906 1058.06 918.437 1051.54 914.209 1046.77C912.295 1044.61 910.753 1044.53 909.066 1044.45C908.072 1044.41 907.028 1044.36 905.827 1043.88C904.563 1043.37 903.125 1042.39 901.391 1040.43C896.753 1035.2 896.335 1031.39 895.851 1027C895.69 1025.53 895.522 1024.01 895.19 1022.34C894.692 1019.85 893.571 1017.27 892.453 1014.69C890.574 1010.37 888.703 1006.07 889.807 1002.21C891.568 996.066 890.645 988.367 883.722 987.948C876.854 987.532 874.321 983.276 869.047 974.412L868.92 974.198C865.073 967.732 864.466 966.038 864.051 962.156C863.888 960.629 863.744 959.277 863.424 958.081C862.291 953.843 856.788 946.458 851.324 950.643C846.949 953.995 844.624 947.984 839.471 947.995L838.44 948.972C837.158 948.974 835.829 948.977 834.441 949.032C832.521 949.107 830.543 948.836 828.645 948.575C823.658 947.891 819.226 947.283 817.859 953.24C815.971 961.463 805.523 965.498 802.879 963.254C800.236 961.009 789.359 962.783 786.254 968.154C785.589 969.305 785.143 970.262 784.758 971.088C783.875 972.982 783.316 974.181 781.17 975.439C779.892 976.189 778.051 976.959 775.242 977.91C773.912 978.36 772.649 978.801 771.458 979.217C771.115 979.337 770.784 979.453 770.465 979.566C770.297 979.625 770.132 979.683 769.97 979.739C763.786 981.916 761.937 982.567 760.997 979.73C760.844 979.269 760.223 978.919 759.6 978.568C758.869 978.156 758.137 977.743 758.155 977.15C758.243 974.355 758.327 971.675 752.364 971.314C750.428 971.197 748.804 970.91 747.381 970.543C745.693 970.108 744.288 969.561 742.981 969.051C740.663 968.148 738.653 967.365 735.917 967.54C732.198 967.778 729.843 969.426 728.016 970.705C727.102 971.346 726.319 971.893 725.564 972.125C724.298 972.513 723.373 971.272 722.818 969.994C722.675 969.427 722.508 968.912 722.312 968.454C719.27 961.321 729.149 947.328 730.251 946.352C731.352 945.377 732.399 928.069 730.982 922.773C729.566 917.476 732.008 894.347 733.612 885.064C734.693 878.804 738.141 875.214 740.648 872.605C741.859 871.344 742.85 870.312 743.25 869.318C744.476 866.266 756.822 863.192 761.175 865.887C764.165 867.738 777.646 869.569 786.904 870.826L786.908 870.826C791.127 871.399 794.468 871.853 795.538 872.135C798.958 873.037 809.342 873.665 812.846 873.182C815.176 872.861 822.344 873.343 828.24 875.294C831.21 876.276 839.517 875.424 840.894 875.74C845.006 876.684 853.481 879.115 857.719 877.982C860.026 877.365 872.263 879.408 883.835 881.341L883.837 881.341C893.519 882.958 902.735 884.496 905.277 884.334C909.584 884.058 928.956 887.793 933.881 891.6C933.195 891.163 935.333 892.723 933.881 891.6C936.892 893.519 950.301 895.346 952.095 894.412Z" fill="#32180C"/>
<path fill-rule="evenodd" clip-rule="evenodd" d="M722.312 968.454C722.508 968.912 722.675 969.427 722.818 969.994C722.581 969.446 722.411 968.89 722.312 968.454Z" fill="#D9D9D9"/>
<path d="M985.6 1170.25C947.541 1165.75 869.901 1156.65 863.809 1156.28C859.665 1156.03 856.046 1152.21 852.296 1148.25C849.154 1144.94 845.921 1141.53 842.21 1140.03C846.095 1137.5 852.906 1133.68 859.213 1131.5C863.473 1130.03 867.503 1129.32 870.246 1130.27C873.652 1131.45 877.203 1132.08 880.495 1132.18C885.426 1132.34 889.779 1131.31 892.2 1129.16C893.277 1128.21 894.594 1127.37 895.874 1126.55C899.392 1124.31 902.624 1122.24 899.793 1118.51C896.375 1113.99 896.814 1113.25 899.655 1108.48C899.657 1108.48 899.66 1108.47 899.663 1108.47C900.028 1107.85 900.432 1107.17 900.873 1106.41C902.05 1104.37 903.292 1103.37 904.508 1102.82C909.467 1103.94 920.646 1106.36 925.689 1107.06C929.912 1107.64 930.236 1108.14 930.91 1109.18C931.242 1109.69 931.66 1110.33 932.67 1111.18C934.217 1112.48 937.945 1112.5 942.076 1112.52C946.125 1112.55 950.56 1112.58 953.711 1113.81C957.866 1115.43 958.997 1114.73 961.07 1113.43C962.173 1112.75 963.543 1111.89 965.776 1111.13C970.226 1109.62 973.58 1111.12 975.846 1112.13L975.848 1112.13C976.856 1112.58 977.648 1112.94 978.226 1112.88C979.729 1112.75 983.397 1114.33 985.044 1115.13C987.874 1115.04 993.984 1114.73 995.782 1114.19C997.58 1113.66 1003.52 1115.12 1006.26 1115.91L1014.23 1121.96L1003.95 1131.06L1007.69 1138.24L1002.18 1143.11L1005.11 1146.42L998.951 1150.56L1001.88 1153.86L994.903 1160.04L995.994 1164.97L988.094 1170.66L986.568 1170.41L985.6 1170.25Z" fill="#2A1309"/>
<path fill-rule="evenodd" clip-rule="evenodd" d="M1823.22 1227.53L1790.76 1034.84C1785.42 1033.01 1773.58 1029.35 1768.85 1029.35C1767.08 1029.34 1750.43 1025.73 1727.49 1020.74C1689.47 1012.47 1634.15 1000.45 1600.48 994.871L1309.11 945.247L1239.25 928.513L1214.65 927.372L1175.69 916.677L1123.12 912.801L1080.94 903.648L1057.07 907.762L1021.12 898.986L1023.54 902.411L1026.24 906.244L1021.47 910.472L1028.3 918.181L1023.12 923.426L1029.14 927.264L1023.66 937.356L1032.12 946.9L1024.61 956.173L1031.4 964.574L1025.64 973.606L1034.91 981.115L1030.82 991.29L1034.63 1002.99L1025.45 1011.12L1028.53 1023.46L1021.43 1031.72L1024.83 1044.43L1018.09 1052.36L1021.86 1064.75L1014.89 1070.93L1019.02 1082.99L1011.75 1094.01L1014.71 1102.53L1006.26 1115.91C1110.97 1130.82 1325.95 1161.87 1348.16 1166.83C1360.41 1169.56 1431.55 1178.97 1509.02 1189.22L1509.03 1189.22C1607.08 1202.19 1715.27 1216.51 1727.07 1220.33C1743.97 1225.8 1798.21 1227.41 1823.22 1227.53ZM1352.44 968.41C1352.44 968.41 1138.83 931.359 1124.79 932.261C1118.25 946.527 1102.16 1109.4 1102.16 1109.4L1258.43 1131.89L1476.9 1163.73L1476.57 984.919L1352.44 968.41Z" fill="#E3DBD2"/>
<path d="M1124.79 932.261C1138.83 931.359 1352.44 968.41 1352.44 968.41L1476.57 984.919L1476.9 1163.73L1258.43 1131.89L1102.16 1109.4C1102.16 1109.4 1118.25 946.527 1124.79 932.261Z" fill="#365BCD"/>
<path d="M883.722 987.948C890.645 988.367 891.568 996.066 889.807 1002.21C888.703 1006.07 890.574 1010.37 892.453 1014.69C893.571 1017.27 894.692 1019.85 895.19 1022.34C895.522 1024.01 895.69 1025.53 895.851 1027C896.335 1031.39 896.753 1035.2 901.391 1040.43C903.125 1042.39 904.563 1043.37 905.827 1043.88C905.747 1047.45 902.214 1049.58 897.574 1050.53C891.981 1051.67 883.828 1052.65 880.08 1049.27C872.003 1042 875.469 1034.92 878.503 1028.5C876.129 1033.08 864.037 1032.9 858.503 1026C854.076 1020.48 854.623 1012.33 856.596 1008.89C851.67 1013.22 841.751 1015.97 834.441 1014.69C827.005 1013.4 826.418 1008.04 827.001 1005.12C827.254 1004.69 827.397 1004.23 827.408 1003.74C827.411 1003.62 827.191 1004.18 827.001 1005.12C825.751 1007.25 820.24 1007.22 816.902 1005.12C812.272 1002.21 813.39 996.09 813.481 990.424C812.425 992.332 811.213 994.039 810.113 995.35C808.176 1001.81 794.782 1001.74 786.254 999.996C779.432 998.6 774.05 996.863 773.347 993.31C777.221 989.74 782.217 984.055 781.17 975.439C783.316 974.181 783.875 972.982 784.758 971.088C785.143 970.262 785.589 969.305 786.254 968.154C789.359 962.783 800.236 961.009 802.879 963.254C805.523 965.498 815.971 961.463 817.859 953.24C819.226 947.283 823.658 947.891 828.645 948.575C830.543 948.836 832.521 949.107 834.441 949.032C835.829 948.977 837.158 948.974 838.44 948.972L839.471 947.995C844.624 947.984 846.949 953.995 851.324 950.643C856.788 946.458 862.291 953.843 863.424 958.081C863.744 959.277 863.888 960.629 864.051 962.156C864.466 966.038 865.073 967.732 868.92 974.198L869.047 974.412C874.321 983.276 876.854 987.532 883.722 987.948Z" fill="#A86F2E"/>
<path d="M771.458 979.217C772.649 978.801 773.912 978.36 775.242 977.91C778.051 976.959 779.892 976.189 781.17 975.439C782.217 984.055 777.221 989.74 773.347 993.31C772.728 993.882 772.136 994.399 771.604 994.865C770.555 995.782 769.732 996.502 769.356 997.051C768.585 998.179 763.748 997.947 758.155 998.496C750.987 999.2 743.538 998.116 740.648 991.996C739.583 989.74 738.474 989.231 738.618 986.996C739.068 980.033 744.281 973.617 747.381 970.543C748.804 970.91 750.428 971.197 752.364 971.314C758.327 971.675 758.243 974.355 758.155 977.15C758.137 977.743 758.869 978.156 759.6 978.568C760.223 978.919 760.844 979.269 760.997 979.73C761.937 982.567 763.786 981.916 769.97 979.739L770.465 979.566C770.784 979.453 771.115 979.337 771.458 979.217Z" fill="#A86F2E"/>
<path d="M920.903 1062.46C918.9 1066.85 916.268 1081.63 917.276 1087.95C917.923 1092.01 916.12 1093.91 914.216 1095.91C913.157 1097.03 912.067 1098.18 911.351 1099.75C910.451 1101.72 909.027 1101.91 907.38 1102.13C906.474 1102.25 905.5 1102.38 904.508 1102.82C903.292 1103.37 902.05 1104.37 900.873 1106.41C900.432 1107.17 900.028 1107.85 899.663 1108.47L899.655 1108.48C896.814 1113.25 896.375 1113.99 899.793 1118.51C902.624 1122.24 899.392 1124.31 895.874 1126.55C894.594 1127.37 893.277 1128.21 892.2 1129.16C889.779 1131.31 885.426 1132.34 880.495 1132.18C874.166 1128.83 876.748 1114.87 878.738 1109.18C880.33 1104.64 896.688 1098.3 904.668 1095.7C900.963 1095.62 892.147 1092.48 886.518 1080.58C880.326 1067.5 891.543 1055.59 897.574 1050.53C902.214 1049.58 905.747 1047.45 905.827 1043.88C907.028 1044.36 908.072 1044.41 909.066 1044.45C910.753 1044.53 912.295 1044.61 914.209 1046.77C918.437 1051.54 922.906 1058.06 920.903 1062.46Z" fill="#A86F2E"/>
<path d="M773.347 993.31C774.05 996.863 779.432 998.6 786.254 999.996C794.782 1001.74 808.176 1001.81 810.113 995.35C811.213 994.039 812.425 992.332 813.481 990.424C813.39 996.09 812.272 1002.21 816.902 1005.12C820.24 1007.22 825.751 1007.25 827.001 1005.12C826.418 1008.04 827.005 1013.4 834.441 1014.69C841.751 1015.97 851.67 1013.22 856.596 1008.89C854.623 1012.33 854.076 1020.48 858.503 1026C864.037 1032.9 876.129 1033.08 878.503 1028.5C875.469 1034.92 872.003 1042 880.08 1049.27C883.828 1052.65 891.981 1051.67 897.574 1050.53C891.543 1055.59 880.326 1067.5 886.518 1080.58C892.147 1092.48 900.963 1095.62 904.668 1095.7C896.688 1098.3 880.33 1104.64 878.738 1109.18C876.748 1114.87 874.166 1128.83 880.495 1132.18C877.203 1132.08 873.652 1131.45 870.246 1130.27C867.503 1129.32 863.473 1130.03 859.213 1131.5C859.213 1129.85 859.771 1124.94 862.003 1118.51C863.077 1115.41 865.803 1111.32 868.566 1107.17C872.982 1100.54 877.493 1093.77 875.503 1090.69C873.418 1087.47 873.397 1079.18 873.379 1071.73C873.368 1067.62 873.359 1063.76 873.003 1061.14C872.012 1053.85 863.573 1053.05 856.4 1052.38L856.211 1052.36C852.163 1051.98 851.119 1044.04 850.131 1036.52C849.358 1030.64 848.618 1025.01 846.503 1023.46C842.087 1020.22 835.642 1019.59 826.952 1018.74C826.155 1018.66 825.338 1018.58 824.503 1018.5C818.404 1017.88 815.083 1015.24 812.272 1013.01C810.502 1011.6 808.935 1010.35 807.003 1009.88C804.039 1009.14 797.298 1009.71 790.372 1010.3C785.614 1010.7 780.77 1011.12 777.003 1011.12C771.917 1011.12 766.432 1007.73 762.46 1004.45C760.651 1002.96 759.156 999.617 758.155 998.496C763.748 997.947 768.585 998.179 769.356 997.051C769.732 996.502 770.555 995.782 771.604 994.865C772.136 994.399 772.728 993.882 773.347 993.31Z" fill="#C59762"/>
<path fill-rule="evenodd" clip-rule="evenodd" d="M730.227 990.259C733.171 989.838 736.429 988.326 738.618 986.996C738.474 989.231 739.583 989.74 740.648 991.996C743.538 998.116 750.987 999.2 758.155 998.496C759.156 999.617 760.651 1002.96 762.46 1004.45C746.867 1007.23 736.452 999.33 730.227 990.259Z" fill="#C59762"/>
<path d="M735.917 967.54C738.653 967.365 740.663 968.148 742.981 969.051C744.288 969.561 745.693 970.108 747.381 970.543C744.281 973.617 739.068 980.033 738.618 986.996C736.429 988.326 733.171 989.838 730.227 990.259C726.697 985.115 724.514 979.596 723.499 975.439C723.402 973.337 723.195 971.487 722.818 969.994C723.373 971.272 724.298 972.513 725.564 972.125C726.319 971.893 727.102 971.346 728.016 970.705C729.843 969.426 732.198 967.778 735.917 967.54Z" fill="#A86F2E"/>
<path fill-rule="evenodd" clip-rule="evenodd" d="M739.07 1030.26C732.755 1031.27 725.601 1023.2 723.628 1009.88C722.711 1003.69 723.018 995.857 723.306 988.526L723.306 988.517C723.346 987.498 723.385 986.489 723.421 985.496C723.895 989.791 726.855 990.741 730.227 990.259C736.452 999.33 746.867 1007.23 762.46 1004.45C766.432 1007.73 771.917 1011.12 777.003 1011.12C780.77 1011.12 785.614 1010.7 790.372 1010.3C797.298 1009.71 804.039 1009.14 807.003 1009.88C808.935 1010.35 810.502 1011.6 812.272 1013.01C815.083 1015.24 818.404 1017.88 824.503 1018.5C825.338 1018.58 826.155 1018.66 826.952 1018.74C835.642 1019.59 842.087 1020.22 846.503 1023.46C848.618 1025.01 849.358 1030.64 850.131 1036.52C851.119 1044.04 852.163 1051.98 856.211 1052.36L856.4 1052.38C863.573 1053.05 872.012 1053.85 873.003 1061.14C873.359 1063.76 873.368 1067.62 873.379 1071.73C873.397 1079.18 873.418 1087.47 875.503 1090.69C877.493 1093.77 872.982 1100.54 868.566 1107.17C865.803 1111.32 863.077 1115.41 862.003 1118.51C859.771 1124.94 859.213 1129.85 859.213 1131.5C852.906 1133.68 846.095 1137.5 842.21 1140.03C837.473 1138.13 838.611 1136.35 840.273 1133.74C841.467 1131.87 842.931 1129.58 842.681 1126.51C842.082 1119.18 838.788 1116.2 831.424 1111.59C824.06 1106.97 826.315 1098.43 830.604 1090.69C832.783 1086.77 832.071 1083.2 831.394 1079.81C830.739 1076.53 830.117 1073.42 832.186 1070.29C834.592 1066.66 830.676 1064.13 826.064 1061.14C822.615 1058.91 818.777 1056.42 816.901 1053.04C814.786 1049.22 806.171 1048.57 798.074 1047.96C789.388 1047.31 781.298 1046.7 782.465 1042.27C784.007 1036.42 778.677 1036.66 772.849 1036.92C770.158 1037.04 767.36 1037.17 765.083 1036.7C762.518 1036.18 759.283 1035.08 755.895 1033.93L755.894 1033.93C749.765 1031.86 743.136 1029.62 739.07 1030.26ZM827.408 1003.74C827.411 1003.62 827.191 1004.18 827.001 1005.12C827.254 1004.69 827.397 1004.23 827.408 1003.74Z" fill="#904A26"/>
<path d="M723.421 985.496C723.553 981.838 723.634 978.39 723.499 975.439C724.514 979.596 726.697 985.115 730.227 990.259C726.855 990.741 723.895 989.791 723.421 985.496Z" fill="#A86F2E"/>
<path d="M849.125 1173.67C850.362 1179.71 842.914 1186.33 832.49 1188.47C822.065 1190.6 813.645 1192.48 811.375 1181.4C809.104 1170.32 817.585 1168.74 828.01 1166.6C838.434 1164.47 847.888 1167.63 849.125 1173.67Z" fill="#32180C"/>
<path d="M883.748 1174.84C889.299 1181.44 884.587 1186.67 878.008 1192.21C871.429 1197.74 863.332 1198.95 859.923 1194.9C856.514 1190.85 859.084 1183.08 865.663 1177.54C872.242 1172 878.198 1168.25 883.748 1174.84Z" fill="#32180C"/>
<path d="M20.9704 83.2866L21.5285 84.2168C20.4373 84.9598 19.0517 84.9389 17.9275 84.1601C17.1595 83.6281 16.7024 82.9326 16.5639 82.0625C16.4254 81.1924 16.632 80.3472 17.1949 79.5347C17.7577 78.7222 18.4686 78.2428 19.3319 78.0666C20.1952 77.8904 21.0147 78.0628 21.7827 78.5948C22.4171 79.0343 22.8392 79.5902 23.0522 80.2813C23.2652 80.9725 23.2454 81.667 22.9737 82.3683L21.965 82.0648C22.354 81.099 22.0417 80.0755 21.1847 79.4818C20.6615 79.1194 20.1152 79.0045 19.5157 79.1328C18.9239 79.25 18.4409 79.5907 18.0631 80.1361C17.6852 80.6815 17.5361 81.2535 17.6267 81.8598C17.725 82.4551 18.0246 82.9261 18.5478 83.2885C19.2935 83.8051 20.2175 83.8028 20.9704 83.2866Z" fill="#F5F4F0"/>
<path d="M30.9508 85.1104L22.4568 90.2625L21.4996 89.5994L24.0845 88.0792L25.3743 81.2475L26.4095 81.9646L25.3376 87.3166L30.0158 84.4627L30.9508 85.1104Z" fill="#F5F4F0"/>
<path d="M33.3117 94.6522L32.4212 94.0354L35.5516 89.5163L32.9805 87.7353L29.8501 92.2543L28.9596 91.6375L32.6606 86.2948L37.0127 89.3095L33.3117 94.6522Z" fill="#F5F4F0"/>
<path d="M38.177 93.4927L41.6943 95.9292C42.2503 94.8649 42.0288 93.8055 41.0604 93.1347C40.0921 92.4639 39.0002 92.6135 38.177 93.4927ZM40.7424 97.4935L41.1429 98.4134C40.1391 98.8875 38.9403 98.7159 37.9051 97.9988C37.1148 97.4514 36.6243 96.7328 36.4636 95.8473C36.3028 94.9617 36.4983 94.1089 37.0612 93.2963C37.624 92.4838 38.3427 91.9933 39.2059 91.8171C40.0803 91.6486 40.9032 91.8398 41.6935 92.3873C42.4281 92.8961 42.8596 93.5574 43.0066 94.3675C43.1537 95.1777 42.9591 95.9818 42.4117 96.772C42.2652 96.9835 42.123 97.165 41.9662 97.32L37.6252 94.313C37.1214 95.397 37.4474 96.4958 38.4714 97.2052C39.1726 97.6909 40.0795 97.8085 40.7424 97.4935Z" fill="#F5F4F0"/>
<path d="M44.4436 100.535C44.4897 101.111 44.7447 101.551 45.1788 101.851C45.6129 102.152 46.1147 102.236 46.6697 102.077C47.2247 101.918 47.712 101.547 48.1207 100.957C48.5293 100.367 48.6974 99.792 48.6513 99.2165C48.6052 98.641 48.3578 98.1897 47.9237 97.889C47.4896 97.5883 46.9801 97.5153 46.4251 97.6745C45.8702 97.8336 45.3905 98.1931 44.9819 98.7831C44.5732 99.373 44.3975 99.9595 44.4436 100.535ZM43.2427 101.532L41.7777 103.646L40.8873 103.03C41.415 102.291 42.2708 101.056 43.4814 99.3085C44.6919 97.5609 45.5477 96.3254 46.0532 95.572L46.9436 96.1888C46.7277 96.5005 46.5547 96.7265 46.4279 96.8857C47.2398 96.641 48.0002 96.756 48.6903 97.234C49.3471 97.689 49.704 98.3151 49.7911 99.1166C49.8782 99.9182 49.6271 100.733 49.0334 101.59C48.4397 102.447 47.7579 102.979 46.9768 103.179C46.1958 103.38 45.4919 103.254 44.8352 102.799C44.1339 102.314 43.7702 101.65 43.7216 100.793C43.5708 101.034 43.4123 101.287 43.2427 101.532Z" fill="#F5F4F0"/>
<path d="M56.8334 109.809L59.527 111.675L62.1639 107.869L60.3274 106.596C59.5298 107.724 58.877 108.524 58.3768 108.984C57.8765 109.445 57.3644 109.732 56.8334 109.809ZM63.5419 107.687L60.3729 112.261L61.23 112.855L59.927 114.736L59.0699 114.142L59.8409 113.029L56.0454 110.4L55.2743 111.513L54.4173 110.919L55.7203 109.038C56.2864 109.101 56.7017 108.977 57.1231 108.725C57.3433 108.598 57.5951 108.377 57.8829 108.033C58.1708 107.689 58.4552 107.326 58.7516 106.921C59.048 106.517 59.4601 105.946 59.9689 105.212L63.5419 107.687Z" fill="#F5F4F0"/>
<path d="M70.9951 112.85L62.5011 118.002L61.5438 117.339L64.1288 115.818L65.4186 108.987L66.4538 109.704L65.3819 115.056L70.0601 112.202L70.9951 112.85Z" fill="#F5F4F0"/>
<path d="M73.356 122.391L72.4655 121.775L75.5959 117.255L73.0247 115.474L69.8943 119.993L69.0039 119.377L72.7048 114.034L77.0569 117.049L73.356 122.391Z" fill="#F5F4F0"/>
<path d="M78.2212 121.232L81.7385 123.668C82.2946 122.604 82.0731 121.545 81.1047 120.874C80.1364 120.203 79.0445 120.353 78.2212 121.232ZM80.7867 125.233L81.1872 126.152C80.1834 126.627 78.9846 126.455 77.9494 125.738C77.1591 125.191 76.6686 124.472 76.5079 123.586C76.3471 122.701 76.5426 121.848 77.1055 121.035C77.6683 120.223 78.3869 119.732 79.2502 119.556C80.1246 119.388 80.9475 119.579 81.7378 120.126C82.4724 120.635 82.9038 121.296 83.0509 122.107C83.198 122.917 83.0034 123.721 82.4559 124.511C82.3094 124.723 82.1672 124.904 82.0105 125.059L77.6695 122.052C77.1657 123.136 77.4917 124.235 78.5157 124.944C79.2169 125.43 80.1238 125.548 80.7867 125.233Z" fill="#F5F4F0"/>
<path d="M84.4879 128.274C84.5339 128.85 84.789 129.29 85.2231 129.591C85.6572 129.891 86.159 129.975 86.714 129.816C87.269 129.657 87.7563 129.286 88.165 128.696C88.5736 128.107 88.7416 127.531 88.6955 126.956C88.6495 126.38 88.4021 125.929 87.968 125.628C87.5339 125.327 87.0244 125.254 86.4694 125.414C85.9144 125.573 85.4348 125.932 85.0261 126.522C84.6175 127.112 84.4418 127.699 84.4879 128.274ZM83.287 129.271L81.822 131.385L80.9315 130.769C81.4593 130.031 82.3151 128.795 83.5256 127.048C84.7362 125.3 85.592 124.065 86.0975 123.311L86.9879 123.928C86.772 124.24 86.599 124.466 86.4722 124.625C87.2841 124.38 88.0445 124.495 88.7346 124.973C89.3913 125.428 89.7483 126.054 89.8354 126.856C89.9225 127.657 89.6714 128.472 89.0777 129.329C88.484 130.186 87.8022 130.718 87.0211 130.918C86.2401 131.119 85.5362 130.993 84.8795 130.538C84.1782 130.053 83.8144 129.389 83.7659 128.532C83.6151 128.773 83.4566 129.026 83.287 129.271Z" fill="#F5F4F0"/>
<path d="M26.6481 112.518L6.85449 140.253L3.44096 137.817L12.5765 125.016C10.224 124.432 7.94451 123.385 5.72572 121.801C3.03757 119.883 1.27555 117.659 0.409222 115.173C-0.457111 112.687 0.0476165 110.085 1.96607 107.397L7.8737 99.119L11.4152 101.647L5.65986 109.711C3.37599 112.911 4.34006 115.982 8.52162 118.966C10.7831 120.58 12.9041 121.579 14.8299 121.858L23.2346 110.082L26.6481 112.518Z" fill="#F5F4F0"/>
<path d="M27.4768 138.483L35.3279 144.087L40.6901 128.271L27.4768 138.483ZM34.3167 159.852L30.8605 157.385L34.0559 147.944L24.242 140.941L16.353 147.031L12.9822 144.626L41.4376 123.073L45.4485 125.935L34.3167 159.852Z" fill="#F5F4F0"/>
<path d="M78.0196 136.3L80.8784 138.34C79.7822 139.876 78.2835 140.803 76.4555 141.108C74.6274 141.414 72.9393 140.982 71.4032 139.886C69.9098 138.82 68.9525 137.364 68.6043 135.505C68.2989 133.677 68.6882 131.959 69.7845 130.423L72.6433 132.463C71.547 133.999 71.9196 136.004 73.413 137.07C74.9064 138.135 76.9233 137.836 78.0196 136.3ZM58.4934 177.106L55.2078 174.761L73.3266 149.373L45.2233 167.635L39.975 163.89L59.7686 136.155L63.0541 138.5L45.9403 162.48L72.484 145.23L78.287 149.371L58.4934 177.106Z" fill="#F5F4F0"/>
<path d="M1137.04 1064.9L1146.92 1055.88C1153.1 1063.05 1162.87 1067.67 1176.24 1069.58C1190.22 1071.58 1200.12 1066.71 1201.56 1056.64C1202.22 1051.98 1200.79 1048.1 1197.2 1045.28C1193.77 1042.49 1186.79 1038.73 1176.27 1034.01C1166.33 1029.52 1159.16 1024.97 1155.06 1020.39C1150.96 1015.82 1149.52 1009.78 1150.58 1002.42C1151.8 993.853 1156.07 987.563 1163.35 983.85C1170.78 980.159 1179.54 978.958 1189.61 980.399C1202.09 982.183 1212.11 987.145 1220.01 995.176L1211.34 1003.29C1204.81 996.376 1196.5 992.273 1186.58 990.854C1173.21 988.941 1164.02 993.147 1162.58 1003.22C1161.89 1008.03 1163.03 1011.87 1166.16 1014.62C1169.29 1017.37 1174.98 1020.48 1183.06 1024.09L1192.69 1028.54C1195.14 1029.65 1198.1 1031.46 1201.48 1033.63C1204.85 1035.8 1207.46 1037.86 1209.16 1039.94C1212.72 1043.98 1215.34 1050.33 1214.4 1056.95C1212.96 1067.01 1208.29 1073.86 1200.54 1077.66C1192.81 1081.31 1183.6 1082.45 1172.63 1080.88C1156.4 1078.55 1144.59 1073.18 1137.04 1064.9Z" fill="#F5F4F0"/>
<path d="M1295.72 1096.95L1276.03 1094.14L1254.84 1000.01L1242.07 1089.28L1230.5 1087.62L1244.47 989.934L1266.11 993.03L1286.06 1081.92L1298.13 997.61L1309.7 999.265L1295.72 1096.95Z" fill="#F5F4F0"/>
<path d="M1386.38 1098.57L1384.78 1109.69L1321.66 1100.66L1323.25 1089.54L1348.8 1093.2L1359.6 1017.75L1334.05 1014.1L1335.64 1002.98L1398.76 1012.01L1397.17 1023.13L1371.62 1019.47L1360.83 1094.92L1386.38 1098.57Z" fill="#F5F4F0"/>
<path d="M1494.79 1059.64L1482.94 1063.16C1482.88 1045.36 1473.93 1032.88 1460.25 1030.92C1452.14 1029.76 1445.03 1032.27 1439.06 1038.63C1433.09 1044.98 1429.22 1053.78 1427.57 1065.36C1425.87 1077.23 1427.07 1087.06 1430.97 1095.14C1434.9 1103.06 1441 1107.61 1449.11 1108.77C1462.19 1110.64 1473.83 1102.19 1478.92 1086.97L1488.43 1095.53C1480.52 1113.27 1465.06 1122.71 1447.48 1120.2C1435.61 1118.5 1426.81 1112.48 1420.93 1102.13C1415.22 1091.66 1413.37 1078.82 1415.54 1063.64C1417.67 1048.76 1423 1037.25 1431.37 1029.09C1439.9 1020.96 1450.01 1017.8 1461.89 1019.5C1480.97 1022.23 1493.51 1037.52 1494.79 1059.64Z" fill="#F5F4F0"/>
<path d="M1576.58 1137.13L1560.8 1134.87L1534.47 1084.18L1518.81 1097.12L1514.36 1128.23L1502.34 1126.51L1516.32 1028.82L1528.34 1030.54L1521.14 1080.89L1573.27 1036.97L1589.66 1039.32L1543.83 1076.62L1576.58 1137.13Z" fill="#F5F4F0"/>
<path d="M1657.68 1148.73L1596.81 1140.02L1610.79 1042.34L1671.05 1050.96L1669.46 1062.08L1621.22 1055.18L1616.98 1084.79L1654.41 1090.14L1652.81 1101.26L1615.39 1095.91L1610.43 1130.62L1659.27 1137.61L1657.68 1148.73Z" fill="#F5F4F0"/>
<path d="M1732.07 1071.04L1710.13 1067.9L1705.7 1098.86L1732.15 1102.64C1740.42 1103.82 1748.34 1097.75 1749.7 1088.28C1750.97 1079.42 1743.95 1072.74 1732.07 1071.04ZM1755.16 1162.68L1741.18 1160.68L1726.2 1113.14L1704.11 1109.98L1697.75 1154.46L1685.72 1152.74L1699.7 1055.06L1738.77 1060.65C1746.59 1061.77 1752.73 1064.94 1757.17 1070.33C1761.62 1075.72 1763.31 1082.1 1762.26 1089.47C1760.19 1103.89 1750.61 1112.95 1739.24 1114.24L1755.16 1162.68Z" fill="#F5F4F0"/>
<path d="M1843.91 1110.04L1835.36 1118.33C1829.07 1111.91 1820.89 1107.98 1810.82 1106.54C1801.66 1105.22 1796.46 1108.31 1795.6 1114.33C1795.15 1117.48 1796.18 1119.93 1798.69 1121.67C1801.35 1123.43 1806.42 1125.54 1814 1128.31C1814.71 1128.71 1815.48 1128.67 1816.19 1129.08C1831.92 1134.86 1840.79 1141.49 1839.01 1153.97C1837.05 1167.64 1824.62 1174.15 1805.53 1171.42C1790.8 1169.31 1779.92 1163.92 1773.03 1155.27L1783.31 1147.69C1789.8 1154.9 1798.21 1159.33 1808.58 1160.81C1818.35 1162.21 1825.03 1159.48 1825.87 1153.62C1826.32 1150.47 1825.42 1148.19 1823.18 1146.64C1820.95 1145.1 1815.93 1142.69 1807.94 1139.56L1802.72 1137.43C1788.36 1131.69 1781.92 1125.25 1783.71 1112.78C1784.65 1106.17 1787.94 1101.42 1793.71 1098.57C1799.49 1095.71 1806.21 1094.83 1813.88 1095.93C1825.45 1097.59 1835.37 1102.22 1843.91 1110.04Z" fill="#F5F4F0"/>
</g>
<defs>
<clipPath id="clip0_460_22">
<rect width="1440" height="1228" fill="white"/>
</clipPath>
</defs>
</svg>
