<svg width="1326" height="1192" viewBox="0 0 1326 1192" fill="none" xmlns="http://www.w3.org/2000/svg">
<path d="M185.325 212.371C180.412 212.371 157.227 223.536 146.248 229.118L571.624 221.303H807.759C805.806 220.651 797.59 218.706 795.292 212.992L684.388 206.788L669.315 200.09L669.744 192.274H615.028L597.861 190.041L573.857 189.483L560.398 205.114L556.552 209.58H529.757C529.943 204.369 530.203 193.614 529.757 192.274C529.198 190.6 518.592 189.483 505.753 189.483C495.481 189.483 486.214 191.344 482.865 192.274V209.58H418.668L413.085 205.114L412.978 200.09C411.897 199.903 406.722 199.643 394.664 200.09C382.606 200.536 375.497 198.043 373.45 196.74C360.983 199.531 335.043 205.225 331.024 205.672C326 206.23 191.465 212.371 185.325 212.371Z" fill="black"/>
<path d="M610.143 283.267L601.211 288.849H592.837C590.418 282.15 573.522 268.976 525.291 269.869C524.844 269.869 525.105 267.754 525.291 266.696L368.427 269.069C358.751 271.755 338.282 278.354 333.816 283.267L242.824 286.058L238.358 288.291L181.418 294.431V278.602L171.369 281.626V296.106C163.554 297.595 147.254 301.354 144.574 304.48C141.783 306.154 132.293 312.63 116.662 325.134C140.294 317.877 216.25 303.475 331.024 303.921C474.491 304.48 681.039 311.179 741.328 316.761C789.56 321.227 812.41 324.204 817.806 325.134C822.086 325.879 830.757 329.154 831.204 336.299C831.651 343.444 832.879 361.592 833.437 369.772C840.747 376.056 846.862 384.358 847.5 394.356C849.578 379.651 850.901 368.242 850.742 363.653C850.296 350.702 846.835 313.97 845.16 297.223L711.654 288.849L610.143 283.267Z" fill="black"/>
<path d="M61.3964 266.52L50.7899 271.544C45.4303 271.544 41.4862 278.987 40.1841 282.708L39.0676 316.761L50.7899 325.134C50.7899 332.726 43.7194 349.883 40.1841 357.512C36.6114 358.852 34.9739 368.119 34.6017 372.584V409.986C34.6017 417.243 26.7864 422.826 26.7864 422.267C20.0876 423.607 17.2964 430.641 16.7382 433.99L20.0876 566.85L58.6059 570.758L54.6982 422.267V371.468C55.8147 360.675 61.6203 335.741 75.9112 322.343C90.202 308.946 94.8912 304.852 95.4494 304.48L171.369 281.626L181.418 278.602L204.864 271.544L368.427 269.069L525.291 266.696L573.857 265.961C578.509 265.403 589.265 263.505 595.07 260.379C602.327 256.471 606.793 254.797 607.352 252.564C607.798 250.777 607.538 247.726 607.352 246.423L648.103 246.964L733.513 248.098L822.83 257.588L807.759 221.303H571.624L146.248 229.118C138.433 229.49 121.686 230.458 117.22 231.351C112.754 232.244 93.4019 255.169 84.284 266.52H61.3964Z" fill="#212121"/>
<path d="M88.7506 409.986V496.513V573.584L112.196 575.782C115.822 576.091 121.065 577.448 126.152 580.458V407.195C127.083 387.657 135.977 348.357 164.112 347.464C192.247 346.571 608.282 353.79 812.782 357.512C818.21 359.523 826.38 363.707 833.437 369.772C832.879 361.592 831.651 343.444 831.204 336.299C830.757 329.154 822.086 325.879 817.806 325.134C812.41 324.204 789.56 321.227 741.328 316.761C681.039 311.179 474.491 304.48 331.024 303.921C216.25 303.475 140.294 317.877 116.662 325.134C101.032 337.639 91.5418 386.912 88.7506 409.986Z" fill="#212121"/>
<path d="M-80.9535 760C-81.1132 760.547 -81.2743 761.106 -81.4366 761.675L-62.5313 762.704L-31.8283 764.376L-10.6153 765.531L12.2723 766.777L33.4853 767.932L82.61 770.606C89.3088 766.141 95.4494 757.767 97.6824 751.068C99.9153 744.369 98.7988 712.55 98.7988 701.943C98.7988 691.337 92.1 643.329 88.7506 621.557C86.0711 604.141 69.0263 598.298 60.8388 597.553L-80.9535 581.365V760Z" fill="#212121"/>
<path d="M20.0876 566.85L-80.9535 558.477V581.365L60.8388 597.553C69.0263 598.298 86.0711 604.141 88.7506 621.557C92.1 643.329 98.7988 691.337 98.7988 701.943C98.7988 712.55 99.9153 744.369 97.6824 751.068C95.4494 757.767 89.3088 766.141 82.61 770.606C100.287 761.116 136.647 741.132 140.667 737.112C141.504 736.274 142.292 735.325 143.023 734.321C145.797 730.511 147.745 725.924 148.482 723.715C149.04 707.712 150.156 674.255 150.156 668.449C150.156 661.192 145.132 631.606 141.783 604.81C140.214 592.26 133.338 584.71 126.152 580.458C121.065 577.448 115.822 576.091 112.196 575.782L88.7506 573.584L58.6059 570.758L20.0876 566.85Z" fill="black"/>
<path d="M54.6982 422.267L58.6059 570.758L88.7506 573.584V496.513C88.7506 504.105 82.4239 503.025 79.2606 501.537L77.5859 413.894C77.3998 391.378 77.1393 345.566 77.5859 342.44C78.1441 338.532 83.1682 330.717 85.4012 328.484C87.6341 326.251 136.057 307.058 136.057 306.5C142.309 302.927 144.388 302.805 144.574 304.48C147.254 301.354 163.554 297.595 171.369 296.106V281.626L95.4494 304.48C94.8912 304.852 90.202 308.946 75.9112 322.343C61.6203 335.741 55.8147 360.675 54.6982 371.468V422.267Z" fill="black"/>
<path d="M1004.26 292.198V326.251V451.296V801.309V844.293L1052.44 831.187V325.134L1004.26 292.198Z" fill="black"/>
<path d="M686.62 86.7678L679.363 104.631C680.108 105.934 685.281 108.539 700.019 108.539C706.202 108.539 771.312 112.249 855.603 117.053C931.199 121.361 1022.22 126.548 1100 130.726C1116.71 131.624 1132.8 132.475 1148 133.26C1218.21 136.889 1269.33 139.126 1273.33 138.125C1284.04 135.446 1298.63 126.589 1304.59 122.495C1296.96 115.238 1281.36 99.9421 1280.02 96.816C1278.68 93.6899 1272.77 91.7919 1269.98 91.2336L1191.82 86.7678L1154.42 122.495L761.983 102.957L757.516 85.093C737.234 84.1626 696.11 82.3019 693.877 82.3019C691.644 82.3019 688.109 85.2791 686.62 86.7678Z" fill="black"/>
<path d="M141.783 604.81C145.132 631.606 150.156 661.192 150.156 668.449C150.156 674.255 149.04 707.712 148.482 723.715C147.745 725.924 145.797 730.511 143.023 734.321C146.145 741.02 155.181 754.976 166.345 757.209C177.51 759.442 544.354 781.213 726.38 791.819C729.688 785.11 733.022 778.35 736.292 771.723C556.916 761.489 194.257 740.797 178.627 739.903C162.996 739.01 159.833 720.923 160.205 711.992L159.845 687.429L155.739 407.195C155.386 383.079 168.989 375.562 175.835 374.817C249.383 376.187 350.542 378.061 449.83 379.882C620.332 383.009 785.316 385.982 795.477 385.982C811.554 385.982 814.829 398.263 814.457 404.404L812.142 570.758C821.12 543.125 827.705 521.006 828.971 512.143C832.17 489.744 842.249 431.522 847.5 394.356C846.862 384.358 840.747 376.056 833.437 369.772C826.38 363.707 818.21 359.523 812.782 357.512C608.282 353.79 192.247 346.571 164.112 347.464C135.977 348.357 127.083 387.657 126.152 407.195V580.458C133.338 584.71 140.214 592.26 141.783 604.81Z" fill="black"/>
<path d="M752.752 794.61L801.059 797.402C813.34 794.983 838.796 781.771 842.369 748.277C845.941 714.783 847.284 588.436 847.509 529.449C840.338 552.888 825.408 617.255 812.142 660.076C811.398 689.801 807.87 743.588 808.316 756.092C808.763 768.597 798.082 773.584 792.686 774.514H762.094C758.933 781.335 755.774 788.128 752.752 794.61Z" fill="black"/>
<path d="M140.667 737.112C136.647 741.132 100.287 761.116 82.61 770.606L109.405 799.635L701.643 842.061C708.478 828.149 717.334 810.168 726.38 791.819C544.354 781.213 177.51 759.442 166.345 757.209C155.181 754.976 146.145 741.02 143.023 734.321C142.292 735.325 141.504 736.274 140.667 737.112Z" fill="#212121"/>
<path d="M688.276 869.11C688.276 869.11 693.977 857.662 701.643 842.061L109.405 799.635L82.61 770.606L33.4853 767.932L97.6824 845.41L277.434 859.303L330.467 863.402L548.737 880.273L688.276 869.11Z" fill="black"/>
<path d="M896.517 886.719L944 890.164L1004.26 894.535V844.293L935.452 841.798L896.517 840.386C890.004 840.572 876.531 841.279 874.746 842.619C872.96 843.959 852.417 848.387 842.369 850.434L727.351 844.293C727.351 844.293 711.134 880.273 703.342 891.967C754.147 895.368 833.436 900.675 833.436 900.675C844.415 897.698 868.047 891.074 874.746 888.394C881.444 885.715 892.051 886.161 896.517 886.719Z" fill="black"/>
<path fill-rule="evenodd" clip-rule="evenodd" d="M847.76 191.926C846.098 181.952 832.002 179.744 824.383 181.303C808.279 182.861 806.72 194.29 806.72 201.043C806.72 207.797 812.435 219.458 831.656 216.109C850.877 212.759 849.838 204.394 847.76 191.926Z" fill="#5D5D5D"/>
<path d="M824.383 181.303C832.002 179.744 846.098 181.952 847.76 191.926C849.838 204.394 850.877 212.759 831.656 216.109C812.435 219.458 806.72 207.797 806.72 201.043C806.72 194.29 808.279 182.861 824.383 181.303Z" fill="#0F0F0F"/>
<path d="M916.614 432.874L958.482 433.99C960.156 434.362 963.506 436.112 963.506 440.131V456.878C963.134 458.367 961.608 461.344 958.482 461.344C955.356 461.344 928.151 460.227 914.939 459.669C913.451 459.111 910.473 457.325 910.473 454.645V437.898C910.473 436.169 911.702 432.743 916.614 432.874Z" fill="black"/>
<path d="M916.614 476.416L958.482 477.533C960.156 477.905 963.506 479.654 963.506 483.673V500.42C963.134 501.909 961.608 504.886 958.482 504.886C955.356 504.886 928.151 503.77 914.939 503.212C913.451 502.653 910.473 500.867 910.473 498.187V481.44C910.473 479.711 911.702 476.285 916.614 476.416Z" fill="black"/>
<path d="M330.467 863.402L311.487 898.442L541.48 923.563L548.737 880.273L330.467 863.402Z" fill="black"/>
<path d="M277.434 859.303L271.294 869.414V874.996L281.342 891.744H294.181L311.487 905.699V898.442L330.467 863.402L277.434 859.303Z" fill="#212121"/>
<path d="M555.994 949.242C555.994 949.242 619.099 896.686 627.093 895.093L688.276 869.11L548.737 880.273L541.48 923.563C541.48 923.563 550.326 939.214 555.994 949.242Z" fill="black"/>
<path d="M311.487 898.442V905.699V911.84L294.181 939.752C296.414 943.473 303.001 949.8 311.487 945.334L319.302 931.937L344.422 934.728V950.358C344.609 951.289 346.432 953.149 352.238 953.149C354.076 953.149 366.378 954.488 384.057 956.528C390.339 957.254 397.3 958.068 404.712 958.942C442.302 963.374 491.488 969.355 522.5 973.163C522.5 973.163 526.966 972.688 526.947 972.681C526.966 972.688 555.994 949.242 555.994 949.242C550.326 939.214 541.48 923.563 541.48 923.563L311.487 898.442Z" fill="#212121"/>
<path fill-rule="evenodd" clip-rule="evenodd" d="M857.44 224.094V217.953C869.721 192.784 853.475 165.198 817.806 170.913C789.272 175.484 790.348 200.697 795.292 212.992C797.59 218.706 805.806 220.651 807.759 221.303L822.83 257.588C822.83 258.146 822.942 259.263 823.389 259.263C823.835 259.263 827.296 265.217 828.971 268.194L833.437 280.476L842.927 279.917L845.16 297.223C846.835 313.97 850.296 350.702 850.742 363.653C850.901 368.242 849.578 379.651 847.5 394.356C842.249 431.522 832.17 489.744 828.971 512.143C827.705 521.006 821.12 543.125 812.142 570.758C803.502 597.352 792.646 629.053 782.184 658.959C772.843 685.66 763.815 710.929 756.959 729.855C751.17 741.576 743.904 756.293 736.292 771.723C733.022 778.35 729.688 785.11 726.38 791.819C717.334 810.168 708.478 828.149 701.643 842.061C693.977 857.662 688.276 869.11 688.276 869.11C659.505 902.54 610.874 937.256 555.994 965.834C506.83 991.435 452.65 1012.11 403.237 1022.52L405.084 1039.97C457.8 1027.18 510.927 1009.37 559.343 987.31C580.175 977.817 600.136 967.536 618.815 956.528C651.701 937.15 680.619 915.518 703.342 891.967C711.134 880.273 727.351 844.293 727.351 844.293L740.212 821.406C743.736 813.905 748.081 804.628 752.752 794.61C755.774 788.128 758.933 781.335 762.094 774.514C776.226 744.022 790.409 712.954 792.686 706.409C794.235 701.955 803.444 688.152 812.142 660.076C825.408 617.255 840.338 552.888 847.509 529.449C849.19 523.955 850.327 520.227 850.742 518.842C852.532 512.875 857.511 482.514 862.271 453.491C863.011 448.973 863.747 444.487 864.464 440.131C867.761 420.111 870.674 402.828 871.955 397.705C874.441 387.763 873.237 359.377 872.451 340.833C872.451 340.831 872.451 340.828 872.451 340.826C872.451 340.82 872.45 340.813 872.45 340.807V340.805C872.433 340.404 872.416 340.007 872.399 339.614C872.15 333.726 871.955 328.947 871.955 326.251C871.955 323.558 871.448 318.971 870.663 313.5C870.054 309.263 869.28 304.495 868.445 299.666C866.782 290.046 864.88 280.181 863.582 273.777C867.489 272.846 874.635 269.422 871.955 263.17L857.44 224.094ZM847.76 191.926C846.098 181.952 832.002 179.744 824.383 181.303C808.279 182.861 806.72 194.29 806.72 201.043C806.72 207.797 812.435 219.458 831.656 216.109C850.877 212.759 849.838 204.394 847.76 191.926Z" fill="black"/>
<path d="M681.596 1003.39C679.81 998.478 664.105 996.506 656.476 996.134L618.815 956.528C600.136 967.536 580.175 977.817 559.343 987.31L578.881 1036.88C580.221 1038.67 585.766 1036.14 588.371 1034.65C580.556 1044.14 594.511 1086.57 591.72 1087.13C589.487 1087.57 584.835 1093.27 582.788 1096.06C645.683 1096.24 772.7 1096.17 777.613 1094.38C783.753 1092.15 777.613 1028.51 777.613 1027.95C764.215 1015.45 710.624 1003.39 685.504 998.925L681.596 1003.39Z" fill="black"/>
<path d="M544.828 1076.52C554.653 1075.63 571.624 1049.72 578.881 1036.88L559.343 987.31C510.927 1009.37 457.8 1027.18 405.084 1039.97L406.942 1057.51L406.945 1057.54C406.933 1057.54 406.928 1057.54 406.93 1057.53C406.931 1057.52 406.933 1057.52 406.937 1057.52L401.258 1040.89C396.537 1042.01 391.821 1043.09 387.112 1044.14L352.238 1191.19H570.352L559.343 1096.06C553.983 1096.06 547.434 1083.03 544.828 1076.52Z" fill="black"/>
<path fill-rule="evenodd" clip-rule="evenodd" d="M522.5 973.163C491.488 969.355 442.302 963.374 404.712 958.942L401.921 1010.09L403.237 1022.52C452.65 1012.11 506.83 991.435 555.994 965.834V949.242C555.994 949.242 526.966 972.688 526.947 972.681C526.951 972.685 526.957 972.688 526.966 972.688L526.947 972.681C526.966 972.688 522.5 973.163 522.5 973.163ZM526.966 972.688L526.947 972.681C526.951 972.685 526.957 972.688 526.966 972.688Z" fill="black"/>
<path d="M627.093 895.093C619.099 896.686 555.994 949.242 555.994 949.242V965.834C610.874 937.256 659.505 902.54 688.276 869.11L627.093 895.093Z" fill="black"/>
<path fill-rule="evenodd" clip-rule="evenodd" d="M384.057 993.342V956.528C390.339 957.254 397.3 958.068 404.712 958.942L401.921 1010.09L403.237 1022.52C399.379 1023.33 395.528 1024.11 391.685 1024.86L388.523 1020.7L385.732 1004.51L388.523 1000.6L384.057 993.342ZM401.258 1040.89L406.937 1057.52L406.942 1057.51L405.084 1039.97C404.167 1040.19 403.25 1040.41 402.332 1040.63C402.156 1040.67 401.98 1040.71 401.804 1040.76C401.622 1040.8 401.44 1040.84 401.258 1040.89Z" fill="black"/>
<path d="M761.983 102.957L1154.42 122.495L1146.47 45.7153L779.707 29.611L761.983 102.957Z" fill="#212121"/>
<path d="M757.516 85.093L761.983 102.957L779.707 29.611L773.992 0C769.837 0 767.759 14.0263 767.759 14.0263L757.516 85.093Z" fill="#484848"/>
<path d="M1161.01 13.5068C1035.3 9.00452 781.889 0 773.992 0L779.707 29.611L1146.47 45.7153L1161.01 13.5068Z" fill="black"/>
<path d="M1154.42 122.495L1191.82 86.7678C1186.4 66.6765 1175.46 25.4551 1175.04 21.2992C1174.62 17.1432 1165.52 14.3726 1161.01 13.5068L1146.47 45.7153L1154.42 122.495Z" fill="black"/>
<path d="M595.07 260.379C589.265 263.505 578.509 265.403 573.857 265.961L525.291 266.696C525.105 267.754 524.844 269.869 525.291 269.869C573.522 268.976 590.418 282.15 592.837 288.849H601.211L610.143 283.267L711.654 288.849C710.095 281.564 686.62 252.564 648.103 246.964L607.352 246.423C607.538 247.726 607.798 250.777 607.352 252.564C606.793 254.797 602.327 256.471 595.07 260.379Z" fill="black"/>
<path d="M857.44 217.953V224.094L975.5 234.555L989.742 235.817L1004.26 246.423L1070.1 283.267L1130.36 224.784L987.5 221.208L857.44 217.953Z" fill="black"/>
<path d="M1004.26 246.423V292.198L1052.44 325.134V831.187L1004.26 844.293V894.535L1070.1 874.996V283.267L1004.26 246.423Z" fill="black"/>
<path d="M160.205 711.992C159.833 720.923 162.996 739.01 178.627 739.903C194.257 740.797 556.916 761.489 736.292 771.723C743.904 756.293 751.17 741.576 756.959 729.855C763.815 710.929 772.843 685.66 782.184 658.959L449.83 643.887L159.845 687.429L160.205 711.992Z" fill="#535762"/>
<path fill-rule="evenodd" clip-rule="evenodd" d="M987.5 221.208L1069 134L1090.5 143.5L1100 130.726C1022.22 126.548 931.199 121.361 855.603 117.053C771.312 112.249 706.202 108.539 700.019 108.539C685.281 108.539 680.108 105.934 679.363 104.631L669.744 192.274L669.315 200.09L684.388 206.788L795.292 212.992C790.348 200.697 789.272 175.484 817.806 170.913C853.475 165.198 869.721 192.784 857.44 217.953L987.5 221.208ZM1148 133.26L1276 190.5V201.5L1289.5 207.5L1316.76 184L1304.59 122.495C1298.63 126.589 1284.04 135.446 1273.33 138.125C1269.33 139.126 1218.21 136.889 1148 133.26Z" fill="#212121"/>
<path d="M1130.36 224.784L1325.8 229.676L1316.76 184L1289.5 207.5L1276 201.5V190.5L1148 133.26C1132.8 132.475 1116.71 131.624 1100 130.726L1090.5 143.5L1069 134L987.5 221.208L1130.36 224.784Z" fill="#171717"/>
<path fill-rule="evenodd" clip-rule="evenodd" d="M942 272.015L975.5 234.555L857.44 224.094L871.955 263.17C871.955 263.507 909.444 268.101 942 272.015Z" fill="#212121"/>
<path d="M1004.26 246.423L989.742 235.817L975.5 234.555L942 272.015C952.598 273.29 962.674 274.492 970.763 275.451C981.927 278.429 1004.26 285.946 1004.26 292.198V246.423Z" fill="#171717"/>
<path d="M885.353 771.723C884.236 774.514 879.77 789.028 885.353 791.819C887.307 792.796 903.08 794.307 923.369 795.885C923.985 795.933 924.604 795.981 925.228 796.029C925.945 796.084 926.666 796.14 927.393 796.195L920.791 758.836C919.838 759.138 918.893 759.437 917.958 759.732C916.711 760.126 915.482 760.514 914.273 760.895C898.384 765.907 886.134 769.771 885.353 771.723Z" fill="#2F2F2F"/>
<path fill-rule="evenodd" clip-rule="evenodd" d="M857.44 224.094V217.953C869.721 192.784 853.475 165.198 817.806 170.913C789.272 175.484 790.348 200.697 795.292 212.992C797.59 218.706 805.806 220.651 807.759 221.303L822.83 257.588C822.83 258.146 822.942 259.263 823.389 259.263C823.835 259.263 827.296 265.217 828.971 268.194L833.437 280.476L842.927 279.917L845.16 297.223C846.835 313.97 850.296 350.702 850.742 363.653C850.901 368.242 849.578 379.651 847.5 394.356C842.249 431.522 832.17 489.744 828.971 512.143C827.705 521.006 821.12 543.125 812.142 570.758C803.502 597.352 792.646 629.053 782.184 658.959C772.843 685.66 763.815 710.929 756.959 729.855C751.17 741.576 743.904 756.293 736.292 771.723C733.022 778.35 729.688 785.11 726.38 791.819C717.334 810.168 708.478 828.149 701.643 842.061C693.977 857.662 688.276 869.11 688.276 869.11C659.505 902.54 610.874 937.256 555.994 965.834C506.83 991.435 452.65 1012.11 403.237 1022.52L405.084 1039.97C457.8 1027.18 510.927 1009.37 559.343 987.31C580.175 977.817 600.136 967.536 618.815 956.528C651.701 937.15 680.619 915.518 703.342 891.967C711.134 880.273 727.351 844.293 727.351 844.293L740.212 821.406C743.736 813.905 748.081 804.628 752.752 794.61C755.774 788.128 758.933 781.335 762.094 774.514C776.226 744.022 790.409 712.954 792.686 706.409C794.235 701.955 803.444 688.152 812.142 660.076C825.408 617.255 840.338 552.888 847.509 529.449C849.19 523.955 850.327 520.227 850.742 518.842C852.532 512.875 857.511 482.514 862.271 453.491C863.011 448.973 863.747 444.487 864.464 440.131L887.459 570.241L887.56 570.815L887.563 570.829L915.533 571.575L928.895 571.931C930.57 572.303 933.919 574.052 933.919 578.072V594.819C933.824 595.201 933.652 595.681 933.397 596.184C932.658 597.64 931.219 599.285 928.895 599.285C928.466 599.285 927.585 599.263 926.348 599.226C926.268 599.227 926.186 599.228 926.104 599.228C922.139 599.228 905.056 598.501 892.352 597.927L892.444 598.445L895.298 614.595L926.104 615.417C926.215 615.435 926.331 615.457 926.452 615.482C926.595 615.513 926.745 615.547 926.9 615.587L927.221 615.596C927.86 615.738 928.743 616.081 929.591 616.674C930.964 617.635 932.245 619.252 932.245 621.737V638.484C931.873 639.972 930.347 642.95 927.221 642.95C926.266 642.95 923.068 642.845 918.709 642.685C913.546 642.495 906.754 642.226 900.134 641.957L900.309 642.95L903.137 658.95L903.226 659.456L903.228 659.466L908.057 686.789C911.522 686.926 914.796 687.052 917.592 687.155C921.951 687.316 925.15 687.42 926.104 687.42C926.688 687.42 927.216 687.316 927.692 687.137C929.621 686.041 930.728 684.139 931.118 682.992L931.128 682.963C930.823 684.184 929.743 686.404 927.642 687.165C926.748 687.663 925.681 687.988 924.429 687.988C922.576 687.988 915.981 687.75 908.172 687.44L911.067 703.82L924.429 704.176C926.104 704.549 929.453 706.298 929.453 710.317V727.064C929.081 728.553 927.555 731.53 924.429 731.53C923.475 731.53 920.277 731.426 915.917 731.265L920.791 758.836C925.751 757.262 930.939 755.597 936.152 753.859C959.632 746.033 958.727 721.624 958.509 715.734C958.494 715.323 958.482 715.002 958.482 714.783C958.482 712.103 960.343 613.928 961.273 565.176C960.901 559.407 952.341 544.856 921.08 532.798C886.338 519.398 886.456 508.204 886.517 502.354C886.524 501.624 886.531 500.978 886.469 500.42C886.023 496.401 888.516 416.127 889.819 376.492C889.633 366.816 892.945 347.575 907.682 348.022C926.104 348.58 957.923 353.604 962.948 356.396C967.972 359.187 978.02 370.351 983.044 395.472C987.063 415.569 998.86 441.061 1004.26 451.296V326.251L882 302.319L870.663 313.5C870.054 309.263 869.28 304.495 868.445 299.666C866.782 290.046 864.88 280.181 863.582 273.777C867.489 272.846 874.635 269.422 871.955 263.17L857.44 224.094ZM847.76 191.926C846.098 181.952 832.002 179.744 824.383 181.303C808.279 182.861 806.72 194.29 806.72 201.043C806.72 207.797 812.435 219.458 831.656 216.109C850.877 212.759 849.838 204.394 847.76 191.926Z" fill="#191919"/>
<path d="M933.919 594.819V578.072C933.919 574.052 930.57 572.303 928.895 571.931L915.533 571.575L887.563 570.829L892.348 597.903C901.328 598.276 912.672 598.736 920.383 599.02C920.641 599.029 920.894 599.039 921.143 599.048C921.432 599.058 921.716 599.069 921.994 599.079C922.535 599.098 923.054 599.116 923.546 599.133C924.61 599.17 925.553 599.202 926.348 599.226C930.17 599.158 932.39 597.497 933.397 596.184C933.652 595.681 933.824 595.201 933.919 594.819Z" fill="black"/>
<path fill-rule="evenodd" clip-rule="evenodd" d="M907.682 348.022C892.945 347.575 889.633 366.816 889.819 376.492C888.516 416.127 886.023 496.401 886.469 500.42C886.531 500.978 886.524 501.624 886.517 502.354C886.456 508.204 886.338 519.398 921.08 532.798C952.341 544.856 960.901 559.407 961.273 565.176C960.343 613.928 958.482 712.103 958.482 714.783C958.482 715.002 958.494 715.323 958.509 715.734C958.727 721.624 959.632 746.033 936.152 753.859C930.939 755.597 925.751 757.262 920.791 758.836L927.393 796.195C952.827 798.129 984.086 800.117 1004.26 801.309V451.296C998.86 441.061 987.063 415.569 983.044 395.472C978.02 370.351 967.972 359.187 962.948 356.396C957.923 353.604 926.104 348.58 907.682 348.022ZM958.482 477.533L916.614 476.416C911.702 476.285 910.473 479.711 910.473 481.44V498.187C910.473 500.867 913.451 502.653 914.939 503.212C928.151 503.77 955.356 504.886 958.482 504.886C961.608 504.886 963.134 501.909 963.506 500.42V483.673C963.506 479.654 960.156 477.905 958.482 477.533ZM958.482 433.99L916.614 432.874C911.702 432.743 910.473 436.169 910.473 437.898V454.645C910.473 457.325 913.451 459.111 914.939 459.669C928.151 460.227 955.356 461.344 958.482 461.344C961.608 461.344 963.134 458.367 963.506 456.878V440.131C963.506 436.112 960.156 434.362 958.482 433.99Z" fill="#272727"/>
<path d="M1004.26 844.293V801.309C984.086 800.117 952.827 798.129 927.393 796.195L935.452 841.798L1004.26 844.293Z" fill="#191919"/>
<path d="M879.212 619.504V636.251C879.212 638.93 882.19 640.717 883.678 641.275C888.08 641.461 894.034 641.709 900.134 641.957L895.325 614.745L885.353 614.48C882.497 614.403 880.886 615.529 880.038 616.825C879.86 617.117 879.709 617.411 879.585 617.693C879.316 618.354 879.212 619 879.212 619.504Z" fill="black"/>
<path d="M880.887 594.204C881.334 596.437 883.306 597.367 884.236 597.553L885.34 597.605L885.353 597.61L886.349 597.652C887.28 597.691 888.268 597.733 889.304 597.776C890.28 597.817 891.298 597.859 892.348 597.903L887.563 570.829L887.56 570.815L885.353 570.758C882.673 570.689 881.259 573.335 880.887 574.666C880.701 580.248 880.44 591.971 880.887 594.204Z" fill="black"/>
<path d="M884.236 658.959C879.324 658.828 878.096 662.254 878.096 663.983V680.721C878.096 683.4 881.073 685.187 882.562 685.745C889.153 686.023 899.228 686.441 908.057 686.789L903.228 659.466L884.236 658.959Z" fill="black"/>
<path fill-rule="evenodd" clip-rule="evenodd" d="M924.429 704.176L911.067 703.82L915.917 731.265C920.277 731.426 923.475 731.53 924.429 731.53C927.555 731.53 929.081 728.553 929.453 727.064V710.317C929.453 706.298 926.104 704.549 924.429 704.176Z" fill="black"/>
<path d="M876.421 724.831C876.421 727.511 879.398 729.297 880.887 729.855C890.065 730.243 905.997 730.9 915.917 731.265L911.067 703.82L882.562 703.06C877.649 702.929 876.421 706.355 876.421 708.084V724.831Z" fill="black"/>
<path d="M874.746 842.619C876.531 841.279 890.004 840.572 896.517 840.386L935.452 841.798L927.393 796.195C926.666 796.14 925.945 796.084 925.228 796.029C924.604 795.981 923.985 795.933 923.369 795.885C903.08 794.307 887.307 792.796 885.353 791.819C879.77 789.028 884.236 774.514 885.353 771.723C886.134 769.771 898.384 765.907 914.273 760.895C915.482 760.514 916.711 760.126 917.958 759.732C918.893 759.437 919.838 759.138 920.791 758.836L915.917 731.265C905.997 730.9 890.065 730.243 880.887 729.855C879.398 729.297 876.421 727.511 876.421 724.831V708.084C876.421 706.355 877.649 702.929 882.562 703.06L911.067 703.82L908.172 687.44L908.059 686.799L908.057 686.789C899.228 686.441 889.153 686.023 882.562 685.745C881.073 685.187 878.096 683.4 878.096 680.721V663.983C878.096 662.254 879.324 658.828 884.236 658.959L903.228 659.466L903.226 659.456L903.137 658.95L900.309 642.95L900.134 641.957C894.034 641.709 888.08 641.461 883.678 641.275C882.19 640.717 879.212 638.93 879.212 636.251V619.504C879.212 619 879.316 618.354 879.585 617.693C879.703 617.403 879.852 617.11 880.038 616.825C880.84 615.514 882.198 614.246 884.236 614.3L895.298 614.595L892.444 598.445C889.607 598.323 886.994 598.209 884.795 598.112C883.492 597.926 880.887 596.995 880.887 594.762V594.204C880.44 591.971 880.701 580.248 880.887 574.666C881.259 573.142 882.785 570.116 885.911 570.2L887.459 570.241L864.464 440.131C863.747 444.487 863.011 448.973 862.271 453.491C857.511 482.514 852.532 512.875 850.742 518.842C850.327 520.227 849.19 523.955 847.509 529.449C847.284 588.436 845.941 714.783 842.369 748.277C838.796 781.771 813.34 794.983 801.059 797.402L752.752 794.61C748.081 804.628 743.736 813.905 740.212 821.406L727.351 844.293L842.369 850.434C852.417 848.387 872.96 843.959 874.746 842.619Z" fill="#212121"/>
<path fill-rule="evenodd" clip-rule="evenodd" d="M402.332 1040.63L401.804 1040.76L401.258 1040.89C401.616 1040.8 401.974 1040.72 402.332 1040.63Z" fill="black"/>
<path d="M405.084 1039.97L403.237 1022.52C399.379 1023.33 395.528 1024.11 391.685 1024.86L399.13 1034.65L401.258 1040.89L401.804 1040.76L402.332 1040.63C403.25 1040.41 404.167 1040.19 405.084 1039.97Z" fill="#191919"/>
<path d="M401.258 1040.89L399.13 1034.65L391.685 1024.86L387.112 1044.14C391.821 1043.09 396.537 1042.01 401.258 1040.89Z" fill="#191919"/>
<path d="M-24.5719 797.402C-29.931 811.246 44.1068 990.703 103.329 1034.65C151.834 1070.65 266.873 1070.76 387.112 1044.14L391.685 1024.86C281.036 1046.28 177.346 1039.68 134.498 1024.96C92.942 1010.68 51.7677 920.879 30.4552 874.396C24.1835 860.718 19.6318 850.791 17.2964 847.643C7.0249 833.799 -4.10259 799.598 -8.3824 784.228C-13.2901 787.391 -18.1481 790.302 -21.7801 792.378C-21.7801 794.164 -23.6413 796.471 -24.5719 797.402Z" fill="#191919"/>
<path d="M175.835 374.817C168.989 375.562 155.386 383.079 155.739 407.195L159.845 687.429L449.83 643.887V379.882C350.542 378.061 249.383 376.187 175.835 374.817Z" fill="#6B7AAA"/>
<path d="M812.142 570.758L814.457 404.404C814.829 398.263 811.554 385.982 795.477 385.982C785.316 385.982 620.332 383.009 449.83 379.882V643.887L782.184 658.959C792.646 629.053 803.502 597.352 812.142 570.758Z" fill="#95A4D5"/>
<path d="M792.686 706.409C790.409 712.954 776.226 744.022 762.094 774.514H792.686C798.082 773.584 808.763 768.597 808.316 756.092C807.87 743.588 811.398 689.801 812.142 660.076C803.444 688.152 794.235 701.955 792.686 706.409Z" fill="#535762"/>
<path fill-rule="evenodd" clip-rule="evenodd" d="M885.911 570.2L887.459 570.241L927.779 571.316C930.012 571.688 934.478 573.438 934.478 577.457V594.762C933.919 596.437 931.798 599.786 927.779 599.786C924.458 599.786 905.923 599.024 892.444 598.445C889.607 598.323 886.994 598.209 884.795 598.112C883.492 597.926 880.887 596.995 880.887 594.762V594.204C880.44 591.971 880.701 580.248 880.887 574.666C881.259 573.142 882.785 570.116 885.911 570.2ZM884.236 614.3L895.298 614.595L926.104 615.417C926.215 615.435 926.331 615.457 926.452 615.482C926.595 615.513 926.745 615.547 926.9 615.587L927.221 615.596C927.86 615.738 928.743 616.081 929.591 616.674C931.294 617.652 932.803 619.221 932.803 621.557V638.863C932.245 640.537 930.123 643.887 926.104 643.887C923.523 643.887 911.754 643.427 900.309 642.95L900.134 641.957L895.325 614.745L885.353 614.48C882.497 614.403 880.886 615.529 880.038 616.825C880.84 615.514 882.198 614.246 884.236 614.3ZM879.585 617.693C879.709 617.411 879.86 617.117 880.038 616.825C879.852 617.11 879.703 617.403 879.585 617.693ZM903.226 659.456L903.137 658.95L924.429 659.518C926.662 659.89 931.128 661.639 931.128 665.658V666.177L931.128 666.207L931.128 666.216L931.128 682.954L931.128 682.963C930.823 684.184 929.743 686.404 927.642 687.165C926.748 687.663 925.681 687.988 924.429 687.988C922.576 687.988 915.981 687.75 908.172 687.44L908.059 686.799L908.057 686.789L903.228 659.466L884.236 658.959C879.324 658.828 878.096 662.254 878.096 663.983V663.974C878.096 662.244 879.324 658.819 884.236 658.95L903.226 659.456ZM920.383 599.02C912.672 598.736 901.328 598.276 892.348 597.903C891.298 597.859 890.28 597.817 889.304 597.776C888.268 597.733 887.28 597.691 886.349 597.652L885.34 597.605C883.852 597.043 880.909 595.271 880.887 592.615L880.887 592.586V575.839L880.887 575.809C880.901 574.07 882.143 570.684 887.028 570.815L887.563 570.829L915.533 571.575L928.895 571.931C930.57 572.303 933.919 574.052 933.919 578.072V594.819C933.824 595.201 933.652 595.681 933.397 596.184C932.39 597.497 930.17 599.158 926.348 599.226C925.553 599.202 924.61 599.17 923.546 599.133C923.054 599.116 922.535 599.098 921.994 599.079L921.143 599.048L920.383 599.02Z" fill="black"/>
<path d="M882 302.319L868.445 299.666C869.28 304.495 870.054 309.263 870.663 313.5L882 302.319Z" fill="black"/>
<ellipse cx="536.775" cy="737.306" rx="14" ry="13.5" transform="rotate(3.39716 536.775 737.306)" fill="white"/>
<path d="M322.035 378.19V751.5M619 381.5L619.185 767.289M155 479.5L811.916 494.556M158.396 618.715L792.695 631.182" stroke="black" stroke-width="2.07797"/>
<rect x="181.229" y="705" width="166.784" height="22.2934" transform="rotate(3.15819 181.229 705)" fill="white"/>
<rect x="358.488" y="715" width="149.197" height="8.85938" transform="rotate(3.15819 358.488 715)" fill="white"/>
<rect x="357.502" y="728" width="84.1704" height="9.11577" transform="rotate(3.15819 357.502 728)" fill="white"/>
<path d="M468.5 524V542.574" stroke="black" stroke-width="5.46296" stroke-linecap="round"/>
<path d="M468.5 568.796V586.278" stroke="black" stroke-width="5.46296" stroke-linecap="round"/>
<path d="M498 554.593H479.426" stroke="black" stroke-width="5.46296" stroke-linecap="round"/>
<path d="M457.574 554.593H439" stroke="black" stroke-width="5.46296" stroke-linecap="round"/>
</svg>
