<svg width="1440" height="930" viewBox="0 0 1440 930" fill="none" xmlns="http://www.w3.org/2000/svg">
<path d="M684.879 102.284L660.331 105.369L662.303 126.774L686.834 123.498L684.879 102.284Z" fill="black"/>
<path d="M660.331 105.369L13.4009 186.668L15.8384 213.121L176.733 191.631L201.03 188.202L218.966 185.935L226.517 184.981L401.12 161.66L431.423 157.612L448.739 155.3L466.055 152.987L637.05 130.147L662.303 126.774L660.331 105.369Z" fill="black"/>
<path d="M448.739 155.3L431.423 157.612L437.725 202.258L444.027 246.904L457.031 245.288L448.739 155.3Z" fill="black"/>
<path d="M553.573 257.972L571.118 231.107L457.031 245.288L444.027 246.904L399.984 252.378L309.766 263.592L332.656 285.207L446.266 271.201L461.434 269.331L476.603 267.461L553.573 257.972Z" fill="black"/>
<path d="M670.775 218.72L695.327 215.668L686.834 123.498L662.303 126.774L670.775 218.72Z" fill="black"/>
<path d="M695.327 215.668L670.775 218.72L673.035 243.245L697.589 240.218L695.327 215.668Z" fill="black"/>
<path d="M707.454 347.276L697.589 240.218L673.035 243.245L682.904 350.345L707.454 347.276Z" fill="black"/>
<path d="M709.541 369.93L1479.31 274.25L1477.18 251.074L1400.64 260.64L1381.86 262.987L1241.06 280.585L1189.07 287.082L1175.35 288.797L1139.25 293.309L960.899 315.6L941.403 318.037L921.185 320.564L808.543 334.642L707.454 347.276L709.541 369.93Z" fill="black"/>
<path d="M684.99 372.981L709.541 369.93L707.454 347.276L682.904 350.345L684.99 372.981Z" fill="black"/>
<path d="M-655.969 539.658L684.99 372.981L682.904 350.345L574.594 363.882L476.393 376.155L471.336 376.787L451.843 379.223L434.513 381.389L363.751 390.233L261.218 403.048L227.281 407.29L35.9335 431.205L-20.3875 438.244L-23.4672 438.629L-19.9846 442.617L-24.3812 438.743L-154.692 455.03L-163.356 456.113L-218.233 462.972L-234.119 464.957L-380.698 483.277L-519.334 500.604L-657.971 517.931L-655.969 539.658Z" fill="black"/>
<path d="M662.202 244.581L620.266 224.998L571.118 231.107L553.573 257.972L662.202 244.581Z" fill="black"/>
<path d="M673.035 243.245L670.775 218.72L620.266 224.998L662.202 244.581L673.035 243.245Z" fill="black"/>
<path d="M797.112 203.017L695.327 215.668L697.589 240.218L820.398 225.078L797.112 203.017Z" fill="black"/>
<path d="M1067.52 169.405L909.072 189.1L797.112 203.017L820.398 225.078L886.8 216.893L911.354 213.866L931.575 211.373L1047.32 197.103L1067.52 169.405Z" fill="black"/>
<path d="M1454.55 5.55968L684.879 102.284L686.834 123.498L709.922 120.414L920.6 92.2743L944.41 89.0941L1145.71 62.2072L1168.08 59.2197L1175.29 58.2561L1194.05 55.7505L1360.72 33.4893L1379.47 30.9836L1455.95 20.7685L1454.55 5.55968Z" fill="black"/>
<path d="M1141.01 185.554L1099.89 165.382L1067.52 169.405L1047.32 197.103L1129.45 186.979L1141.01 185.554Z" fill="black"/>
<path d="M1171.96 181.738L1171.16 156.524L1099.89 165.382L1141.01 185.554L1171.96 181.738Z" fill="black"/>
<path d="M1175.35 288.797L1189.07 287.082L1182.65 180.421L1171.96 181.738L1175.35 288.797Z" fill="black"/>
<path d="M1285.73 167.713L1262.93 145.117L1196.47 153.378L1181.13 155.284L1182.65 180.421L1285.73 167.713Z" fill="black"/>
<path d="M1467.43 145.313L1465.1 119.988L1281.79 142.772L1304.59 165.387L1337.44 161.338L1467.43 145.313Z" fill="black"/>
<path d="M1262.93 145.117L1285.73 167.713L1304.59 165.387L1281.79 142.772L1262.93 145.117Z" fill="black"/>
<path d="M-42.9166 193.746L-680.46 273.865L-677.524 305.731L-624.133 298.6L-487.769 280.386L-359.342 263.233L-254.003 249.163L-238.13 247.043L-183.296 239.719L-174.638 238.562L-40.4386 220.638L-42.9166 193.746Z" fill="black"/>
<path d="M13.4009 186.668L-42.9166 193.746L-40.4386 220.638L15.8384 213.121L13.4009 186.668Z" fill="black"/>
<path d="M-32.5599 306.142L23.7646 299.141L15.8384 213.121L-40.4386 220.638L-32.5599 306.142Z" fill="black"/>
<path d="M23.7646 299.141L-32.5599 306.142L-166.872 322.837L-175.538 323.914L-231.788 330.906L-234.741 355.155L-173.356 347.587L-164.69 346.519L-109.805 339.753L-30.3653 329.96L25.9645 323.015L105.263 313.24L120.624 287.102L23.7646 299.141Z" fill="black"/>
<path d="M-30.3653 329.96L-20.3875 438.244L35.9335 431.205L25.9645 323.015L-30.3653 329.96Z" fill="black"/>
<path d="M217.341 299.423L215.816 282.868L199.755 277.266L120.624 287.102L105.263 313.24L217.341 299.423Z" fill="black"/>
<path d="M272.893 268.176L241.12 272.125L215.124 275.356L215.816 282.868L251.284 295.238L332.656 285.207L309.766 263.592L272.893 268.176Z" fill="black"/>
<path d="M215.816 282.868L217.341 299.423L251.284 295.238L215.816 282.868Z" fill="black"/>
<path d="M253.499 319.275L251.284 295.238L217.341 299.423L221.015 339.293L253.499 319.275Z" fill="black"/>
<path d="M227.281 407.29L261.218 403.048L253.499 319.275L221.015 339.293L227.281 407.29Z" fill="black"/>
<path d="M241.12 272.125L201.03 188.202L215.124 275.356L241.12 272.125Z" fill="black"/>
<path d="M-109.805 339.753L-120.145 354.359L-24.3812 438.743L-23.4672 438.629L-109.805 339.753Z" fill="black"/>
<path d="M201.03 188.202L241.12 272.125L218.966 185.935L201.03 188.202Z" fill="black"/>
<path d="M1171.16 156.524L1171.96 181.738L1182.65 180.421L1181.13 155.284L1171.16 156.524Z" fill="black"/>
<path d="M-670.183 385.397L-668.048 408.572M-670.183 385.397L-677.524 305.731M-670.183 385.397L-624.133 298.6M-670.183 385.397L-588.524 375.247M1465.1 119.988L1467.43 145.313M1465.1 119.988L1455.95 20.7685M1465.1 119.988L1281.79 142.772M660.331 105.369L684.879 102.284M660.331 105.369L13.4009 186.668M660.331 105.369L662.303 126.774M670.775 218.72L695.327 215.668M670.775 218.72L662.303 126.774M670.775 218.72L673.035 243.245M670.775 218.72L620.266 224.998M684.879 102.284L1454.55 5.55968L1455.95 20.7685M684.879 102.284L686.834 123.498M695.327 215.668L686.834 123.498M695.327 215.668L697.589 240.218M695.327 215.668L797.112 203.017M709.541 369.93L1479.31 274.25L1477.18 251.074M709.541 369.93L684.99 372.981M709.541 369.93L707.454 347.276M684.99 372.981L-655.969 539.658L-657.971 517.931M684.99 372.981L682.904 350.345M1477.18 251.074L1467.43 145.313M1477.18 251.074L1400.64 260.64M-657.971 517.931L-668.048 408.572M-657.971 517.931L-519.334 500.604M-657.971 517.931L-511.335 389.253M1467.43 145.313L1337.44 161.338M-668.048 408.572L-511.335 389.253M-668.048 408.572L-519.334 500.604M13.4009 186.668L-42.9166 193.746M13.4009 186.668L15.8384 213.121M23.7646 299.141L-32.5599 306.142M23.7646 299.141L15.8384 213.121M23.7646 299.141L120.624 287.102M-42.9166 193.746L-680.46 273.865L-677.524 305.731M-42.9166 193.746L-40.4386 220.638M-32.5599 306.142L-166.872 322.837M-32.5599 306.142L-40.4386 220.638M-30.3653 329.96L-20.3875 438.244M-30.3653 329.96L25.9645 323.015M-30.3653 329.96L-109.805 339.753M-20.3875 438.244L35.9335 431.205M-20.3875 438.244L-23.4672 438.629M25.9645 323.015L35.9335 431.205M25.9645 323.015L168.489 371.662L221.015 339.293M25.9645 323.015L105.263 313.24M35.9335 431.205L227.281 407.29M35.9335 431.205L105.263 313.24M-677.524 305.731L-624.133 298.6M-677.524 305.731L-588.524 375.247M1455.95 20.7685L1379.47 30.9836M1175.29 58.2561L1194.05 55.7505M1175.29 58.2561L1168.08 59.2197M1175.29 58.2561L1180.59 146.204M1175.29 58.2561L1262.93 145.117M1381.86 262.987L1400.64 260.64M1381.86 262.987L1241.06 280.585M1381.86 262.987L1285.73 167.713M1400.64 260.64L1304.59 165.387M1194.05 55.7505L1360.72 33.4893M1194.05 55.7505L1281.79 142.772M1189.07 287.082L1175.35 288.797M1189.07 287.082L1241.06 280.585M1189.07 287.082L1182.65 180.421M1175.35 288.797L1139.25 293.309M1175.35 288.797L1171.96 181.738M1168.08 59.2197L1145.71 62.2072M1168.08 59.2197L1171.16 156.524M1196.47 153.378L1379.47 30.9836M1196.47 153.378L1262.93 145.117M1196.47 153.378L1181.13 155.284M1379.47 30.9836L1360.72 33.4893M1180.59 146.204L1360.72 33.4893M1180.59 146.204L1181.13 155.284M920.6 92.2743L909.072 189.1M920.6 92.2743L709.922 120.414M920.6 92.2743L944.41 89.0941M909.072 189.1L797.112 203.017M909.072 189.1L1067.52 169.405M911.354 213.866L921.185 320.564M911.354 213.866L931.575 211.373M911.354 213.866L886.8 216.893M921.185 320.564L941.403 318.037M921.185 320.564L808.543 334.642M921.185 320.564L820.398 225.078M931.575 211.373L941.403 318.037M931.575 211.373L1047.32 197.103M941.403 318.037L960.899 315.6M709.922 120.414L686.834 123.498M709.922 120.414L797.112 203.017M808.543 334.642L886.8 216.893M808.543 334.642L707.454 347.276M886.8 216.893L820.398 225.078M960.899 315.6L1139.25 293.309M960.899 315.6L1047.32 197.103M1145.71 62.2072L944.41 89.0941M1145.71 62.2072L1067.52 169.405M944.41 89.0941L1099.89 165.382M1141.01 185.554L1129.45 186.979M1141.01 185.554L1099.89 165.382M1141.01 185.554L1171.96 181.738M1129.45 186.979L1139.25 293.309M1129.45 186.979L1047.32 197.103M1241.06 280.585L1337.44 161.338M1337.44 161.338L1304.59 165.387M637.05 130.147L466.055 152.987M637.05 130.147L662.303 126.774M637.05 130.147L571.118 231.107M476.393 376.155L574.594 363.882M476.393 376.155L471.336 376.787M476.393 376.155L553.573 257.972M476.603 267.461L574.594 363.882M476.603 267.461L461.434 269.331M476.603 267.461L553.573 257.972M574.594 363.882L682.904 350.345M466.055 152.987L448.739 155.3M466.055 152.987L620.266 224.998M662.202 244.581L553.573 257.972M662.202 244.581L673.035 243.245M662.202 244.581L620.266 224.998M431.423 157.612L448.739 155.3M431.423 157.612L401.12 161.66M431.423 157.612L437.725 202.258M444.027 246.904L457.031 245.288M444.027 246.904L399.984 252.378M444.027 246.904L437.725 202.258M451.843 379.223L446.266 271.201M451.843 379.223L471.336 376.787M451.843 379.223L434.513 381.389M446.266 271.201L461.434 269.331M446.266 271.201L397.714 346.64M446.266 271.201L332.656 285.207M461.434 269.331L471.336 376.787M448.739 155.3L457.031 245.288M457.031 245.288L571.118 231.107M226.517 184.981L401.12 161.66M226.517 184.981L309.766 263.592M226.517 184.981L218.966 185.935M434.513 381.389L397.714 346.64M434.513 381.389L363.751 390.233M201.03 188.202L241.12 272.125M201.03 188.202L176.733 191.631M201.03 188.202L215.124 275.356M201.03 188.202L218.966 185.935M227.281 407.29L261.218 403.048M227.281 407.29L221.015 339.293M251.284 295.238L253.499 319.275M251.284 295.238L332.656 285.207M251.284 295.238L217.341 299.423M251.284 295.238L215.816 282.868M261.218 403.048L253.499 319.275M261.218 403.048L363.751 390.233M241.12 272.125L272.893 268.176M241.12 272.125L215.124 275.356M241.12 272.125L218.966 185.935M272.893 268.176L401.12 161.66M272.893 268.176L309.766 263.592M399.984 252.378L437.725 202.258M399.984 252.378L309.766 263.592M176.733 191.631L15.8384 213.121M176.733 191.631L120.624 287.102M15.8384 213.121L-40.4386 220.638M15.8384 213.121L199.755 277.266M253.499 319.275L397.714 346.64M253.499 319.275L221.015 339.293M397.714 346.64L363.751 390.233M397.714 346.64L332.656 285.207M-166.872 322.837L-40.4386 220.638M-166.872 322.837L-175.538 323.914M-166.872 322.837L-174.638 238.562M-40.4386 220.638L-174.638 238.562M-183.296 239.719L-175.538 323.914M-183.296 239.719L-174.638 238.562M-183.296 239.719L-238.13 247.043M-175.538 323.914L-231.788 330.906M-254.003 249.163L-246.305 332.71M-254.003 249.163L-238.13 247.043M-254.003 249.163L-359.342 263.233M-254.003 249.163L-382.783 349.674M-246.305 332.71L-359.342 263.233M-246.305 332.71L-382.783 349.674M-246.305 332.71L-231.788 330.906M-238.13 247.043L-230.999 324.427L-231.788 330.906M-234.741 355.155L-244.13 356.312M-234.741 355.155L-173.356 347.587M-234.741 355.155L-231.788 330.906M-234.119 464.957L-218.233 462.972L-163.356 456.113M-234.119 464.957L-244.13 356.312M-234.119 464.957L-380.698 483.277M-234.119 464.957L-356.378 370.15M-244.13 356.312L-380.698 483.277M-244.13 356.312L-356.378 370.15M-173.356 347.587L-163.356 456.113M-173.356 347.587L-164.69 346.519M-163.356 456.113L-154.692 455.03M-154.692 455.03L-158.921 409.134M-154.692 455.03L-24.3812 438.743M-164.69 346.519L-158.921 409.134M-164.69 346.519L-109.805 339.753M-158.921 409.134L-120.145 354.359M-109.805 339.753L-120.145 354.359M-109.805 339.753L-23.4672 438.629M-120.145 354.359L-24.3812 438.743M-359.342 263.233L-487.769 280.386M-359.342 263.233L-506.864 365.097M-382.783 349.674L-487.769 280.386M-382.783 349.674L-356.378 370.15M-382.783 349.674L-506.864 365.097M-380.698 483.277L-511.335 389.253M-380.698 483.277L-519.334 500.604M-487.769 280.386L-624.133 298.6M-487.769 280.386L-588.524 375.247M-511.335 389.253L-356.378 370.15M-519.334 500.604L-356.378 370.15M-519.334 500.604L-588.524 375.247M-506.864 365.097L-624.133 298.6M-506.864 365.097L-588.524 375.247M662.303 126.774L686.834 123.498M553.573 257.972L571.118 231.107M571.118 231.107L620.266 224.998M309.766 263.592L332.656 285.207M707.454 347.276L697.589 240.218M707.454 347.276L682.904 350.345M697.589 240.218L673.035 243.245M697.589 240.218L820.398 225.078M673.035 243.245L682.904 350.345M-23.4672 438.629L-19.9846 442.617L-24.3812 438.743M-23.4672 438.629L-24.3812 438.743M797.112 203.017L820.398 225.078M1067.52 169.405L1047.32 197.103M1067.52 169.405L1099.89 165.382M1099.89 165.382L1171.16 156.524M1171.96 181.738L1171.16 156.524M1171.96 181.738L1182.65 180.421M1171.16 156.524L1181.13 155.284M1182.65 180.421L1181.13 155.284M1182.65 180.421L1285.73 167.713M1285.73 167.713L1262.93 145.117M1285.73 167.713L1304.59 165.387M1262.93 145.117L1281.79 142.772M1281.79 142.772L1304.59 165.387M105.263 313.24L120.624 287.102M105.263 313.24L217.341 299.423M120.624 287.102L199.755 277.266M217.341 299.423L215.816 282.868M217.341 299.423L221.015 339.293M215.816 282.868L199.755 277.266M215.816 282.868L215.124 275.356M199.755 277.266L215.124 275.356" stroke="black" stroke-width="9.91833"/>
<path d="M-33.5605 684.793C48.296 624.135 216.879 491.991 236.361 448.677C236.435 448.65 237.001 448.486 238.021 448.19C257.791 442.464 448.122 387.332 534.473 323.329C534.223 325.464 586.349 391.836 608.411 388.221C583.842 433.924 526.072 532.545 491.542 561.408C490.118 561.242 291.933 701.858 271.069 726.112C271.152 725.401 68.4019 818.597 62.0917 829.402C62.1057 829.403 62.0724 829.4 61.9936 829.391C61.9868 829.39 61.9798 829.39 61.9724 829.389L61.9714 829.389C57.6463 828.919 -58.9824 816.257 -73.903 826.516C-74.4152 826.456 -69.6987 811.215 -63.3192 790.601C-51.9734 753.939 -35.3678 700.28 -33.5605 684.793Z" fill="#EFEFEF"/>
<path d="M-8.72378 255.612L-9.79186 277.128L-4.88189 290.684L53.0328 383.927L110.029 339.053L44.7448 239.398L9.02102 237.964L-8.72378 255.612Z" fill="black"/>
<path fill-rule="evenodd" clip-rule="evenodd" d="M130.733 333.921C171.19 314.838 268.755 276.163 335.356 274.125C401.956 272.086 512.084 298.836 558.823 312.465C555.53 335.74 613.756 375.38 643.281 392.29L505.49 571.692L277.07 742.682C204.438 775.803 57.468 844.299 50.6454 853.313C29.2488 845.045 -75.9791 844.307 -88.3619 851.518L-73.903 826.516C-58.9824 816.257 57.6463 828.919 61.9714 829.389L61.9724 829.389L61.9936 829.391C62.0724 829.4 62.1057 829.403 62.0917 829.402C68.4019 818.597 271.152 725.401 271.069 726.112C291.933 701.858 490.118 561.242 491.542 561.408C526.072 532.545 583.842 433.924 608.411 388.221C586.349 391.836 534.223 325.464 534.473 323.329C448.122 387.332 257.791 442.464 238.021 448.19C237.001 448.486 236.435 448.65 236.361 448.677C197.426 429.3 117.652 380.248 110.029 339.053L130.733 333.921Z" fill="#130C1B"/>
<path d="M53.0328 383.927C36.3167 397.365 11.5413 431.818 6.22733 442.74C-0.415081 456.391 -28.8117 526.654 -30.5557 541.598C-30.9926 545.342 -35.4831 565.589 -41.8072 594.105C-60.7274 679.414 -96.0598 838.726 -88.3619 851.518L-73.903 826.516C-74.4152 826.456 -69.6987 811.215 -63.3192 790.601C-51.9734 753.939 -35.3678 700.28 -33.5605 684.793C48.296 624.135 216.879 491.991 236.361 448.677C197.426 429.3 117.652 380.248 110.029 339.053L53.0328 383.927Z" fill="#08050D"/>
<path d="M130.733 333.921L60.2353 233.363L48.0901 226.175L19.8377 227.206L9.02102 237.964L44.7448 239.398L110.029 339.053L130.733 333.921Z" fill="#08050D"/>
<path d="M915.437 474.984L1102.24 686.108L1243.16 470.874L1078.89 273.437L915.437 474.984Z" fill="#1C1A25"/>
<path d="M1102.24 686.108L1326.75 625.438C1340.26 613.539 1378.58 587.855 1423.73 580.308C1423.88 581.017 1454.92 455.664 1470.42 392.899L1381.09 404.81L1323.85 453.405L1243.16 470.874L1102.24 686.108Z" fill="#130C1B"/>
<path d="M1470.42 392.899C1467.05 360.21 1453.26 284.478 1424.98 243.07L1374.44 254.012L1296.94 371.973L1243.16 470.874L1323.85 453.405L1381.09 404.81L1470.42 392.899Z" fill="#1E1C21"/>
<path d="M1228.08 169.663L1076.27 270.29L1078.89 273.437L1243.16 470.874L1296.94 371.973L1374.44 254.012L1319.32 256.663L1237.1 211.339L1228.08 169.663Z" fill="#4B4647"/>
<path d="M913.871 444.944L915.437 474.984L1078.89 273.437L1076.27 270.29L913.871 444.944Z" fill="#020E02"/>
<path d="M1340.55 45.989L1290.72 124.541C1269.68 157.707 1311.25 190.808 1334.67 203.213L1386.58 125.683C1384.76 124.804 1383 123.925 1381.29 123.07C1380.62 122.734 1379.95 122.401 1379.3 122.074C1332.81 99.4609 1334.1 61.9286 1340.55 45.989Z" fill="#464342"/>
<path d="M1424.98 243.07C1425.85 243.626 1472.73 179.203 1496.07 146.921L1415.38 164.39L1388.78 204.493L1362.19 244.596L1424.98 243.07Z" fill="#3D3E39"/>
<path fill-rule="evenodd" clip-rule="evenodd" d="M1480.75 123.318C1492.52 129.681 1495.87 141.705 1496.07 146.921L1415.38 164.39L1386.58 125.683C1384.76 124.804 1383 123.925 1381.29 123.07C1380.62 122.734 1379.95 122.401 1379.3 122.074C1332.81 99.4609 1334.1 61.9286 1340.55 45.989C1349.24 33.2764 1379.66 12.272 1431.76 29.9558C1496.88 52.0605 1480.94 124.205 1480.75 123.318Z" fill="#365BCD"/>
<path d="M1386.58 125.683L1334.67 203.213L1362.19 244.596L1388.78 204.493L1415.38 164.39L1386.58 125.683Z" fill="#807B82"/>
<path d="M1290.72 124.541L1231.13 151.084L1228.08 169.663L1237.1 211.339L1319.32 256.663L1374.44 254.012L1362.19 244.596L1334.67 203.213C1311.25 190.808 1269.68 157.707 1290.72 124.541Z" fill="#A6A6A6"/>
<path d="M1374.44 254.012L1424.98 243.07L1362.19 244.596L1374.44 254.012Z" fill="#A6A6A6"/>
<path d="M1185.24 281.348L1215.16 318.418L1251.58 352.28L1215.77 384.903L1178.49 349.365L1150.8 312.607L1185.24 281.348Z" fill="#D9D9D9"/>
<path d="M1355.48 86.1685C1354.12 73.0592 1361.2 14.0962 1439.71 47.9469" stroke="#101E4C" stroke-width="5" stroke-linecap="round"/>
<path d="M1369.77 86.9789C1368.54 70.9946 1383.44 30.2714 1443.44 63.8936" stroke="#101E4C" stroke-width="5" stroke-linecap="round"/>
<path d="M1384.29 88.2651C1384.06 72.2668 1403.73 49.4754 1441.65 78.4215" stroke="#101E4C" stroke-width="5" stroke-linecap="round"/>
</svg>
