<svg width="601" height="1238" viewBox="0 0 601 1238" fill="none" xmlns="http://www.w3.org/2000/svg">
<path d="M184.082 477.358L478.588 421.549C482.488 420.399 491.038 421.413 494.045 434.677C497.053 447.941 520.516 566.763 531.872 624.515C533.136 629.011 532.705 638.686 520.872 641.422C509.039 644.158 319.207 679.844 225.769 697.344C222.998 696.84 217.025 693.566 215.308 684.505L179.269 494.327C177.495 489.311 175.974 478.895 184.082 477.358Z" fill="#ECECEC"/>
<path d="M278.394 153.786L283.358 157.169L286.257 152.914L301.18 159.967C304.422 153.177 311.515 138.246 313.95 132.844C316.385 127.442 304.489 123.109 298.236 121.618L278.394 153.786Z" fill="#ECECEC"/>
<path d="M310.656 164.347L329.834 174.3C334.564 165.581 344.222 147.241 345.02 143.631C345.818 140.021 333.116 136.212 326.664 134.758L310.656 164.347Z" fill="#ECECEC"/>
<path d="M339.31 178.68L359.085 188.519C364.808 179.612 375.715 160.911 373.561 157.367C371.408 153.823 360.577 150.77 355.431 149.686L339.31 178.68Z" fill="#ECECEC"/>
<path d="M399.779 106.698L379.522 97.5681C375.721 104.67 368.233 119.47 368.685 121.854C369.136 124.239 382.378 128.935 388.942 130.985L399.779 106.698Z" fill="#ECECEC"/>
<path d="M369.82 91.9957L350.867 83.2356C346.508 90.6491 337.88 105.953 338.242 107.861C338.603 109.769 352.617 114.195 359.579 116.169L369.82 91.9957Z" fill="#ECECEC"/>
<path d="M340.086 78.4854L320.538 69.8383L309.249 91.7399C315.158 95.7666 327.528 103.468 329.732 102.063C331.936 100.657 337.553 85.7587 340.086 78.4854Z" fill="#ECECEC"/>
<path d="M242.763 193.888L257.936 176.19L235.758 156.925C227.716 161.414 225.526 172.451 225.436 177.409L242.763 193.888Z" fill="#ECECEC"/>
<path d="M191.289 117.799L177.082 134.078L199.856 153.23L213.58 137.66L191.289 117.799Z" fill="#ECECEC"/>
<path d="M222.531 217.484L236.626 200.609L215.866 182.31L199.983 199.524L222.531 217.484Z" fill="#ECECEC"/>
<path d="M169.865 141.621L155.771 158.496L177.836 177.165L192.753 161.369L169.865 141.621Z" fill="#ECECEC"/>
<path d="M412.47 887.379L416.989 911.226L473.028 900.606L468.509 876.76L412.47 887.379Z" fill="#0D0D0D"/>
<path d="M396.088 800.935L402.641 835.513L458.681 824.893L452.128 790.316L396.088 800.935Z" fill="#0D0D0D"/>
<path d="M301.894 818.785L308.446 853.363L366.871 842.291L360.318 807.714L301.894 818.785Z" fill="#0D0D0D"/>
<path d="M318.275 905.229L322.794 929.076L381.219 918.004L376.7 894.158L318.275 905.229Z" fill="#0D0D0D"/>
<path d="M468.442 706.939L472.057 726.017L509.616 718.899L506.001 699.822L468.442 706.939Z" fill="#0D0D0D"/>
<path d="M401.075 719.705L404.69 738.783L445.23 731.1L441.615 712.023L401.075 719.705Z" fill="#0D0D0D"/>
<path d="M336.093 732.019L339.708 751.097L378.459 743.753L374.844 724.676L336.093 732.019Z" fill="#0D0D0D"/>
<path d="M268.726 744.786L272.341 763.863L312.881 756.181L309.266 737.103L268.726 744.786Z" fill="#0D0D0D"/>
<path d="M483.217 810.98C491.65 849.125 522.587 854.98 545.12 852.161C550.319 851.51 555.07 850.398 558.995 849.114C576.053 844.528 589.847 824.123 584.425 795.507C579.228 768.083 561.961 757.222 542.337 754.694C538.072 753.484 533.092 753.142 527.854 753.652C504.239 755.952 475.388 775.565 483.217 810.98Z" fill="#0D0D0D"/>
<path fill-rule="evenodd" clip-rule="evenodd" d="M136.209 410.491L136.995 414.643L150.596 486.415L199.696 745.515L568.553 675.617C550.984 583.355 533.596 492.147 520.133 421.549C514.466 391.832 509.494 365.766 505.496 344.811C502.404 328.599 494.103 328.443 490.34 330.391L146.352 395.577C145.524 395.734 144.758 395.94 144.05 396.188C137.059 398.64 135.744 405.266 136.209 410.491ZM478.588 421.549L184.082 477.358C175.974 478.895 177.495 489.311 179.269 494.327L215.308 684.505C217.025 693.566 222.998 696.84 225.769 697.344C319.207 679.844 509.039 644.158 520.872 641.422C532.705 638.686 533.136 629.011 531.872 624.515C520.516 566.763 497.053 447.941 494.045 434.677C491.038 421.413 482.488 420.399 478.588 421.549Z" fill="#0D0D0D"/>
<path d="M139.939 182.494L114.907 210.088C129.734 220.979 165.766 243.83 191.28 248.109L200.8 236.424L139.939 182.494Z" fill="#0A0A0A"/>
<path d="M456.573 139.166L424.486 123.014L386.948 198.678L399.261 204.991C419.729 195.678 445.997 157.227 456.573 139.166Z" fill="#0A0A0A"/>
<path fill-rule="evenodd" clip-rule="evenodd" d="M136.209 410.491L136.995 414.643C136.644 413.481 136.347 412.048 136.209 410.491Z" fill="#454545"/>
<path d="M284.968 45.0825L263.964 74.3832L230.963 125.102L254.679 139.444L278.394 153.786L298.236 121.618C304.489 123.109 316.385 127.442 313.95 132.844C311.515 138.246 304.422 153.177 301.18 159.967L297.685 164.335L307.387 169.907L310.656 164.347L326.664 134.758C333.116 136.212 345.818 140.021 345.02 143.631C344.222 147.241 334.564 165.581 329.834 174.3L327.644 179.038L336.041 184.24L339.31 178.68L355.431 149.686C360.577 150.77 371.408 153.823 373.561 157.367C375.715 160.911 364.808 179.612 359.085 188.519L356.895 193.257L382.229 206.366L386.948 198.678L424.486 123.014L427.303 115.069L402.082 102.556L399.779 106.698L388.942 130.985C382.378 128.935 369.136 124.239 368.685 121.854C368.233 119.47 375.721 104.67 379.522 97.5681L381.599 92.2338L372.123 87.8538L369.82 91.9957L359.579 116.169C352.617 114.195 338.603 109.769 338.242 107.861C337.88 105.953 346.508 90.6491 350.867 83.2356L352.235 77.4182L342.276 73.7473L340.086 78.4854C337.553 85.7587 331.936 100.657 329.732 102.063C327.528 103.468 315.158 95.7666 309.249 91.7399L320.538 69.8383L322.389 63.3117L284.968 45.0825Z" fill="#454545"/>
<path fill-rule="evenodd" clip-rule="evenodd" d="M139.939 182.494L133.218 176.357L151.629 156.193L155.771 158.496L177.836 177.165L192.753 161.369L169.865 141.621L166.094 138.013L172.827 131.179L177.082 134.078L199.856 153.23L213.58 137.66L191.289 117.799L187.034 114.9L193.655 107.469L197.91 110.368L220.201 130.23L222.488 127.277L245.181 143.557C243.226 145.338 243.001 146.932 242.776 148.516C242.702 149.04 242.628 149.563 242.492 150.091L264.783 169.952L268.441 172.964L263.013 180.169L257.936 176.19L235.758 156.925C227.716 161.414 225.526 172.451 225.436 177.409L242.763 193.888L247.131 197.383L241.59 203.991L236.626 200.609L215.866 182.31L199.983 199.524L222.531 217.484L225.707 221.205L207.891 241.256L200.8 236.424L139.939 182.494ZM255.889 69.8383L237.695 59.5988L208.942 90.3682L213.422 94.4597L229.908 108.78L255.889 69.8383Z" fill="#454545"/>
<path d="M230.963 125.102L263.964 74.3832L255.889 69.8383L229.908 108.78L235.6 113.725L222.488 127.277L245.181 143.557C247.081 141.824 251.525 139.312 254.679 139.444L230.963 125.102Z" fill="#373737"/>
<path fill-rule="evenodd" clip-rule="evenodd" d="M197.91 110.368L213.422 94.4597L229.908 108.78L218.541 124.317L222.488 127.277L220.201 130.23L197.91 110.368Z" fill="#ECECEC"/>
<path d="M235.6 113.725L229.908 108.78L218.541 124.317L222.488 127.277L235.6 113.725Z" fill="#CECECE"/>
<path d="M494.92 289.381C493.985 287.706 495.045 277.006 498.653 273.234C500.579 271.222 510.365 270.574 519.214 269.988C524.245 269.655 528.973 269.341 531.782 268.809L529.735 258.007L516.507 258.007C509.272 257.514 494.209 257.415 491.841 260.967C488.882 265.407 482.468 276.26 482.962 284.647C483.245 289.458 485.737 304.493 487.97 317.206C488.851 322.218 489.691 326.87 490.34 330.391C494.103 328.443 502.404 328.599 505.496 344.811C498.869 310.073 494.92 289.381 494.92 289.381Z" fill="#343434"/>
<path fill-rule="evenodd" clip-rule="evenodd" d="M456.573 139.166C462.827 128.717 476.051 107.684 478.913 107.142C481.774 106.6 527.841 132.866 550.517 146.067C551.092 148.016 551.396 153.311 548.007 158.894C544.618 164.477 532.359 188.209 526.653 199.377C525.048 205.034 522.247 218.493 523.873 227.077L529.735 258.007L516.507 258.007C509.272 257.514 494.209 257.415 491.841 260.967C488.882 265.407 482.468 276.26 482.962 284.647C483.245 289.458 485.737 304.493 487.97 317.206L141.053 383.804C137.207 367.219 132.827 346.334 132.21 343.071C131.421 338.9 123.478 332.805 120.345 331.019L87.3179 341.379C86.9051 339.18 86.4799 336.895 86.0482 334.574C84.6909 327.278 83.2695 319.637 81.9694 313.289C79.7331 306.919 72.7139 291.822 62.5273 282.389C62.6177 282.866 40.2363 262.528 29.0343 252.299L78.7093 188.539L114.907 210.088C129.734 220.979 165.766 243.83 191.28 248.109C207.105 252.315 250.411 259.013 297.035 252.154C343.659 245.295 384.612 217.854 399.261 204.991C419.729 195.678 445.997 157.227 456.573 139.166Z" fill="#454545"/>
<path d="M146.352 395.577L490.34 330.391C489.691 326.87 488.851 322.218 487.97 317.206L141.053 383.804C142.124 388.424 143.154 392.71 144.05 396.188C144.758 395.94 145.524 395.734 146.352 395.577Z" fill="#343434"/>
<path d="M120.345 343.071C121.602 344.274 124.297 347.633 125.02 351.449L136.209 410.491C135.744 405.266 137.059 398.64 144.05 396.188C143.154 392.71 142.124 388.424 141.053 383.804C137.207 367.219 132.827 346.334 132.21 343.071C131.421 338.9 123.478 332.805 120.345 331.019L87.3179 341.379C88.3561 346.907 89.8257 353.75 89.6553 353.827L120.345 343.071Z" fill="#343434"/>
<path fill-rule="evenodd" clip-rule="evenodd" d="M272.885 160.33L264.783 169.952L242.492 150.091C242.628 149.563 242.702 149.04 242.776 148.516C243.001 146.932 243.226 145.338 245.181 143.557L272.885 160.33Z" fill="#ECECEC"/>
<path d="M278.394 153.786L254.679 139.444C251.525 139.312 247.081 141.824 245.181 143.557L272.885 160.33L278.394 153.786Z" fill="#CECECE"/>
<path d="M692.324 1138.81C691.017 1130.82 688.26 1114.76 687.693 1114.37C694.8 1113.02 697.337 1110.2 698.378 1109.04L698.379 1109.04C698.647 1108.74 698.816 1108.56 698.938 1108.53C701.393 1104.93 698.135 1071.19 696.349 1052.67L696.348 1052.67L696.347 1052.66C695.701 1045.96 695.247 1041.26 695.327 1040.71L682.263 1087.28L468.509 1160.29L271.82 1186.05L230.887 1143L217.359 1128.77L239.406 1196.23C242.901 1199.03 249.983 1197.73 253.087 1196.73C254.98 1205.63 258.648 1223.46 258.171 1223.55C337.216 1220.93 402.487 1199.71 425.242 1189.42L433.249 1186.05L437.711 1180.27L505.674 1167.39L513.135 1170.92C516.428 1170.91 523.132 1170.87 523.609 1170.78C558.004 1177.6 650.417 1152.31 692.324 1138.81Z" fill="#343434"/>
<path fill-rule="evenodd" clip-rule="evenodd" d="M230.887 1143L234.663 1035.5L140.597 537.227L150.596 486.415L136.995 414.643C136.644 413.481 136.347 412.048 136.209 410.491L125.02 351.449C124.297 347.633 121.602 344.274 120.345 343.071L89.6553 353.827L89.6517 353.828C62.4414 361.455 58.4128 371.482 59.7998 375.542L202.9 1111.13L217.359 1128.77L230.887 1143Z" fill="#454545"/>
<path d="M565.349 279.74C563.18 268.294 542.067 267.684 531.782 268.809C528.973 269.341 524.245 269.655 519.214 269.988C510.365 270.574 500.579 271.222 498.653 273.234C495.045 277.006 493.985 287.706 494.92 289.381C494.92 289.381 498.869 310.073 505.496 344.811C509.494 365.766 514.466 391.832 520.133 421.549L548.573 464.216L640.844 938.297L648.718 978.75C643.659 988.177 635.92 1002.28 628.5 1015.17C620.001 1029.93 611.919 1043.1 608.759 1045.84C601.359 1052.26 311.286 1107.51 296.486 1107.01C284.646 1106.62 254.061 1078.89 240.248 1065.08L234.663 1035.5L230.887 1143L271.82 1186.05L468.509 1160.29L682.263 1087.28L695.327 1040.71C695.33 1040.69 695.335 1040.67 695.34 1040.66C695.727 1040.1 699.898 1013.66 701.935 1000.51L565.349 279.74Z" fill="#3B3B3B"/>
<path fill-rule="evenodd" clip-rule="evenodd" d="M605.925 1011.05L628.5 1015.17C635.92 1002.28 643.659 988.177 648.718 978.75L640.844 938.297L548.573 464.216L520.133 421.549C533.596 492.147 550.984 583.355 568.553 675.617L571.164 689.326C590.556 791.167 609.944 893.109 624.306 968.899C624.801 971.505 617.119 995.015 605.925 1011.05ZM202.294 759.227L251.181 1017.2L234.663 1035.5L140.597 537.227L150.596 486.415L199.696 745.515L200.995 752.371L202.294 759.227Z" fill="#343434"/>
<path d="M304.857 1078.84C289.729 1077.23 256.861 1047.18 255.392 1039.43L251.181 1017.2L234.663 1035.5L240.248 1065.08C254.061 1078.89 284.646 1106.62 296.486 1107.01C311.286 1107.51 601.359 1052.26 608.759 1045.84C611.919 1043.1 620.001 1029.93 628.5 1015.17L605.925 1011.05C601.759 1017.02 597.107 1021.95 592.209 1024.39C575.028 1032.93 331.96 1081.73 304.857 1078.84Z" fill="#2C2C2C"/>
<path fill-rule="evenodd" clip-rule="evenodd" d="M251.181 1017.2L283.338 981.583L249.117 800.995C245.682 782.872 242.289 777.998 241.021 777.827L202.294 759.227L251.181 1017.2ZM511.701 994.172L536.123 998.327L605.925 1011.05C617.119 995.015 624.801 971.505 624.306 968.899C609.944 893.109 590.556 791.167 571.164 689.326C563.457 685.846 544.592 709.595 536.123 721.904L542.337 754.694C561.961 757.222 579.228 768.083 584.425 795.507C589.847 824.123 576.053 844.528 558.995 849.114L576.844 943.308C579.104 955.232 570.231 973.588 560.63 981.583C557.942 983.821 538.496 988.558 511.701 994.172Z" fill="#0D0D0D"/>
<path d="M255.392 1039.43C256.861 1047.18 289.729 1077.23 304.857 1078.84C331.96 1081.73 575.028 1032.93 592.209 1024.39C597.107 1021.95 601.759 1017.02 605.925 1011.05L536.123 998.327L511.701 994.172C442.784 1008.61 325.251 1028.86 319.182 1027.34C312.44 1025.65 294.592 1007.29 286.511 998.327L283.338 981.583L251.181 1017.2L255.392 1039.43Z" fill="#080808"/>
<path d="M296.979 991.083C302.678 998.154 315.82 1012.2 322.794 1011.8C327.824 1011.52 402.053 999.736 465.467 988.02L431.5 983.5L431.5 955.5L364.5 955.5L364.5 978.75L295.003 981.176L296.979 991.083Z" fill="#3E3E3E"/>
<path fill-rule="evenodd" clip-rule="evenodd" d="M568.553 675.617L199.696 745.515L200.995 752.371L202.294 759.227L241.021 777.827C242.289 777.998 245.682 782.872 249.117 800.995L283.338 981.583L295.003 981.176L364.5 978.75L364.5 955.5L431.5 955.5L431.5 983.5L465.467 988.02L511.701 994.172C538.496 988.558 557.942 983.821 560.63 981.583C570.231 973.588 579.104 955.232 576.844 943.308L558.995 849.114C555.07 850.398 550.319 851.51 545.12 852.161C522.587 854.98 491.65 849.125 483.217 810.98C475.388 775.565 504.239 755.952 527.854 753.652C533.092 753.142 538.072 753.484 542.337 754.694L536.123 721.904C544.592 709.595 563.457 685.846 571.164 689.326L568.553 675.617ZM272.341 763.863L268.726 744.786L309.266 737.103L312.881 756.181L272.341 763.863ZM339.708 751.097L336.093 732.019L374.844 724.676L378.459 743.753L339.708 751.097ZM404.69 738.783L401.075 719.705L441.615 712.023L445.23 731.1L404.69 738.783ZM472.057 726.017L468.442 706.939L506.001 699.822L509.616 718.899L472.057 726.017ZM308.446 853.363L301.894 818.785L360.318 807.714L366.871 842.291L308.446 853.363ZM402.641 835.513L396.088 800.935L452.128 790.316L458.681 824.893L402.641 835.513ZM322.794 929.076L318.275 905.229L376.7 894.158L381.219 918.004L322.794 929.076ZM416.989 911.226L412.47 887.379L468.509 876.76L473.028 900.606L416.989 911.226Z" fill="#454545"/>
<path d="M286.511 998.327C294.592 1007.29 312.44 1025.65 319.182 1027.34C325.251 1028.86 442.784 1008.61 511.701 994.172L465.467 988.02C402.053 999.736 327.824 1011.52 322.794 1011.8C315.82 1012.2 302.678 998.154 296.979 991.083L295.003 981.176L283.338 981.583L286.511 998.327Z" fill="#3E3E3E"/>
<path d="M576.487 794.265C581.146 818.848 564.994 842.554 540.41 847.212C515.827 851.871 492.121 835.718 487.462 811.135C482.804 786.551 498.956 762.846 523.54 758.187C548.123 753.529 571.829 769.681 576.487 794.265ZM494.679 809.767C498.582 830.365 518.445 843.899 539.043 839.996C559.641 836.092 573.174 816.23 569.271 795.632C565.368 775.034 545.505 761.5 524.907 765.404C504.309 769.307 490.776 789.169 494.679 809.767Z" fill="#365BCD"/>
<circle cx="531.975" cy="802.7" r="19.8208" transform="rotate(-10.7303 531.975 802.7)" fill="#365BCD"/>
<rect x="224.922" y="633.692" width="281.267" height="49.0801" transform="rotate(-10.7303 224.922 633.692)" fill="#365BCD"/>
<rect x="207.879" y="543.74" width="281.267" height="2.83154" transform="rotate(-10.7303 207.879 543.74)" fill="#365BCD"/>
</svg>
