<svg width="1440" height="846" viewBox="0 0 1440 846" fill="none" xmlns="http://www.w3.org/2000/svg">
<g clip-path="url(#clip0_367_9916)">
<rect width="1505.08" height="845" transform="translate(-45.2969 0.925964) rotate(-2)" fill="black"/>
<rect x="-92.8496" y="831.252" width="1599.31" height="27" transform="rotate(-2.00157 -92.8496 831.252)" fill="#151515"/>
<rect x="1143.85" y="448.507" width="68.1267" height="2.50812" transform="rotate(-2 1143.85 448.507)" fill="#F5F4F0"/>
<rect x="687.896" y="467.497" width="124.668" height="2.50812" transform="rotate(-2 687.896 467.497)" fill="#F5F4F0"/>
<rect x="224.07" y="483.34" width="150.802" height="2.50812" transform="rotate(-2 224.07 483.34)" fill="#F5F4F0"/>
<rect x="164.889" y="720.498" width="1127.29" height="6.61169" transform="rotate(-2 164.889 720.498)" fill="#F5F4F0"/>
<rect x="997.045" y="363.96" width="332.789" height="6.61169" transform="rotate(88 997.045 363.96)" fill="#F5F4F0"/>
<rect x="514.686" y="380.804" width="332.789" height="6.61169" transform="rotate(88 514.686 380.804)" fill="#F5F4F0"/>
<rect x="153.352" y="390.114" width="1127.29" height="6.61169" transform="rotate(-2 153.352 390.114)" fill="#F5F4F0"/>
<rect x="-45.5" y="-16.0704" width="1502.18" height="202.377" transform="rotate(-2 -45.5 -16.0704)" fill="#F5F4F0"/>
<rect x="-76.0703" y="87.8358" width="1560.6" height="6.25907" transform="rotate(-2 -76.0703 87.8358)" fill="black"/>
<path d="M1422.1 -95.1723L1311.08 43.3568L1431.49 173.804" stroke="black" stroke-width="61"/>
<path d="M1222.87 -91.3464L1111.84 47.1828L1232.26 177.63" stroke="black" stroke-width="61"/>
<path d="M1023.85 -81.2651L912.824 57.264L1033.24 187.711" stroke="black" stroke-width="61"/>
<path d="M824.721 -74.3114L713.695 64.2178L834.114 194.665" stroke="black" stroke-width="61"/>
<path d="M625.596 -67.3578L514.57 71.1713L634.989 201.618" stroke="black" stroke-width="61"/>
<path d="M426.469 -60.4041L315.443 78.125L435.862 208.572" stroke="black" stroke-width="61"/>
<path d="M227.346 -53.4506L116.32 85.0786L236.739 215.526" stroke="black" stroke-width="61"/>
<path d="M28.2188 -46.4969L-82.8071 92.0322L37.6116 222.479" stroke="black" stroke-width="61"/>
</g>
<defs>
<clipPath id="clip0_367_9916">
<rect width="1505.08" height="845" fill="white" transform="translate(-45.2969 0.925964) rotate(-2)"/>
</clipPath>
</defs>
</svg>
