<svg width="645" height="258" viewBox="0 0 645 258" fill="none" xmlns="http://www.w3.org/2000/svg">
<path d="M549.939 239.618L-235.674 63.6388C-237.201 61.4574 -239.474 55.9233 -239.413 48.0453L553.459 223.732C553.171 225.032 554.325 226.056 555.626 227.211C557.305 228.701 559.229 230.408 558.609 233.206C557.811 236.806 554.823 238.825 552.362 239.468L549.939 239.618Z" fill="#2B4492"/>
<path d="M560.279 192.952C562.938 194.582 568.08 198.638 567.376 201.816C566.905 203.944 564.269 204.097 561.822 204.239C559.702 204.362 557.725 204.477 557.419 205.859L-235.422 30.1797C-232.21 23.3401 -227.963 19.8225 -225.735 18.7848L560.279 192.952Z" fill="#2E499E"/>
<path fill-rule="evenodd" clip-rule="evenodd" d="M549.939 239.618C550.572 239.758 551.429 239.712 552.362 239.468L549.939 239.618ZM-235.422 30.1797L557.419 205.859C557.145 207.093 558.319 208.111 559.694 209.304C561.639 210.992 563.986 213.028 563.213 216.518C562.439 220.008 559.451 220.862 556.976 221.57C555.226 222.071 553.732 222.498 553.459 223.732L-239.413 48.0453C-239.474 55.9233 -237.201 61.4574 -235.674 63.6388L-246.897 61.1249L-310.782 46.8144C-312.784 45.2955 -315.835 40.3385 -315.558 31.1729C-315.477 28.5006 -315.114 25.4706 -314.359 22.0637C-313.595 18.6161 -312.668 15.7154 -311.66 13.2868C-308.254 5.08384 -303.914 2.26536 -301.745 1.94228L-236.963 16.2967L-225.735 18.7848C-227.963 19.8225 -232.21 23.3401 -235.422 30.1797Z" fill="#365BCD"/>
<path fill-rule="evenodd" clip-rule="evenodd" d="M607.82 236.038C597.471 229.578 604.599 219.891 611.08 221.327L634.464 234.389L607.82 236.038Z" fill="#365BCD"/>
<path d="M567.376 201.816C568.08 198.638 562.938 194.582 560.279 192.952L611.08 221.327C604.599 219.891 597.471 229.578 607.82 236.038L552.362 239.468C554.823 238.825 557.811 236.806 558.609 233.206C559.229 230.408 557.305 228.701 555.626 227.211C554.325 226.056 553.171 225.032 553.459 223.732C553.732 222.498 555.226 222.071 556.976 221.57C559.451 220.862 562.439 220.008 563.213 216.518C563.986 213.028 561.639 210.992 559.694 209.304C558.319 208.111 557.145 207.093 557.419 205.859C557.725 204.477 559.702 204.362 561.822 204.239C564.269 204.097 566.905 203.944 567.376 201.816Z" fill="#E3DBD2"/>
<path d="M95.217 118.304L93.1838 117.851L93.1556 111.921L90.3829 117.227L88.3496 116.773L88.7441 106.408L90.2794 106.75L89.7939 115.375L92.495 110.293L94.5697 110.755L94.6213 116.19L97.9352 108.457L99.4498 108.794L95.217 118.304Z" fill="#F5F4F0"/>
<path d="M104.25 120.536C102.818 120.217 101.742 119.476 101.026 118.293C100.31 117.11 100.11 115.758 100.448 114.244C100.785 112.729 101.536 111.611 102.687 110.844C103.838 110.078 105.131 109.843 106.563 110.162C107.994 110.482 109.066 111.243 109.782 112.426C110.519 113.614 110.723 114.945 110.386 116.459C110.048 117.974 109.293 119.112 108.142 119.879C106.991 120.646 105.682 120.855 104.25 120.536ZM102.514 117.383C102.988 118.186 103.703 118.694 104.636 118.902C105.57 119.11 106.432 118.954 107.182 118.424C107.957 117.878 108.458 117.097 108.685 116.08C108.911 115.063 108.79 114.143 108.315 113.341C107.866 112.522 107.152 112.014 106.218 111.806C105.285 111.598 104.422 111.754 103.647 112.3C102.877 112.825 102.376 113.606 102.149 114.623C101.922 115.64 102.044 116.56 102.514 117.383Z" fill="#F5F4F0"/>
<path d="M120.896 122.418L120.554 123.953L111.84 122.011L112.183 120.475L115.212 121.151L116.747 114.262L114.195 113.693L114.538 112.158L118.729 113.092C118.604 113.653 118.491 114.063 118.41 114.328C119.353 113.515 120.455 113.26 121.721 113.542C122.945 113.815 123.971 114.588 124.406 115.469L122.95 116.233C122.656 115.601 122.031 115.179 121.098 114.971C119.5 114.615 118.215 115.395 117.85 117.035L116.851 121.516L120.896 122.418Z" fill="#F5F4F0"/>
<path d="M134.696 127.106L132.538 126.625L130.043 120.82L127.566 122.162C127.26 123.532 127.024 124.59 126.874 125.362L125.214 124.992C125.457 124.001 125.975 121.677 126.785 118.046C127.594 114.416 128.112 112.092 128.313 111.091L129.973 111.461C129.73 112.453 129.092 115.316 128.033 120.067L134.489 116.606L136.833 117.129L131.554 120.003L134.696 127.106Z" fill="#F5F4F0"/>
<path d="M139.66 121.897L138.318 127.914L136.762 127.567C137.005 126.576 137.375 124.916 137.893 122.592C138.411 120.268 138.781 118.609 138.983 117.608L140.539 117.955C140.46 118.308 140.4 118.577 140.338 118.759C141.009 118.19 141.705 117.997 142.432 118.159C143.324 118.358 143.95 119.064 144.1 120.056C144.836 119.196 145.647 118.876 146.56 119.08C147.826 119.362 148.505 120.711 148.121 122.433L146.493 129.736L144.958 129.394L146.558 122.215C146.776 121.24 146.476 120.629 145.833 120.486C144.92 120.282 144.113 121.169 143.747 122.808L142.406 128.825L140.87 128.483L142.471 121.304C142.688 120.329 142.368 119.713 141.704 119.565C140.812 119.366 140.025 120.258 139.66 121.897Z" fill="#F5F4F0"/>
<path d="M157.767 132.467C156.667 132.222 155.934 131.406 155.947 130.472C154.849 131.294 153.638 131.547 152.289 131.246C150.381 130.821 149.367 129.506 149.714 127.95C150.07 126.352 151.489 125.558 153.573 125.587C154.248 125.585 155.36 125.68 156.932 125.857L157.099 125.11C157.353 123.969 156.567 122.901 155.219 122.6C153.912 122.308 152.835 122.743 152.645 123.594C152.622 123.698 152.624 123.785 152.626 123.873L151.001 123.837C150.976 123.658 151.001 123.445 151.057 123.196C151.246 122.346 151.777 121.724 152.649 121.33C153.521 120.936 154.54 120.859 155.681 121.113C156.781 121.358 157.645 121.878 158.232 122.662C158.82 123.446 159.017 124.318 158.805 125.272L157.713 130.169C157.62 130.584 157.842 130.96 158.256 131.052C158.817 131.177 159.373 130.539 159.59 129.564L160.927 130.21C160.747 131.019 160.345 131.648 159.748 132.081C159.155 132.494 158.493 132.629 157.767 132.467ZM152.795 129.856C154.019 130.129 155.295 129.782 156.243 128.948L156.65 127.122C155.094 126.971 153.952 126.913 153.226 126.947C152.278 126.997 151.626 127.483 151.478 128.147C151.297 128.956 151.82 129.639 152.795 129.856Z" fill="#F5F4F0"/>
<path d="M171.646 131.816C171.169 133.953 169.356 135.051 167.116 134.552C164.709 134.015 163.68 132.283 164.193 129.98L165.285 125.084L163.148 124.607L163.49 123.072L165.627 123.548L166.275 120.644L167.985 120.785L167.287 123.918L173.2 125.237L172.857 126.772L166.944 125.454L165.936 129.977C165.589 131.533 166.195 132.626 167.46 132.908C168.726 133.19 169.718 132.649 169.995 131.404C170.148 130.72 170.162 130.069 170.043 129.433L171.671 129.36C171.841 130.16 171.835 130.965 171.646 131.816Z" fill="#F5F4F0"/>
<path d="M176.953 130.538L183.509 132C183.688 130.123 182.739 128.714 180.934 128.311C179.129 127.909 177.63 128.772 176.953 130.538ZM183.051 134.838L184.177 135.938C182.998 137.222 181.154 137.681 179.224 137.251C177.751 136.923 176.613 136.168 175.855 134.976C175.097 133.783 174.877 132.427 175.214 130.913C175.552 129.398 176.307 128.26 177.458 127.493C178.63 126.73 179.939 126.521 181.412 126.85C182.782 127.155 183.8 127.861 184.494 128.952C185.187 130.043 185.38 131.328 185.051 132.801C184.963 133.195 184.864 133.543 184.728 133.861L176.636 132.057C176.545 133.932 177.669 135.336 179.578 135.762C180.885 136.053 182.273 135.688 183.051 134.838Z" fill="#F5F4F0"/>
<path d="M-32.8 83.7878L-27.8946 81.1132L-33.2627 79.9164L-32.9885 78.6865L-25.9751 80.2501L-26.2493 81.48L-29.5103 83.3523C-29.3496 83.3358 -29.1797 83.3563 -28.9637 83.4044C-27.7006 83.686 -26.9608 84.8279 -27.3165 86.4234C-27.5388 87.4206 -28.0306 88.2181 -28.7957 88.8326C-30.3054 90.0487 -32.3428 90.3446 -34.4202 89.8814C-35.085 89.7332 -35.5725 89.5722 -35.8789 89.3818L-35.0471 88.3111C-34.8754 88.4018 -34.5965 88.4814 -34.2143 88.5666C-33.4498 88.737 -32.6963 88.8003 -31.9667 88.7362C-31.2205 88.6758 -30.537 88.4269 -29.9032 88.01C-29.2658 87.5764 -28.8553 86.9875 -28.6812 86.2064C-28.4329 85.0929 -28.8591 84.4221 -29.956 84.1776C-30.4047 84.0776 -30.9183 84.1899 -31.4928 84.4979L-32.0915 84.8355L-32.8 83.7878Z" fill="#F5F4F0"/>
<path d="M-17.1027 89.7996C-17.3584 90.9463 -17.8946 91.7863 -18.7279 92.3158C-19.5612 92.8453 -20.5327 92.9776 -21.6629 92.7256C-22.8262 92.4663 -23.7013 91.8525 -24.2676 90.8714C-24.8339 89.8903 -24.955 88.7119 -24.64 87.2992C-24.1658 85.1719 -23.3041 83.6544 -22.0383 82.7503C-20.7689 81.8295 -19.3632 81.5498 -17.8176 81.8944C-17.1362 82.0463 -16.4807 82.3145 -15.8715 82.712L-16.5223 83.7532C-16.9968 83.4556 -17.4934 83.2576 -17.992 83.1464C-19.1222 82.8945 -20.1584 83.0822 -21.0878 83.7298C-22.0136 84.3608 -22.692 85.2911 -23.0937 86.5449C-22.2306 85.7255 -21.126 85.4658 -19.7964 85.7623C-18.6995 86.0068 -17.9223 86.5115 -17.4777 87.2561C-17.0165 88.0045 -16.8915 88.8523 -17.1027 89.7996ZM-21.4035 91.5623C-19.9908 91.8772 -18.74 91.1966 -18.3991 89.6676C-18.0731 88.205 -18.885 87.1518 -20.3475 86.8257C-21.0289 86.6738 -21.6791 86.7731 -22.2611 87.1143C-22.8431 87.4556 -23.1944 87.9356 -23.3352 88.5671C-23.4871 89.2485 -23.3804 89.8654 -23.0059 90.4549C-22.6313 91.0443 -22.0849 91.4103 -21.4035 91.5623Z" fill="#F5F4F0"/>
<path d="M-9.9066 84.8793C-11.3193 84.5643 -12.5701 85.245 -12.911 86.774C-13.237 88.2365 -12.4251 89.2898 -10.9626 89.6158C-10.2812 89.7677 -9.65134 89.6814 -9.06933 89.3401C-8.48733 88.9988 -8.11576 88.506 -7.97496 87.8744C-7.82304 87.193 -7.94636 86.5724 -8.32087 85.983C-8.69539 85.3935 -9.2252 85.0312 -9.9066 84.8793ZM-13.4926 94.5472C-14.174 94.3952 -14.8294 94.127 -15.4386 93.7295L-14.7878 92.6883C-14.3133 92.986 -13.8167 93.1839 -13.3181 93.2951C-12.188 93.547 -11.1517 93.3594 -10.226 92.7284C-9.29654 92.0807 -8.61809 91.1504 -8.21645 89.8966C-9.07951 90.716 -10.1841 90.9757 -11.5137 90.6793C-12.6106 90.4347 -13.3915 89.9466 -13.8527 89.1983C-14.2973 88.4537 -14.4186 87.5893 -14.2074 86.6419C-13.9517 85.4952 -13.4193 84.6718 -12.5859 84.1424C-11.7526 83.6129 -10.7774 83.4639 -9.64723 83.7159C-8.48387 83.9753 -7.62548 84.5853 -7.05915 85.5664C-6.49283 86.5475 -6.35513 87.7296 -6.67007 89.1423C-7.14435 91.2696 -8.02267 92.7834 -9.29212 93.7042C-10.5579 94.6083 -11.9469 94.8918 -13.4926 94.5472Z" fill="#F5F4F0"/>
<path d="M-4.79931 90.6584C-4.42508 88.9799 -3.739 87.7023 -2.74849 86.8589C-1.75797 86.0156 -0.629309 85.7264 0.617157 86.0043C1.86362 86.2822 2.76255 87.0234 3.29733 88.2243C3.8358 89.4085 3.91793 90.8399 3.5437 92.5185C3.17318 94.1804 2.4908 95.4414 1.50028 96.2847C0.509763 97.1281 -0.618894 97.4173 -1.86536 97.1394C-3.11183 96.8615 -4.01076 96.1203 -4.54923 94.936C-5.08771 93.7518 -5.16984 92.3204 -4.79931 90.6584ZM-3.45313 90.9586C-3.66433 91.9059 -3.71293 92.7499 -3.58973 93.5275L1.96923 88.469C1.60033 87.7761 1.06872 87.3436 0.354084 87.1843C-0.493513 86.9953 -1.28046 87.2386 -1.97722 87.9381C-2.67028 88.6209 -3.15671 89.629 -3.45313 90.9586ZM-1.60229 95.9594C-0.75469 96.1484 0.0156368 95.9014 0.708694 95.2185C1.40546 94.519 1.9048 93.5313 2.19752 92.2184C2.40872 91.271 2.45361 90.4437 2.33591 89.7196L-3.1824 94.7523C-2.82271 95.4082 -2.28369 95.8075 -1.60229 95.9594Z" fill="#F5F4F0"/>
<path d="M5.16592 92.8801C5.54015 91.2016 6.22623 89.924 7.21675 89.0806C8.20727 88.2373 9.33593 87.9481 10.5824 88.226C11.8289 88.5039 12.7278 89.2451 13.2626 90.446C13.801 91.6302 13.8832 93.0616 13.5089 94.7402C13.1384 96.4021 12.456 97.6631 11.4655 98.5064C10.475 99.3498 9.34634 99.639 8.09988 99.3611C6.85341 99.0832 5.95448 98.342 5.416 97.1577C4.87752 95.9735 4.7954 94.5421 5.16592 92.8801ZM6.51211 93.1803C6.30091 94.1276 6.25231 94.9716 6.37551 95.7492L11.9345 90.6907C11.5656 89.9978 11.034 89.5653 10.3193 89.406C9.47172 89.217 8.68478 89.4603 7.98801 90.1598C7.29496 90.8426 6.80853 91.8507 6.51211 93.1803ZM8.36295 98.1811C9.21055 98.3701 9.98087 98.1231 10.6739 97.4402C11.3707 96.7407 11.87 95.753 12.1628 94.4401C12.374 93.4927 12.4188 92.6654 12.3011 91.9413L6.78284 96.974C7.14253 97.6299 7.68155 98.0292 8.36295 98.1811Z" fill="#F5F4F0"/>
<path d="M15.1312 95.1018C15.5054 93.4233 16.1915 92.1457 17.182 91.3023C18.1725 90.459 19.3012 90.1698 20.5476 90.4477C21.7941 90.7256 22.693 91.4668 23.2278 92.6677C23.7663 93.8519 23.8484 95.2833 23.4742 96.9619C23.1036 98.6238 22.4213 99.8848 21.4308 100.728C20.4402 101.571 19.3116 101.861 18.0651 101.583C16.8186 101.305 15.9197 100.564 15.3812 99.3794C14.8428 98.1952 14.7606 96.7638 15.1312 95.1018ZM16.4773 95.402C16.2661 96.3493 16.2175 97.1933 16.3407 97.9709L21.8997 92.9124C21.5308 92.2195 20.9992 91.787 20.2846 91.6277C19.437 91.4387 18.65 91.682 17.9532 92.3815C17.2602 93.0643 16.7738 94.0724 16.4773 95.402ZM18.3282 100.403C19.1758 100.592 19.9461 100.345 20.6392 99.6619C21.3359 98.9624 21.8353 97.9747 22.128 96.6618C22.3392 95.7144 22.3841 94.8871 22.2664 94.163L16.7481 99.1957C17.1078 99.8516 17.6468 100.251 18.3282 100.403Z" fill="#F5F4F0"/>
<path d="M26.1903 99.2248L29.4477 99.951L30.6964 94.3502L26.1903 99.2248ZM33.104 100.766L32.8484 101.913L30.5216 101.394L29.9288 104.053L28.5992 103.757L29.1921 101.098L24.5386 100.06L24.7943 98.9135L30.4592 92.8319L32.3372 93.2506L30.7773 100.247L33.104 100.766Z" fill="#F5F4F0"/>
<path d="M35.0616 99.5452C35.4359 97.8667 36.1219 96.5891 37.1125 95.7457C38.103 94.9024 39.2316 94.6132 40.4781 94.8911C41.7246 95.169 42.6235 95.9102 43.1583 97.1111C43.6968 98.2953 43.7789 99.7267 43.4046 101.405C43.0341 103.067 42.3517 104.328 41.3612 105.172C40.3707 106.015 39.2421 106.304 37.9956 106.026C36.7491 105.748 35.8502 105.007 35.3117 103.823C34.7732 102.639 34.6911 101.207 35.0616 99.5452ZM36.4078 99.8454C36.1966 100.793 36.148 101.637 36.2712 102.414L41.8302 97.3558C41.4613 96.6629 40.9297 96.2304 40.215 96.0711C39.3674 95.8821 38.5805 96.1254 37.8837 96.8249C37.1907 97.5077 36.7042 98.5158 36.4078 99.8454ZM38.2587 104.846C39.1063 105.035 39.8766 104.788 40.5696 104.105C41.2664 103.406 41.7657 102.418 42.0585 101.105C42.2697 100.158 42.3146 99.3305 42.1969 98.6064L36.6786 103.639C37.0382 104.295 37.5773 104.694 38.2587 104.846Z" fill="#F5F4F0"/>
<path d="M45.6839 107.74C45.0358 107.596 44.552 107.418 44.2123 107.22L44.9888 106.085C45.2528 106.231 45.5575 106.351 45.8899 106.425C47.0699 106.688 47.9637 106.748 48.9168 106.542C49.87 106.336 50.5464 105.649 50.8095 104.469C51.0911 103.206 50.6448 102.234 49.4648 101.971C48.6006 101.779 47.5384 102.083 47.0709 102.537L45.841 102.262L47.581 96.6491L54.1291 98.109L53.8549 99.3388L48.4369 98.1309L47.4448 101.329C48.2042 100.818 49.0723 100.68 50.0529 100.899C51.6484 101.254 52.6448 102.576 52.2187 104.487C51.8815 105.999 51.118 106.998 49.9209 107.516C48.7237 108.034 47.3127 108.103 45.6839 107.74Z" fill="#F5F4F0"/>
</svg>
