<svg width="1381" height="1501" viewBox="0 0 1381 1501" fill="none" xmlns="http://www.w3.org/2000/svg">
<rect x="98" y="1069" width="369" height="432" fill="#0C0C0C"/>
<rect x="-705" width="2086" height="1211" rx="60" fill="black"/>
<g clip-path="url(#clip0_439_12)">
<rect x="-521" y="48" width="1854" height="985" rx="8" fill="#141414"/>
<rect x="64" y="604" width="83" height="420" fill="#222222"/>
<rect x="82" y="753" width="49" height="49" rx="5" fill="#141414"/>
<rect x="-586" y="48" width="1924" height="66" fill="#222222"/>
<rect x="64" y="129" width="262" height="460" fill="#222222"/>
<rect x="472" y="129" width="718" height="377" fill="#365BCD"/>
<path d="M999 327H1001V385H999V327Z" fill="white"/>
<rect x="-16" y="129" width="65" height="895" fill="#222222"/>
<rect x="162" y="604" width="1186" height="420" fill="#222222"/>
<rect x="162" y="634" width="1271" height="369" fill="#171717"/>
<path d="M208 718H1364.5C1365.33 718 1366 718.672 1366 719.5C1366 720.328 1365.33 721 1364.5 721H208V718Z" fill="#575757"/>
<path d="M162 658H1364.5C1365.33 658 1366 658.672 1366 659.5C1366 660.328 1365.33 661 1364.5 661H162V658Z" fill="#575757"/>
<path d="M208 778H1346.5C1347.33 778 1348 778.672 1348 779.5C1348 780.328 1347.33 781 1346.5 781H208V778Z" fill="#575757"/>
<path d="M208 838H1346.5C1347.33 838 1348 838.672 1348 839.5C1348 840.328 1347.33 841 1346.5 841H208V838Z" fill="#575757"/>
<path d="M208 898H1346.5C1347.33 898 1348 898.672 1348 899.5C1348 900.328 1347.33 901 1346.5 901H208V898Z" fill="#575757"/>
<path d="M208 958H1346.5C1347.33 958 1348 958.672 1348 959.5C1348 960.328 1347.33 961 1346.5 961H208V958Z" fill="#575757"/>
<path d="M162 778H941C944.866 778 948 781.134 948 785V834C948 837.866 944.866 841 941 841H162V778Z" fill="#369FCD"/>
<path d="M162 841H850C853.866 841 857 844.134 857 848V891C857 894.866 853.866 898 850 898H162V841Z" fill="#9936CD"/>
<path d="M162 898H1136C1139.87 898 1143 901.134 1143 905V954C1143 957.866 1139.87 961 1136 961H162V898Z" fill="#97CD36"/>
<path d="M162 961H737C740.866 961 744 964.134 744 968V1003H162V961Z" fill="#D9499F"/>
<rect x="366" y="547" width="931" height="11" rx="5.5" fill="#575757"/>
<rect x="1081.59" y="432.459" width="15.1462" height="5.25907" rx="2.62953" transform="rotate(-124.533 1081.59 432.459)" fill="white"/>
<path d="M204.534 981.95V984.688H196.579V1006H193.619V984.688H185.664V981.95H204.534Z" fill="#F5F4F0"/>
<path d="M222.576 985.539C221.244 985.539 220.171 984.429 220.171 983.097C220.171 981.728 221.244 980.655 222.576 980.655C223.945 980.655 225.018 981.728 225.018 983.097C225.018 984.429 223.945 985.539 222.576 985.539ZM212.031 985.539C210.699 985.539 209.626 984.429 209.626 983.097C209.626 981.728 210.699 980.655 212.031 980.655C213.4 980.655 214.473 981.728 214.473 983.097C214.473 984.429 213.4 985.539 212.031 985.539ZM224.759 1006H221.762C221.762 1005.26 221.799 1004.52 221.873 1003.82C220.504 1005.52 218.691 1006.37 216.434 1006.37C214.547 1006.37 212.993 1005.74 211.698 1004.52C210.44 1003.26 209.811 1001.63 209.811 999.599V988.24H212.845V999.155C212.845 1002.11 214.51 1003.71 216.989 1003.71C218.284 1003.71 219.431 1003.3 220.356 1002.45C221.318 1001.6 221.799 1000.52 221.799 999.155V988.24H224.759C224.722 990.016 224.722 992.976 224.722 997.12C224.722 1001.26 224.722 1004.22 224.759 1006Z" fill="#F5F4F0"/>
<path d="M246.241 1003.26V1006H230.701V1003.26H236.103V990.978H231.552V988.24H239.026C239.026 989.239 238.989 989.979 238.952 990.46C240.247 988.721 242.023 987.87 244.28 987.87C246.463 987.87 248.498 988.795 249.571 990.127L247.388 991.977C246.648 991.015 245.427 990.534 243.762 990.534C240.913 990.534 239.026 992.347 239.026 995.27V1003.26H246.241Z" fill="#F5F4F0"/>
<path d="M271.461 1006H267.613L261.175 997.083L257.475 1000.3C257.475 1002.74 257.475 1004.63 257.512 1006H254.552C254.589 1004.22 254.589 1000.08 254.589 993.605C254.589 987.13 254.589 982.986 254.552 981.21H257.512C257.475 982.986 257.475 988.092 257.475 996.565L267.132 988.24H271.313L263.432 995.122L271.461 1006Z" fill="#F5F4F0"/>
<path d="M286.283 1007.7C286.283 1008.89 285.765 1009.96 284.766 1010.96C283.767 1011.96 282.694 1012.44 281.473 1012.44V1010C282.657 1010 283.841 1008.85 283.841 1007.66C283.841 1007.11 283.73 1006.67 283.508 1006.33C281.214 1006.07 279.327 1005.11 277.884 1003.45C276.441 1001.74 275.701 999.636 275.701 997.12C275.701 994.419 276.552 992.236 278.217 990.497C279.882 988.758 281.991 987.87 284.544 987.87C286.653 987.87 288.466 988.462 290.02 989.683C291.574 990.904 292.61 992.495 293.091 994.493L290.353 995.381C289.724 992.606 287.43 990.793 284.581 990.793C282.842 990.793 281.436 991.385 280.289 992.606C279.142 993.79 278.587 995.307 278.587 997.12C278.587 998.933 279.142 1000.45 280.289 1001.67C281.436 1002.85 282.842 1003.45 284.581 1003.45C287.06 1003.45 289.132 1002 290.02 999.673L292.721 1000.89C291.648 1003.74 289.169 1005.7 286.061 1006.26C286.209 1006.7 286.283 1007.18 286.283 1007.7Z" fill="#F5F4F0"/>
<path d="M300.181 995.825H311.873C311.466 992.569 309.32 990.534 306.101 990.534C302.882 990.534 300.662 992.569 300.181 995.825ZM312.169 1000.82L314.5 1002.26C312.983 1004.89 310.023 1006.37 306.582 1006.37C303.955 1006.37 301.735 1005.52 299.996 1003.78C298.257 1002.04 297.369 999.821 297.369 997.12C297.369 994.419 298.22 992.199 299.885 990.46C301.587 988.721 303.733 987.87 306.36 987.87C308.802 987.87 310.8 988.684 312.391 990.275C313.982 991.866 314.796 993.975 314.796 996.602C314.796 997.305 314.759 997.934 314.648 998.526H300.218C300.773 1001.74 303.215 1003.71 306.619 1003.71C308.95 1003.71 311.17 1002.56 312.169 1000.82Z" fill="#F5F4F0"/>
<rect x="162" y="1003" width="1186" height="21" fill="#222222"/>
<rect opacity="0.7" x="656" y="241" width="356" height="154" stroke="white" stroke-width="2"/>
<path d="M845.676 577.146L824.456 589.397V564.895L845.676 577.146Z" fill="#D9D9D9"/>
<path d="M1063.58 401.357C1063.45 400.054 1064.93 399.214 1065.98 399.995L1087.72 416.145C1088.87 417.002 1088.28 418.833 1086.85 418.859L1076.86 419.044C1076.37 419.053 1075.92 419.298 1075.65 419.701L1069.11 429.283C1068.32 430.443 1066.52 429.985 1066.37 428.588L1063.58 401.357Z" fill="white"/>
<path d="M94.581 633.357C94.4474 632.054 95.9257 631.214 96.977 631.995L118.715 648.145C119.869 649.002 119.282 650.833 117.845 650.859L107.862 651.044C107.374 651.053 106.921 651.298 106.646 651.701L100.115 661.283C99.324 662.443 97.5157 661.985 97.3725 660.588L94.581 633.357Z" fill="#575757"/>
<path d="M948.066 576.753L922.852 586.831V566.675L948.066 576.753Z" fill="#D9D9D9"/>
<rect x="914.447" y="566.174" width="4.23171" height="21.1585" fill="#D9D9D9"/>
<path d="M714.996 576.753L740.21 586.831V566.675L714.996 576.753Z" fill="#D9D9D9"/>
<rect width="4.23171" height="21.1585" transform="matrix(-1 0 0 1 748.615 566.174)" fill="#D9D9D9"/>
<rect x="73" y="166" width="243" height="413" fill="#404B6E"/>
<path d="M76 338.652V425.243L78.6256 346.935L79.9385 404.16L81.2513 273.897L83.2205 502.045L87.8154 202.366V547.223L91.0974 293.474L94.3795 468.162L95.6923 250.555L98.3179 478.704L100.287 255.073L103.569 514.093V271.638L106.195 425.243L108.164 338.652L110.133 422.984L112.103 277.662V478.704L114.728 353.711L117.354 408.678L119.979 202.366V474.939L122.605 334.887L124.574 406.419L126.544 346.935L129.169 452.35V338.652L131.795 422.984V268.626L137.046 404.16V332.628L140.328 455.362V330.37L146.892 452.35V265.615L152.144 554L156.082 173L161.333 464.397L163.303 330.37L165.272 447.079L167.241 314.557L169.21 519.364L176.431 233.237V439.549L180.369 350.7L181.682 425.243L188.903 209.142V496.022L191.528 346.935C192.841 361.743 195.467 391.661 195.467 392.866C195.467 394.07 196.342 298.494 196.779 250.555L204 528.399V277.662" stroke="#365BCD" stroke-width="5"/>
<path d="M313 412.348V325.757L310.764 404.065L309.646 346.84L308.528 477.103L306.851 248.955L302.938 548.634V203.777L300.144 457.526L297.349 282.838L296.231 500.445L293.995 272.296L292.318 495.927L289.523 236.907V479.362L287.287 325.757L285.61 412.348L283.933 328.016L282.256 473.338V272.296L280.021 397.289L277.785 342.322L275.549 548.634V276.061L273.313 416.113L271.636 344.581L269.959 404.065L267.723 298.65V412.348L265.487 328.016V482.374L261.015 346.84V418.372L258.221 295.638V420.63L252.631 298.65V485.385L248.159 197L244.805 578L240.333 286.603L238.656 420.63L236.979 303.921L235.303 436.443L233.626 231.636L230.551 374.7L227.477 517.763V311.451L224.123 400.3L223.005 325.757L216.856 541.858V254.978L214.621 404.065C213.503 389.257 211.267 359.339 211.267 358.134C211.267 356.93 210.521 452.506 210.149 500.445L204 222.601V473.338" stroke="#365BCD" stroke-width="5"/>
<rect x="345" y="84" width="180" height="22" fill="#141414"/>
<rect x="634" y="90" width="180" height="16" fill="#141414"/>
<rect x="817" y="71" width="85" height="35" fill="#141414"/>
<rect x="905" y="90" width="180" height="16" fill="#141414"/>
<rect x="634" y="71" width="180" height="16" fill="#141414"/>
<rect x="905" y="71" width="180" height="16" fill="#141414"/>
<path d="M162 718H648C651.866 718 655 721.134 655 725V771C655 774.866 651.866 778 648 778H162V718Z" fill="#CD9136"/>
<path d="M567.5 638V1003" stroke="#365BCD" stroke-width="3"/>
<rect x="99.2109" y="691" width="31.0274" height="21.6807" rx="2" transform="rotate(34.2814 99.2109 691)" fill="#575757"/>
<rect x="100.18" y="702.946" width="16.7216" height="4.1157" rx="2" transform="rotate(34.2814 100.18 702.946)" fill="#222222"/>
<path d="M116.975 764.75V768.08H107.3V794H103.7V768.08H94.025V764.75H116.975Z" fill="#365BCD"/>
<path d="M183 615H185V633H183V615Z" fill="#575757"/>
<path d="M183 616H185V634H183V616Z" fill="#575757"/>
<path d="M215 616H217V634H215V616Z" fill="#575757"/>
<path d="M247 616H249V634H247V616Z" fill="#575757"/>
<path d="M279 616H281V634H279V616Z" fill="#575757"/>
<path d="M311 616H313V634H311V616Z" fill="#575757"/>
<path d="M343 616H345V634H343V616Z" fill="#575757"/>
<path d="M375 616H377V634H375V616Z" fill="#575757"/>
<path d="M407 616H409V634H407V616Z" fill="#575757"/>
<path d="M439 616H441V634H439V616Z" fill="#575757"/>
<path d="M471 616H473V634H471V616Z" fill="#575757"/>
<path d="M503 616H505V634H503V616Z" fill="#575757"/>
<path d="M535 616H537V634H535V616Z" fill="#575757"/>
<path d="M564 616H566V634H564V616Z" fill="#575757"/>
<path d="M599 616H601V634H599V616Z" fill="#575757"/>
<path d="M631 616H633V634H631V616Z" fill="#575757"/>
<path d="M663 616H665V634H663V616Z" fill="#575757"/>
<path d="M695 616H697V634H695V616Z" fill="#575757"/>
<path d="M727 616H729V634H727V616Z" fill="#575757"/>
<path d="M759 616H761V634H759V616Z" fill="#575757"/>
<path d="M791 616H793V634H791V616Z" fill="#575757"/>
<path d="M823 616H825V634H823V616Z" fill="#575757"/>
<path d="M855 616H857V634H855V616Z" fill="#575757"/>
<path d="M887 616H889V634H887V616Z" fill="#575757"/>
<path d="M919 616H921V634H919V616Z" fill="#575757"/>
<path d="M951 616H953V634H951V616Z" fill="#575757"/>
<path d="M983 616H985V634H983V616Z" fill="#575757"/>
<path d="M1015 616H1017V634H1015V616Z" fill="#575757"/>
<path d="M1047 616H1049V634H1047V616Z" fill="#575757"/>
<path d="M1079 616H1081V634H1079V616Z" fill="#575757"/>
<path d="M1111 616H1113V634H1111V616Z" fill="#575757"/>
<path d="M1143 616H1145V634H1143V616Z" fill="#575757"/>
<path d="M1175 616H1177V634H1175V616Z" fill="#575757"/>
<path d="M1207 616H1209V634H1207V616Z" fill="#575757"/>
<path d="M1239 616H1241V634H1239V616Z" fill="#575757"/>
<path d="M1271 616H1273V634H1271V616Z" fill="#575757"/>
<path d="M1303 616H1305V634H1303V616Z" fill="#575757"/>
</g>
<path d="M578 613H557V627.28L564 634H570.125L578 627.28V613Z" fill="#365BCD"/>
<path d="M745 522H733V536.28L737 543H740.5L745 536.28V522Z" fill="#365BCD"/>
<defs>
<clipPath id="clip0_439_12">
<rect x="-521" y="48" width="1854" height="985" rx="8" fill="white"/>
</clipPath>
</defs>
</svg>
