<svg width="100" height="100" viewBox="0 0 100 100" fill="none" xmlns="http://www.w3.org/2000/svg">
<rect width="100" height="100" rx="50" fill="#365BCD"/>
<path d="M53.056 46.88H69.592C69.592 37.104 66.992 32.216 61.792 32.216C56.488 32.216 53.576 37.104 53.056 46.88ZM38.08 67.264C42.968 67.264 45.36 61.544 45.36 50C45.36 38.456 42.968 32.632 38.08 32.632C33.088 32.632 30.592 38.456 30.592 50C30.592 61.544 33.088 67.264 38.08 67.264ZM70.32 60.4L76.872 64.456C74.688 72.152 69.904 76 62.416 76C56.488 76 52.12 73.088 49.312 67.264C46.92 73.088 43.176 76 37.976 76C28.304 76 23 66.952 23 50C23 33.048 28.304 24 37.976 24C43.072 24 46.92 26.912 49.312 32.632C51.912 26.912 56.28 24 62.208 24C71.88 24 76.976 31.384 76.976 45.424C76.976 48.648 76.768 51.456 76.248 53.952H53.056C53.784 63.416 57.008 68.096 62.52 68.096C66.576 68.096 69.176 65.496 70.32 60.4Z" fill="#F5F4F0"/>
</svg>
