<svg width="584" height="1562" viewBox="0 0 584 1562" fill="none" xmlns="http://www.w3.org/2000/svg">
<path d="M1177.15 692.457V129.241L1269 88.2598V636.018L1177.15 692.457Z" fill="#C5C5C8"/>
<path d="M1010.48 1562L1056.71 829.048L1095.67 211.334L1177.15 129.241V692.457L1269 636.018V88.2598L1010.48 32.7184L1013.29 81.0657L1017.94 161.131L1020.4 203.58L1025.55 292.325L1030.75 381.921L1050.11 715.4L1056.71 829.048L1095.67 1500.18L1010.48 1562Z" fill="#C5C5C8"/>
<path d="M125.816 1104.14V1212.73L73.1669 1277.6V1096.22L125.816 1104.14Z" fill="#C5C5C8"/>
<path d="M1010.48 1562L73.1669 1379.72V1277.6L125.816 1288.17L956.589 1462.5V1383.26L1025.55 890.792L1037.1 808.295L1040.8 781.88L1050.11 715.4L1056.71 829.048L1010.48 1562Z" fill="#C5C5C8"/>
<path d="M0 1365.49V1186.91L41.0354 1195.33L73.1669 1277.6V1379.72L0 1365.49Z" fill="#C5C5C8"/>
<path d="M956.589 1383.26L125.816 1212.73V1104.14L73.1669 1096.22V715.4L1025.55 890.792L956.589 1383.26Z" fill="#181C2C"/>
<path d="M125.816 375.091V268.475L1030.75 381.921L1050.11 715.4L73.1669 555.593V368.928L125.816 375.091Z" fill="#181C2C"/>
<path d="M1017.94 161.131L161.432 90.6911L422.742 26.9972H451.002L1013.29 81.0657L1017.94 161.131Z" fill="#404559"/>
<path fill-rule="evenodd" clip-rule="evenodd" d="M956.589 1383.26L125.816 1212.73V1288.17L956.589 1462.5V1383.26Z" fill="#E8E8E8"/>
<path d="M73.1669 1277.6L125.816 1212.73V1288.17L73.1669 1277.6Z" fill="#C5C5C8"/>
<path d="M73.1669 1096.22V1277.6L41.0354 1195.33V1092.7L73.1669 1096.22Z" fill="#C5C5C8"/>
<path fill-rule="evenodd" clip-rule="evenodd" d="M41.0354 1092.7V365.406L73.1669 368.928V555.593V605.781V632.196V715.4V1096.22L41.0354 1092.7Z" fill="#E8E8E8"/>
<path d="M41.0354 257.847L73.1669 261.875V368.928L41.0354 365.406V257.847Z" fill="#C5C5C8"/>
<path fill-rule="evenodd" clip-rule="evenodd" d="M0 98.4642L73.1669 106.001L1020.4 203.58L1095.67 211.334L1056.71 829.048L1050.11 715.4L1040.8 781.88L1037.1 808.295L1025.55 890.792L73.1669 715.4V632.196V605.781V555.593L1050.11 715.4L1030.75 381.921L1025.55 292.325L125.816 194.17V268.475V375.091L73.1669 368.928V261.875L41.0354 257.847V365.406V1092.7V1195.33L0 1186.91V252.702V98.4642Z" fill="#C5C5C8"/>
<path d="M1030.75 381.921L125.816 268.475V194.17L1025.55 292.325L1030.75 381.921Z" fill="#E8E8E8"/>
<path fill-rule="evenodd" clip-rule="evenodd" d="M425.395 0L500.554 4.20298L1010.48 32.7184L1013.29 81.0657L451.002 26.9972H422.742L161.432 90.6911L73.1669 81.7496L181.589 56.9812L284.041 32.7184L425.395 0Z" fill="#999999"/>
<path d="M1020.4 203.58L73.1669 106.001L0 98.4642L73.1669 81.7496L161.432 90.6911L1017.94 161.131L1020.4 203.58Z" fill="#999999"/>
<g clip-path="url(#clip0_424_5)">
<rect width="318.216" height="178.997" transform="translate(436.59 399) rotate(0.828775)" fill="white"/>
<path d="M433.828 463.506L448.114 463.713C448.236 455.267 446.051 451.012 441.559 450.947C436.977 450.881 434.4 455.067 433.828 463.506ZM420.636 480.929C424.858 480.99 426.996 476.079 427.141 466.106C427.285 456.132 425.291 451.071 421.068 451.01C416.756 450.948 414.527 455.948 414.382 465.921C414.238 475.894 416.323 480.867 420.636 480.929ZM448.574 475.402L454.184 478.988C452.201 485.61 448.02 488.874 441.551 488.781C436.429 488.706 432.692 486.136 430.339 481.07C428.2 486.071 424.929 488.54 420.437 488.475C412.081 488.354 407.612 480.471 407.824 465.826C408.035 451.181 412.731 443.431 421.086 443.551C425.489 443.615 428.777 446.179 430.772 451.15C433.09 446.241 436.9 443.78 442.021 443.854C450.377 443.975 454.687 450.418 454.511 462.547C454.471 465.333 454.256 467.756 453.776 469.906L433.74 469.616C434.251 477.801 436.977 481.885 441.739 481.953C445.243 482.004 447.522 479.79 448.574 475.402Z" fill="black"/>
<path d="M429.176 418.663L414.89 418.456C415.012 410.01 417.32 405.82 421.812 405.885C426.394 405.951 428.849 410.211 429.176 418.663ZM441.859 436.46C437.636 436.399 435.641 431.427 435.786 421.454C435.93 411.481 438.069 406.48 442.292 406.541C446.605 406.603 448.688 411.666 448.544 421.639C448.4 431.612 446.172 436.522 441.859 436.46ZM414.092 430.127L408.381 433.549C410.172 440.225 414.257 443.609 420.726 443.703C425.847 443.777 429.657 441.316 432.156 436.32C434.149 441.381 437.347 443.944 441.84 444.009C450.196 444.129 454.891 436.379 455.103 421.734C455.315 407.089 450.846 399.206 442.49 399.085C438.087 399.021 434.726 401.489 432.588 406.4C430.414 401.426 426.677 398.856 421.555 398.782C413.199 398.661 408.705 404.977 408.529 417.106C408.489 419.891 408.634 422.32 409.052 424.483L429.088 424.772C428.34 432.939 425.497 436.942 420.735 436.873C417.231 436.823 415.017 434.544 414.092 430.127Z" fill="black"/>
<path d="M432.532 553.039L446.817 553.246C446.939 544.8 444.754 540.545 440.262 540.48C435.68 540.413 433.103 544.6 432.532 553.039ZM419.339 570.462C423.562 570.523 425.7 565.611 425.844 555.638C425.988 545.665 423.994 540.604 419.772 540.543C415.459 540.48 413.23 545.481 413.085 555.454C412.941 565.427 415.026 570.4 419.339 570.462ZM447.277 564.935L452.887 568.521C450.904 575.142 446.723 578.407 440.254 578.313C435.133 578.239 431.395 575.669 429.042 570.602C426.903 575.604 423.632 578.073 419.14 578.008C410.784 577.887 406.315 570.004 406.527 555.359C406.738 540.714 411.434 532.963 419.79 533.084C424.192 533.148 427.48 535.712 429.475 540.683C431.793 535.774 435.603 533.313 440.724 533.387C449.08 533.508 453.39 539.951 453.215 552.08C453.174 554.865 452.96 557.289 452.479 559.438L432.443 559.149C432.954 567.334 435.681 571.417 440.442 571.486C443.947 571.537 446.225 569.323 447.277 564.935Z" fill="black"/>
<path d="M427.877 508.196L413.591 507.99C413.714 499.544 416.021 495.354 420.513 495.419C425.095 495.485 427.55 499.744 427.877 508.196ZM440.56 525.994C436.338 525.933 434.343 520.961 434.487 510.988C434.631 501.015 436.77 496.013 440.993 496.075C445.306 496.137 447.389 501.2 447.245 511.173C447.101 521.146 444.873 526.056 440.56 525.994ZM412.793 519.661L407.082 523.083C408.873 529.759 412.958 533.143 419.427 533.237C424.548 533.311 428.358 530.85 430.857 525.853C432.851 530.915 436.049 533.477 440.541 533.542C448.897 533.663 453.592 525.913 453.804 511.268C454.016 496.622 449.547 488.739 441.191 488.619C436.788 488.555 433.428 491.022 431.29 495.934C429.115 490.96 425.378 488.39 420.256 488.316C411.901 488.195 407.406 494.51 407.23 506.64C407.19 509.425 407.335 511.853 407.753 514.016L427.789 514.306C427.041 522.473 424.198 526.476 419.436 526.407C415.932 526.356 413.718 524.078 412.793 519.661Z" fill="black"/>
<path d="M426.586 597.728L412.3 597.522C412.422 589.076 414.73 584.886 419.222 584.951C423.804 585.017 426.259 589.276 426.586 597.728ZM439.269 615.525C435.047 615.464 433.052 610.493 433.196 600.52C433.34 590.547 435.479 585.545 439.702 585.606C444.015 585.669 446.098 590.731 445.954 600.704C445.81 610.677 443.582 615.588 439.269 615.525ZM411.502 609.193L405.791 612.615C407.582 619.291 411.667 622.675 418.136 622.769C423.257 622.843 427.067 620.381 429.566 615.385C431.56 620.446 434.758 623.009 439.25 623.074C447.606 623.195 452.301 615.444 452.513 600.799C452.725 586.154 448.256 578.271 439.9 578.15C435.497 578.087 432.137 580.554 429.999 585.466C427.824 580.492 424.087 577.921 418.965 577.847C410.61 577.727 406.115 584.042 405.939 596.171C405.899 598.957 406.044 601.385 406.462 603.548L426.498 603.838C425.75 612.005 422.907 616.008 418.145 615.939C414.641 615.888 412.427 613.609 411.502 609.193Z" fill="black"/>
<path d="M478.348 598.477L492.634 598.683C492.756 590.238 490.571 585.982 486.078 585.917C481.496 585.851 478.919 590.037 478.348 598.477ZM465.155 615.899C469.378 615.961 471.516 611.049 471.66 601.076C471.804 591.103 469.811 586.041 465.588 585.98C461.275 585.918 459.046 590.918 458.902 600.891C458.758 610.864 460.842 615.837 465.155 615.899ZM493.094 610.372L498.703 613.958C496.72 620.58 492.539 623.844 486.07 623.751C480.949 623.677 477.212 621.106 474.859 616.04C472.719 621.041 469.449 623.51 464.956 623.445C456.6 623.324 452.131 615.441 452.343 600.796C452.555 586.151 457.25 578.401 465.606 578.522C470.009 578.585 473.296 581.149 475.291 586.121C477.609 581.212 481.419 578.75 486.54 578.824C494.896 578.945 499.206 585.388 499.031 597.518C498.991 600.303 498.776 602.726 498.296 604.876L478.26 604.586C478.77 612.771 481.497 616.855 486.259 616.924C489.763 616.974 492.042 614.761 493.094 610.372Z" fill="black"/>
<path d="M519.508 599.072L505.222 598.865C505.344 590.42 507.652 586.229 512.144 586.294C516.726 586.361 519.181 590.62 519.508 599.072ZM532.191 616.869C527.968 616.808 525.973 611.837 526.118 601.864C526.262 591.891 528.401 586.889 532.624 586.95C536.937 587.012 539.02 592.075 538.876 602.048C538.732 612.021 536.504 616.932 532.191 616.869ZM504.424 610.536L498.713 613.959C500.504 620.635 504.589 624.019 511.058 624.112C516.179 624.186 519.989 621.725 522.488 616.729C524.481 621.79 527.68 624.353 532.172 624.418C540.528 624.539 545.223 616.788 545.435 602.143C545.647 587.498 541.178 579.615 532.822 579.494C528.419 579.43 525.058 581.898 522.921 586.81C520.746 581.836 517.009 579.265 511.887 579.191C503.531 579.07 499.037 585.386 498.861 597.515C498.821 600.3 498.966 602.729 499.384 604.892L519.42 605.182C518.672 613.349 515.829 617.351 511.067 617.283C507.563 617.232 505.349 614.953 504.424 610.536Z" fill="black"/>
<path d="M479.641 508.944L493.927 509.151C494.049 500.705 491.864 496.45 487.371 496.385C482.789 496.319 480.212 500.505 479.641 508.944ZM466.448 526.367C470.671 526.428 472.809 521.517 472.953 511.544C473.097 501.57 471.104 496.509 466.881 496.448C462.568 496.386 460.339 501.386 460.195 511.359C460.051 521.332 462.135 526.305 466.448 526.367ZM494.387 520.84L499.996 524.426C498.013 531.048 493.832 534.312 487.363 534.219C482.242 534.144 478.505 531.574 476.152 526.508C474.012 531.509 470.741 533.978 466.249 533.913C457.893 533.792 453.424 525.909 453.636 511.264C453.848 496.619 458.543 488.869 466.899 488.989C471.301 489.053 474.589 491.617 476.584 496.588C478.902 491.679 482.712 489.218 487.833 489.292C496.189 489.413 500.499 495.856 500.324 507.985C500.284 510.771 500.069 513.194 499.588 515.344L479.552 515.054C480.063 523.239 482.79 527.323 487.552 527.391C491.056 527.442 493.335 525.228 494.387 520.84Z" fill="black"/>
<path d="M525.455 554.383L539.741 554.589C539.863 546.144 537.678 541.888 533.186 541.823C528.604 541.757 526.027 545.944 525.455 554.383ZM512.263 571.806C516.485 571.867 518.623 566.955 518.768 556.982C518.912 547.009 516.918 541.948 512.695 541.887C508.383 541.824 506.154 546.824 506.009 556.797C505.865 566.771 507.95 571.743 512.263 571.806ZM540.201 566.279L545.811 569.865C543.828 576.486 539.647 579.751 533.178 579.657C528.056 579.583 524.319 577.013 521.966 571.946C519.827 576.948 516.556 579.417 512.064 579.352C503.708 579.231 499.239 571.348 499.45 556.703C499.662 542.057 504.358 534.307 512.713 534.428C517.116 534.492 520.404 537.055 522.399 542.027C524.717 537.118 528.527 534.657 533.648 534.731C542.004 534.852 546.314 541.294 546.138 553.424C546.098 556.209 545.883 558.632 545.403 560.782L525.367 560.492C525.878 568.678 528.604 572.761 533.366 572.83C536.87 572.881 539.149 570.667 540.201 566.279Z" fill="black"/>
<path d="M473.693 553.634L459.408 553.427C459.53 544.982 461.837 540.791 466.33 540.856C470.912 540.923 473.366 545.182 473.693 553.634ZM486.377 571.431C482.154 571.37 480.159 566.399 480.303 556.426C480.447 546.453 482.587 541.451 486.81 541.512C491.122 541.574 493.206 546.637 493.062 556.61C492.917 566.583 490.689 571.494 486.377 571.431ZM458.61 565.098L452.899 568.521C454.689 575.197 458.774 578.581 465.243 578.674C470.365 578.748 474.175 576.287 476.673 571.291C478.667 576.352 481.865 578.915 486.357 578.98C494.713 579.101 499.409 571.35 499.62 556.705C499.832 542.06 495.363 534.177 487.007 534.056C482.605 533.992 479.244 536.46 477.106 541.372C474.931 536.398 471.194 533.827 466.073 533.753C457.717 533.632 453.222 539.948 453.047 552.077C453.006 554.862 453.151 557.291 453.569 559.454L473.605 559.744C472.858 567.911 470.014 571.913 465.252 571.845C461.748 571.794 459.534 569.515 458.61 565.098Z" fill="black"/>
<path d="M520.803 509.54L506.517 509.333C506.639 500.887 508.947 496.697 513.439 496.762C518.021 496.828 520.476 501.088 520.803 509.54ZM533.486 527.337C529.263 527.276 527.268 522.304 527.413 512.331C527.557 502.358 529.696 497.357 533.919 497.418C538.232 497.48 540.315 502.543 540.171 512.516C540.027 522.489 537.799 527.399 533.486 527.337ZM505.719 521.004L500.008 524.426C501.799 531.102 505.884 534.486 512.353 534.58C517.474 534.654 521.284 532.193 523.783 527.197C525.776 532.258 528.974 534.82 533.467 534.885C541.823 535.006 546.518 527.256 546.73 512.611C546.942 497.966 542.472 490.083 534.117 489.962C529.714 489.898 526.353 492.366 524.215 497.277C522.041 492.303 518.304 489.733 513.182 489.659C504.826 489.538 500.332 495.854 500.156 507.983C500.116 510.768 500.26 513.197 500.679 515.36L520.714 515.649C519.967 523.816 517.124 527.819 512.362 527.75C508.858 527.7 506.644 525.421 505.719 521.004Z" fill="black"/>
<path d="M480.936 419.412L495.222 419.619C495.344 411.173 493.159 406.918 488.666 406.853C484.084 406.786 481.507 410.973 480.936 419.412ZM467.743 436.835C471.966 436.896 474.104 431.984 474.248 422.011C474.392 412.038 472.399 406.977 468.176 406.916C463.863 406.853 461.634 411.854 461.49 421.827C461.346 431.8 463.43 436.773 467.743 436.835ZM495.682 431.308L501.291 434.894C499.308 441.515 495.127 444.78 488.658 444.686C483.537 444.612 479.8 442.042 477.447 436.975C475.307 441.977 472.036 444.446 467.544 444.381C459.188 444.26 454.719 436.377 454.931 421.732C455.143 407.087 459.838 399.336 468.194 399.457C472.596 399.521 475.884 402.085 477.879 407.056C480.197 402.147 484.007 399.686 489.128 399.76C497.484 399.881 501.794 406.324 501.619 418.453C501.579 421.238 501.364 423.662 500.883 425.812L480.847 425.522C481.358 433.707 484.085 437.79 488.847 437.859C492.351 437.91 494.63 435.696 495.682 431.308Z" fill="black"/>
<path d="M526.752 464.851L541.038 465.057C541.16 456.612 538.975 452.356 534.483 452.291C529.9 452.225 527.324 456.411 526.752 464.851ZM513.559 482.273C517.782 482.335 519.92 477.423 520.065 467.45C520.209 457.477 518.215 452.415 513.992 452.354C509.68 452.292 507.45 457.292 507.306 467.265C507.162 477.238 509.247 482.211 513.559 482.273ZM541.498 476.746L547.108 480.332C545.125 486.954 540.944 490.218 534.475 490.125C529.353 490.051 525.616 487.48 523.263 482.414C521.124 487.415 517.853 489.884 513.36 489.819C505.005 489.698 500.535 481.815 500.747 467.17C500.959 452.525 505.654 444.775 514.01 444.896C518.413 444.959 521.701 447.523 523.696 452.495C526.013 447.586 529.823 445.124 534.945 445.198C543.301 445.319 547.611 451.762 547.435 463.892C547.395 466.677 547.18 469.1 546.7 471.25L526.664 470.96C527.174 479.145 529.901 483.229 534.663 483.298C538.167 483.348 540.446 481.135 541.498 476.746Z" fill="black"/>
<path d="M474.988 464.102L460.703 463.895C460.825 455.449 463.132 451.259 467.624 451.324C472.207 451.39 474.661 455.65 474.988 464.102ZM487.672 481.899C483.449 481.838 481.454 476.866 481.598 466.893C481.742 456.92 483.882 451.919 488.104 451.98C492.417 452.042 494.501 457.105 494.356 467.078C494.212 477.051 491.984 481.961 487.672 481.899ZM459.905 475.566L454.194 478.988C455.984 485.664 460.069 489.048 466.538 489.142C471.66 489.216 475.47 486.755 477.968 481.759C479.962 486.82 483.16 489.382 487.652 489.447C496.008 489.568 500.703 481.818 500.915 467.173C501.127 452.528 496.658 444.645 488.302 444.524C483.9 444.46 480.539 446.928 478.401 451.839C476.226 446.865 472.489 444.295 467.368 444.221C459.012 444.1 454.517 450.416 454.342 462.545C454.301 465.33 454.446 467.759 454.864 469.922L474.9 470.211C474.153 478.378 471.309 482.381 466.547 482.312C463.043 482.262 460.829 479.983 459.905 475.566Z" fill="black"/>
<path d="M522.098 420.008L507.812 419.801C507.934 411.355 510.241 407.165 514.734 407.23C519.316 407.296 521.771 411.555 522.098 420.008ZM534.781 437.805C530.558 437.744 528.563 432.772 528.707 422.799C528.852 412.826 530.991 407.824 535.214 407.886C539.527 407.948 541.61 413.011 541.466 422.984C541.322 432.957 539.094 437.867 534.781 437.805ZM507.014 431.472L501.303 434.894C503.094 441.57 507.179 444.954 513.648 445.048C518.769 445.122 522.579 442.661 525.078 437.664C527.071 442.726 530.269 445.288 534.762 445.353C543.118 445.474 547.813 437.724 548.025 423.079C548.237 408.433 543.767 400.55 535.412 400.43C531.009 400.366 527.648 402.833 525.51 407.745C523.336 402.771 519.598 400.201 514.477 400.127C506.121 400.006 501.627 406.321 501.451 418.451C501.411 421.236 501.555 423.664 501.973 425.827L522.009 426.117C521.262 434.284 518.418 438.287 513.657 438.218C510.152 438.167 507.939 435.889 507.014 431.472Z" fill="black"/>
<path d="M573.862 420.756L588.147 420.963C588.27 412.517 586.084 408.262 581.592 408.197C577.01 408.131 574.433 412.317 573.862 420.756ZM560.669 438.179C564.892 438.24 567.03 433.329 567.174 423.356C567.318 413.382 565.324 408.321 561.102 408.26C556.789 408.198 554.56 413.198 554.416 423.171C554.271 433.144 556.356 438.117 560.669 438.179ZM588.607 432.652L594.217 436.238C592.234 442.86 588.053 446.124 581.584 446.031C576.463 445.956 572.725 443.386 570.372 438.32C568.233 443.321 564.962 445.79 560.47 445.725C552.114 445.604 547.645 437.721 547.857 423.076C548.069 408.431 552.764 400.681 561.12 400.801C565.522 400.865 568.81 403.429 570.805 408.4C573.123 403.491 576.933 401.03 582.054 401.104C590.41 401.225 594.72 407.668 594.545 419.797C594.504 422.583 594.29 425.006 593.809 427.156L573.773 426.866C574.284 435.051 577.011 439.135 581.773 439.203C585.277 439.254 587.555 437.04 588.607 432.652Z" fill="black"/>
<path d="M567.912 465.446L553.626 465.24C553.749 456.794 556.056 452.604 560.548 452.669C565.131 452.735 567.585 456.994 567.912 465.446ZM580.596 483.244C576.373 483.183 574.378 478.211 574.522 468.238C574.666 458.265 576.805 453.263 581.028 453.325C585.341 453.387 587.425 458.45 587.28 468.423C587.136 478.396 584.908 483.306 580.596 483.244ZM552.829 476.911L547.118 480.333C548.908 487.009 552.993 490.393 559.462 490.487C564.583 490.561 568.393 488.1 570.892 483.103C572.886 488.165 576.084 490.727 580.576 490.792C588.932 490.913 593.627 483.163 593.839 468.518C594.051 453.872 589.582 445.989 581.226 445.869C576.824 445.805 573.463 448.272 571.325 453.184C569.15 448.21 565.413 445.64 560.292 445.566C551.936 445.445 547.441 451.76 547.266 463.89C547.225 466.675 547.37 469.103 547.788 471.266L567.824 471.556C567.077 479.723 564.233 483.726 559.471 483.657C555.967 483.606 553.753 481.328 552.829 476.911Z" fill="black"/>
<path d="M572.567 510.289L586.852 510.496C586.975 502.05 584.789 497.795 580.297 497.73C575.715 497.663 573.138 501.85 572.567 510.289ZM559.374 527.712C563.597 527.773 565.735 522.861 565.879 512.888C566.023 502.915 564.03 497.854 559.807 497.793C555.494 497.73 553.265 502.731 553.121 512.704C552.976 522.677 555.061 527.65 559.374 527.712ZM587.312 522.185L592.922 525.771C590.939 532.392 586.758 535.657 580.289 535.563C575.168 535.489 571.431 532.919 569.077 527.852C566.938 532.854 563.667 535.323 559.175 535.258C550.819 535.137 546.35 527.254 546.562 512.609C546.774 497.964 551.469 490.213 559.825 490.334C564.227 490.398 567.515 492.962 569.51 497.933C571.828 493.024 575.638 490.563 580.759 490.637C589.115 490.758 593.425 497.201 593.25 509.33C593.209 512.115 592.995 514.539 592.514 516.688L572.478 516.399C572.989 524.584 575.716 528.667 580.478 528.736C583.982 528.787 586.26 526.573 587.312 522.185Z" fill="black"/>
<path d="M566.617 554.979L552.332 554.772C552.454 546.326 554.761 542.136 559.253 542.201C563.836 542.267 566.29 546.527 566.617 554.979ZM579.301 572.776C575.078 572.715 573.083 567.743 573.227 557.77C573.371 547.797 575.511 542.796 579.733 542.857C584.046 542.919 586.13 547.982 585.985 557.955C585.841 567.928 583.613 572.838 579.301 572.776ZM551.534 566.443L545.823 569.865C547.613 576.541 551.698 579.925 558.167 580.019C563.288 580.093 567.098 577.632 569.597 572.636C571.591 577.697 574.789 580.259 579.281 580.324C587.637 580.445 592.332 572.695 592.544 558.05C592.756 543.405 588.287 535.522 579.931 535.401C575.529 535.337 572.168 537.805 570.03 542.716C567.855 537.742 564.118 535.172 558.997 535.098C550.641 534.977 546.146 541.293 545.971 553.422C545.93 556.207 546.075 558.636 546.493 560.798L566.529 561.088C565.782 569.255 562.938 573.258 558.176 573.189C554.672 573.139 552.458 570.86 551.534 566.443Z" fill="black"/>
<path d="M571.272 599.822L585.557 600.028C585.68 591.583 583.495 587.327 579.002 587.262C574.42 587.196 571.843 591.383 571.272 599.822ZM558.079 617.245C562.302 617.306 564.44 612.394 564.584 602.421C564.728 592.448 562.735 587.387 558.512 587.325C554.199 587.263 551.97 592.263 551.826 602.236C551.681 612.209 553.766 617.182 558.079 617.245ZM586.017 611.718L591.627 615.304C589.644 621.925 585.463 625.19 578.994 625.096C573.873 625.022 570.136 622.452 567.782 617.385C565.643 622.387 562.372 624.856 557.88 624.791C549.524 624.67 545.055 616.787 545.267 602.142C545.479 587.496 550.174 579.746 558.53 579.867C562.932 579.931 566.22 582.494 568.215 587.466C570.533 582.557 574.343 580.096 579.464 580.17C587.82 580.291 592.13 586.733 591.955 598.863C591.915 601.648 591.7 604.071 591.219 606.221L571.183 605.931C571.694 614.117 574.421 618.2 579.183 618.269C582.687 618.32 584.965 616.106 586.017 611.718Z" fill="black"/>
</g>
<path d="M121 824.289L340.324 814L343.919 890.626L124.595 900.914L121 824.289Z" fill="#365BCD"/>
<path d="M121 824.289L120.809 820.22L117.152 820.391L116.934 824.046L121 824.289ZM121.1 824.284L121.291 828.353L121.362 828.35L121.432 828.344L121.1 824.284ZM125.306 823.94L125.984 819.923L125.482 819.838L124.974 819.88L125.306 823.94ZM129.663 824.674L128.986 828.691L130.155 828.888L131.247 828.428L129.663 824.674ZM133.902 822.886L134.993 818.962L133.626 818.582L132.319 819.133L133.902 822.886ZM138.282 824.103L137.192 828.028L137.853 828.212L138.537 828.169L138.282 824.103ZM142.592 823.832L142.847 827.898L143.184 827.877L143.513 827.801L142.592 823.832ZM146.868 822.84L147.249 818.784L146.591 818.723L145.947 818.872L146.868 822.84ZM151.21 823.248L150.829 827.304L151.69 827.385L152.509 827.109L151.21 823.248ZM155.466 821.816L156.535 817.885L155.34 817.56L154.166 817.955L155.466 821.816ZM159.844 823.007L158.775 826.938L159.416 827.113L160.08 827.074L159.844 823.007ZM164.155 822.757L164.391 826.824L164.606 826.811L164.818 826.776L164.155 822.757ZM168.445 822.05L169.107 826.069L169.14 826.064L169.172 826.058L168.445 822.05ZM172.731 821.272L173.559 817.283L172.783 817.122L172.004 817.264L172.731 821.272ZM177.096 822.178L176.268 826.166L177.26 826.372L178.233 826.09L177.096 822.178ZM181.361 820.938L181.032 816.878L180.62 816.911L180.224 817.027L181.361 820.938ZM185.667 820.59L185.97 816.528L185.654 816.504L185.339 816.53L185.667 820.59ZM190.005 820.914L189.702 824.976L190.023 825L190.344 824.973L190.005 820.914ZM194.311 820.554L194.829 816.514L194.402 816.459L193.972 816.495L194.311 820.554ZM198.66 821.112L198.141 825.153L198.927 825.254L199.694 825.052L198.66 821.112ZM202.93 819.991L203.838 816.02L202.863 815.797L201.895 816.051L202.93 819.991ZM207.299 820.991L206.391 824.962L207.187 825.144L207.992 825.005L207.299 820.991ZM211.587 820.251L212.28 824.265L212.349 824.253L212.418 824.239L211.587 820.251ZM215.868 819.359L216.624 815.356L215.829 815.206L215.038 815.371L215.868 819.359ZM220.23 820.182L219.474 824.185L219.85 824.256L220.233 824.256L220.23 820.182ZM224.552 820.178L224.556 824.252L225.372 824.251L226.125 823.936L224.552 820.178ZM228.792 818.404L228.581 814.336L227.873 814.373L227.219 814.646L228.792 818.404ZM233.104 818.181L233.824 814.171L233.362 814.089L232.893 814.113L233.104 818.181ZM237.463 818.964L236.743 822.973L237.114 823.04L237.49 823.037L237.463 818.964ZM241.785 818.935L241.812 823.009L242.088 823.007L242.361 822.968L241.785 818.935ZM246.078 818.321L246.068 814.248L245.784 814.249L245.502 814.289L246.078 818.321ZM250.401 818.31L250.887 814.266L250.639 814.236L250.39 814.237L250.401 818.31ZM254.748 818.833L254.262 822.877L254.606 822.919L254.953 822.901L254.748 818.833ZM259.06 818.616L259.265 822.684L259.956 822.649L260.597 822.388L259.06 818.616ZM263.302 816.888L264.153 812.905L262.927 812.642L261.765 813.115L263.302 816.888ZM267.668 817.821L266.817 821.805L267.245 821.896L267.682 821.895L267.668 817.821ZM271.99 817.807L272.004 821.88L272.679 821.878L273.318 821.658L271.99 817.807ZM276.244 816.341L277.386 812.43L276.142 812.067L274.917 812.489L276.244 816.341ZM280.627 817.62L279.486 821.53L280.717 821.889L281.932 821.478L280.627 817.62ZM284.882 816.181L285.866 812.228L284.708 811.939L283.577 812.322L284.882 816.181ZM289.256 817.269L288.273 821.222L289.119 821.432L289.977 821.278L289.256 817.269ZM293.543 816.498L294.263 820.508L294.431 820.477L294.596 820.433L293.543 816.498ZM297.812 815.355L297.727 811.283L297.234 811.293L296.758 811.42L297.812 815.355ZM302.13 815.266L302.947 811.275L302.501 811.184L302.046 811.193L302.13 815.266ZM306.495 816.159L305.678 820.15L306.664 820.351L307.63 820.071L306.495 816.159ZM310.759 814.922L310.567 810.853L310.087 810.875L309.625 811.009L310.759 814.922ZM315.073 814.718L315.265 818.787L315.452 818.778L315.637 818.752L315.073 814.718ZM319.367 814.117L320.47 810.195L319.648 809.964L318.802 810.082L319.367 814.117ZM323.748 815.349L322.644 819.27L323.448 819.496L324.275 819.388L323.748 815.349ZM328.044 814.788L328.572 818.827L328.855 818.79L329.13 818.714L328.044 814.788ZM332.311 813.608L332.538 809.54L331.87 809.503L331.226 809.681L332.311 813.608ZM336.645 813.849L337.799 809.942L337.345 809.808L336.872 809.782L336.645 813.849ZM339.492 814.69L343.555 814.397L343.352 811.583L340.646 810.783L339.492 814.69ZM339.803 818.998L335.74 819.291L335.743 819.33L335.746 819.37L339.803 818.998ZM340.197 823.302L344.27 823.227L344.267 823.078L344.254 822.931L340.197 823.302ZM340.278 827.621L336.205 827.697L336.212 828.066L336.285 828.427L340.278 827.621ZM341.142 831.903L345.185 832.4L345.266 831.745L345.135 831.097L341.142 831.903ZM340.608 836.251L336.565 835.754L336.502 836.265L336.568 836.775L340.608 836.251ZM341.165 840.548L337.125 841.071L337.179 841.493L337.32 841.895L341.165 840.548ZM342.655 844.801L346.699 845.291L346.813 844.349L346.499 843.453L342.655 844.801ZM342.127 849.148L338.084 848.657L338.076 848.72L338.07 848.783L342.127 849.148ZM341.737 853.489L337.679 853.124L337.605 853.952L337.861 854.744L341.737 853.489ZM343.116 857.747L347.183 857.973L347.225 857.215L346.991 856.492L343.116 857.747ZM342.875 862.081L338.807 861.855L338.801 861.975L338.801 862.094L342.875 862.081ZM342.889 866.403L346.94 866.83L346.963 866.611L346.962 866.39L342.889 866.403ZM342.431 870.747L338.38 870.32L338.313 870.957L338.444 871.584L342.431 870.747ZM343.329 875.028L347.392 875.319L347.433 874.75L347.315 874.192L343.329 875.028ZM343.018 879.365L338.955 879.074L338.901 879.822L339.118 880.54L343.018 879.365ZM344.302 883.628L348.292 884.448L348.499 883.439L348.202 882.453L344.302 883.628ZM343.405 887.992L346.971 889.962L347.27 889.42L347.395 888.813L343.405 887.992ZM342.229 890.12L342.7 894.167L344.782 893.925L345.795 892.09L342.229 890.12ZM337.93 890.62L337.46 886.574L337.216 886.602L336.977 886.66L337.93 890.62ZM333.656 891.649L333.562 895.721L334.093 895.734L334.609 895.609L333.656 891.649ZM329.328 891.549L328.641 895.564L328.936 895.615L329.234 895.621L329.328 891.549ZM324.971 890.803L325.658 886.788L325.108 886.694L324.553 886.751L324.971 890.803ZM320.669 891.247L320.251 887.195L320.088 887.212L319.927 887.241L320.669 891.247ZM316.383 892.04L315.815 896.074L316.472 896.167L317.125 896.046L316.383 892.04ZM312.032 891.428L312.6 887.394L311.781 887.279L310.983 887.492L312.032 891.428ZM307.763 892.566L307.541 896.633L308.187 896.668L308.812 896.502L307.763 892.566ZM303.429 892.33L303.65 888.262L302.953 888.224L302.283 888.421L303.429 892.33ZM299.165 893.58L297.848 897.435L299.071 897.852L300.311 897.489L299.165 893.58ZM294.772 892.079L296.089 888.224L295.083 887.88L294.037 888.072L294.772 892.079ZM290.486 892.865L289.751 888.858L289.621 888.882L289.492 888.914L290.486 892.865ZM286.213 893.94L286.657 897.989L286.936 897.959L287.208 897.89L286.213 893.94ZM281.913 894.41L281.21 898.423L281.781 898.523L282.356 898.46L281.913 894.41ZM277.554 893.647L278.257 889.635L277.685 889.535L277.107 889.598L277.554 893.647ZM273.254 894.122L273.124 898.194L273.413 898.203L273.701 898.171L273.254 894.122ZM268.925 893.984L268.733 898.053L268.764 898.054L268.794 898.055L268.925 893.984ZM264.592 893.78L264.784 889.711L264.625 889.703L264.465 889.708L264.592 893.78ZM260.276 893.914L260.149 889.843L259.589 889.86L259.055 890.028L260.276 893.914ZM256.016 895.252L256.359 899.311L256.808 899.274L257.237 899.139L256.016 895.252ZM251.711 895.616L251.76 899.69L251.907 899.688L252.054 899.676L251.711 895.616ZM247.39 895.669L246.596 899.664L247.014 899.747L247.44 899.742L247.39 895.669ZM243.027 894.802L243.821 890.807L242.761 890.596L241.736 890.938L243.027 894.802ZM238.771 896.224L238.674 900.296L239.386 900.313L240.062 900.088L238.771 896.224ZM234.443 896.121L233.608 900.108L233.973 900.185L234.347 900.193L234.443 896.121ZM230.078 895.206L230.913 891.219L229.909 891.009L228.925 891.299L230.078 895.206ZM225.814 896.464L226.447 900.489L226.711 900.447L226.967 900.371L225.814 896.464ZM221.523 897.139L221.568 901.213L221.864 901.209L222.156 901.163L221.523 897.139ZM217.203 897.187L216.916 901.25L217.082 901.262L217.247 901.26L217.203 897.187ZM212.866 896.881L212.228 900.905L212.403 900.932L212.579 900.945L212.866 896.881ZM208.51 896.191L209.148 892.168L208.152 892.01L207.198 892.335L208.51 896.191ZM204.256 897.639L203.594 901.659L204.602 901.825L205.568 901.496L204.256 897.639ZM199.899 896.923L200.561 892.903L200.026 892.815L199.486 892.87L199.899 896.923ZM195.597 897.361L195.767 901.431L195.889 901.426L196.01 901.414L195.597 897.361ZM191.283 897.541L191.113 893.471L191.035 893.474L190.957 893.481L191.283 897.541ZM186.977 897.887L186.712 901.952L187.008 901.972L187.303 901.948L186.977 897.887ZM182.641 897.606L182.905 893.541L182.241 893.497L181.597 893.668L182.641 897.606ZM178.371 898.737L178.523 902.808L178.976 902.791L179.415 902.675L178.371 898.737ZM174.056 898.898L173.561 902.942L173.883 902.981L174.208 902.969L174.056 898.898ZM169.708 898.367L170.203 894.323L169.73 894.265L169.256 894.318L169.708 898.367ZM165.408 898.847L165.007 902.9L165.434 902.943L165.86 902.895L165.408 898.847ZM161.065 898.417L161.466 894.363L161.183 894.335L160.898 894.347L161.065 898.417ZM156.751 898.594L156.584 894.524L155.944 894.55L155.342 894.772L156.751 898.594ZM152.502 900.16L152.424 904.233L153.19 904.247L153.91 903.982L152.502 900.16ZM148.175 900.077L147.373 904.071L147.731 904.143L148.097 904.15L148.175 900.077ZM143.811 899.201L144.613 895.207L143.744 895.033L142.881 895.235L143.811 899.201ZM139.535 900.203L139.708 904.273L140.091 904.257L140.465 904.169L139.535 900.203ZM135.221 900.386L135.298 904.459L135.346 904.458L135.393 904.456L135.221 900.386ZM130.902 900.467L130.939 904.541L130.959 904.541L130.98 904.54L130.902 900.467ZM126.582 900.506L124.377 903.932L125.401 904.59L126.618 904.58L126.582 900.506ZM123.682 898.641L119.626 898.261L119.396 900.726L121.478 902.066L123.682 898.641ZM124.089 894.299L128.144 894.678L128.201 894.071L128.078 893.474L124.089 894.299ZM123.204 890.018L119.133 889.87L119.115 890.361L119.215 890.842L123.204 890.018ZM123.361 885.688L119.292 885.485L119.291 885.512L119.29 885.54L123.361 885.688ZM123.577 881.355L119.537 880.834L119.516 880.992L119.508 881.152L123.577 881.355ZM124.138 877.006L128.178 877.527L128.269 876.823L128.116 876.13L124.138 877.006ZM123.195 872.727L119.2 873.52L119.208 873.562L119.217 873.603L123.195 872.727ZM122.346 868.444L118.333 867.746L118.203 868.493L118.35 869.237L122.346 868.444ZM123.104 864.086L127.117 864.784L127.2 864.308L127.169 863.825L123.104 864.086ZM122.828 859.776L118.782 859.303L118.739 859.669L118.762 860.037L122.828 859.776ZM123.337 855.43L127.382 855.904L127.433 855.471L127.391 855.037L123.337 855.43ZM122.92 851.127L118.862 851.475L118.863 851.497L118.866 851.519L122.92 851.127ZM122.55 846.821L126.609 846.473L126.602 846.389L126.591 846.306L122.55 846.821ZM122.003 842.524L117.939 842.249L117.912 842.645L117.962 843.039L122.003 842.524ZM122.297 838.188L126.361 838.463L126.395 837.964L126.307 837.471L122.297 838.188ZM121.53 833.901L117.457 833.913L117.458 834.268L117.52 834.618L121.53 833.901ZM121.518 829.579L125.591 829.567L125.59 829.301L125.555 829.037L121.518 829.579ZM120.941 825.283L116.874 825.041L116.851 825.435L116.903 825.825L120.941 825.283ZM121 824.289L121.191 828.358L121.291 828.353L121.1 824.284L120.909 820.215L120.809 820.22L121 824.289ZM121.1 824.284L121.432 828.344L125.639 828L125.306 823.94L124.974 819.88L120.768 820.224L121.1 824.284ZM125.306 823.94L124.629 827.956L128.986 828.691L129.663 824.674L130.341 820.657L125.984 819.923L125.306 823.94ZM129.663 824.674L131.247 828.428L135.485 826.64L133.902 822.886L132.319 819.133L128.08 820.921L129.663 824.674ZM133.902 822.886L132.812 826.811L137.192 828.028L138.282 824.103L139.372 820.178L134.993 818.962L133.902 822.886ZM138.282 824.103L138.537 828.169L142.847 827.898L142.592 823.832L142.337 819.767L138.027 820.037L138.282 824.103ZM142.592 823.832L143.513 827.801L147.789 826.808L146.868 822.84L145.947 818.872L141.671 819.864L142.592 823.832ZM146.868 822.84L146.487 826.896L150.829 827.304L151.21 823.248L151.591 819.192L147.249 818.784L146.868 822.84ZM151.21 823.248L152.509 827.109L156.765 825.677L155.466 821.816L154.166 817.955L149.911 819.387L151.21 823.248ZM155.466 821.816L154.396 825.747L158.775 826.938L159.844 823.007L160.914 819.077L156.535 817.885L155.466 821.816ZM159.844 823.007L160.08 827.074L164.391 826.824L164.155 822.757L163.919 818.69L159.608 818.941L159.844 823.007ZM164.155 822.757L164.818 826.776L169.107 826.069L168.445 822.05L167.782 818.03L163.492 818.738L164.155 822.757ZM168.445 822.05L169.172 826.058L173.458 825.28L172.731 821.272L172.004 817.264L167.717 818.042L168.445 822.05ZM172.731 821.272L171.903 825.261L176.268 826.166L177.096 822.178L177.924 818.189L173.559 817.283L172.731 821.272ZM177.096 822.178L178.233 826.09L182.498 824.85L181.361 820.938L180.224 817.027L175.959 818.266L177.096 822.178ZM181.361 820.938L181.689 824.998L185.995 824.65L185.667 820.59L185.339 816.53L181.032 816.878L181.361 820.938ZM185.667 820.59L185.364 824.652L189.702 824.976L190.005 820.914L190.308 816.852L185.97 816.528L185.667 820.59ZM190.005 820.914L190.344 824.973L194.65 824.614L194.311 820.554L193.972 816.495L189.666 816.854L190.005 820.914ZM194.311 820.554L193.792 824.595L198.141 825.153L198.66 821.112L199.178 817.072L194.829 816.514L194.311 820.554ZM198.66 821.112L199.694 825.052L203.964 823.931L202.93 819.991L201.895 816.051L197.625 817.172L198.66 821.112ZM202.93 819.991L202.021 823.962L206.391 824.962L207.299 820.991L208.208 817.02L203.838 816.02L202.93 819.991ZM207.299 820.991L207.992 825.005L212.28 824.265L211.587 820.251L210.894 816.236L206.606 816.977L207.299 820.991ZM211.587 820.251L212.418 824.239L216.699 823.347L215.868 819.359L215.038 815.371L210.757 816.263L211.587 820.251ZM215.868 819.359L215.113 823.362L219.474 824.185L220.23 820.182L220.985 816.179L216.624 815.356L215.868 819.359ZM220.23 820.182L220.233 824.256L224.556 824.252L224.552 820.178L224.548 816.105L220.226 816.109L220.23 820.182ZM224.552 820.178L226.125 823.936L230.364 822.162L228.792 818.404L227.219 814.646L222.979 816.421L224.552 820.178ZM228.792 818.404L229.002 822.472L233.314 822.249L233.104 818.181L232.893 814.113L228.581 814.336L228.792 818.404ZM233.104 818.181L232.384 822.19L236.743 822.973L237.463 818.964L238.183 814.954L233.824 814.171L233.104 818.181ZM237.463 818.964L237.49 823.037L241.812 823.009L241.785 818.935L241.757 814.862L237.436 814.89L237.463 818.964ZM241.785 818.935L242.361 822.968L246.655 822.354L246.078 818.321L245.502 814.289L241.208 814.902L241.785 818.935ZM246.078 818.321L246.089 822.395L250.411 822.384L250.401 818.31L250.39 814.237L246.068 814.248L246.078 818.321ZM250.401 818.31L249.915 822.355L254.262 822.877L254.748 818.833L255.234 814.788L250.887 814.266L250.401 818.31ZM254.748 818.833L254.953 822.901L259.265 822.684L259.06 818.616L258.856 814.547L254.543 814.764L254.748 818.833ZM259.06 818.616L260.597 822.388L264.838 820.661L263.302 816.888L261.765 813.115L257.524 814.843L259.06 818.616ZM263.302 816.888L262.451 820.872L266.817 821.805L267.668 817.821L268.52 813.838L264.153 812.905L263.302 816.888ZM267.668 817.821L267.682 821.895L272.004 821.88L271.99 817.807L271.977 813.733L267.655 813.748L267.668 817.821ZM271.99 817.807L273.318 821.658L277.572 820.192L276.244 816.341L274.917 812.489L270.663 813.956L271.99 817.807ZM276.244 816.341L275.103 820.251L279.486 821.53L280.627 817.62L281.768 813.709L277.386 812.43L276.244 816.341ZM280.627 817.62L281.932 821.478L286.187 820.039L284.882 816.181L283.577 812.322L279.322 813.761L280.627 817.62ZM284.882 816.181L283.899 820.134L288.273 821.222L289.256 817.269L290.24 813.316L285.866 812.228L284.882 816.181ZM289.256 817.269L289.977 821.278L294.263 820.508L293.543 816.498L292.822 812.489L288.536 813.259L289.256 817.269ZM293.543 816.498L294.596 820.433L298.865 819.29L297.812 815.355L296.758 811.42L292.489 812.563L293.543 816.498ZM297.812 815.355L297.896 819.428L302.215 819.339L302.13 815.266L302.046 811.193L297.727 811.283L297.812 815.355ZM302.13 815.266L301.314 819.257L305.678 820.15L306.495 816.159L307.311 812.168L302.947 811.275L302.13 815.266ZM306.495 816.159L307.63 820.071L311.894 818.834L310.759 814.922L309.625 811.009L305.36 812.247L306.495 816.159ZM310.759 814.922L310.952 818.991L315.265 818.787L315.073 814.718L314.88 810.649L310.567 810.853L310.759 814.922ZM315.073 814.718L315.637 818.752L319.932 818.151L319.367 814.117L318.802 810.082L314.508 810.684L315.073 814.718ZM319.367 814.117L318.264 818.038L322.644 819.27L323.748 815.349L324.851 811.428L320.47 810.195L319.367 814.117ZM323.748 815.349L324.275 819.388L328.572 818.827L328.044 814.788L327.516 810.748L323.22 811.31L323.748 815.349ZM328.044 814.788L329.13 818.714L333.397 817.534L332.311 813.608L331.226 809.681L326.958 810.861L328.044 814.788ZM332.311 813.608L332.085 817.675L336.419 817.916L336.645 813.849L336.872 809.782L332.538 809.54L332.311 813.608ZM336.645 813.849L335.491 817.756L338.338 818.597L339.492 814.69L340.646 810.783L337.799 809.942L336.645 813.849ZM339.492 814.69L335.429 814.983L335.74 819.291L339.803 818.998L343.866 818.705L343.555 814.397L339.492 814.69ZM339.803 818.998L335.746 819.37L336.141 823.674L340.197 823.302L344.254 822.931L343.86 818.627L339.803 818.998ZM340.197 823.302L336.124 823.378L336.205 827.697L340.278 827.621L344.35 827.546L344.27 823.227L340.197 823.302ZM340.278 827.621L336.285 828.427L337.149 832.71L341.142 831.903L345.135 831.097L344.271 826.815L340.278 827.621ZM341.142 831.903L337.099 831.407L336.565 835.754L340.608 836.251L344.651 836.748L345.185 832.4L341.142 831.903ZM340.608 836.251L336.568 836.775L337.125 841.071L341.165 840.548L345.204 840.024L344.648 835.728L340.608 836.251ZM341.165 840.548L337.32 841.895L338.811 846.148L342.655 844.801L346.499 843.453L345.009 839.201L341.165 840.548ZM342.655 844.801L338.611 844.31L338.084 848.657L342.127 849.148L346.171 849.639L346.699 845.291L342.655 844.801ZM342.127 849.148L338.07 848.783L337.679 853.124L341.737 853.489L345.794 853.854L346.185 849.513L342.127 849.148ZM341.737 853.489L337.861 854.744L339.24 859.002L343.116 857.747L346.991 856.492L345.612 852.234L341.737 853.489ZM343.116 857.747L339.048 857.521L338.807 861.855L342.875 862.081L346.942 862.307L347.183 857.973L343.116 857.747ZM342.875 862.081L338.801 862.094L338.815 866.416L342.889 866.403L346.962 866.39L346.948 862.068L342.875 862.081ZM342.889 866.403L338.838 865.976L338.38 870.32L342.431 870.747L346.482 871.174L346.94 866.83L342.889 866.403ZM342.431 870.747L338.444 871.584L339.342 875.864L343.329 875.028L347.315 874.192L346.418 869.911L342.431 870.747ZM343.329 875.028L339.266 874.737L338.955 879.074L343.018 879.365L347.081 879.656L347.392 875.319L343.329 875.028ZM343.018 879.365L339.118 880.54L340.402 884.803L344.302 883.628L348.202 882.453L346.918 878.19L343.018 879.365ZM344.302 883.628L340.312 882.807L339.415 887.172L343.405 887.992L347.395 888.813L348.292 884.448L344.302 883.628ZM343.405 887.992L339.839 886.023L338.664 888.151L342.229 890.12L345.795 892.09L346.971 889.962L343.405 887.992ZM342.229 890.12L341.759 886.074L337.46 886.574L337.93 890.62L338.401 894.666L342.7 894.167L342.229 890.12ZM337.93 890.62L336.977 886.66L332.703 887.688L333.656 891.649L334.609 895.609L338.883 894.581L337.93 890.62ZM333.656 891.649L333.75 887.576L329.422 887.477L329.328 891.549L329.234 895.621L333.562 895.721L333.656 891.649ZM329.328 891.549L330.015 887.534L325.658 886.788L324.971 890.803L324.284 894.819L328.641 895.564L329.328 891.549ZM324.971 890.803L324.553 886.751L320.251 887.195L320.669 891.247L321.087 895.299L325.388 894.855L324.971 890.803ZM320.669 891.247L319.927 887.241L315.642 888.035L316.383 892.04L317.125 896.046L321.41 895.252L320.669 891.247ZM316.383 892.04L316.951 888.007L312.6 887.394L312.032 891.428L311.464 895.461L315.815 896.074L316.383 892.04ZM312.032 891.428L310.983 887.492L306.713 888.63L307.763 892.566L308.812 896.502L313.081 895.364L312.032 891.428ZM307.763 892.566L307.984 888.498L303.65 888.262L303.429 892.33L303.207 896.397L307.541 896.633L307.763 892.566ZM303.429 892.33L302.283 888.421L298.019 889.671L299.165 893.58L300.311 897.489L304.575 896.239L303.429 892.33ZM299.165 893.58L300.482 889.725L296.089 888.224L294.772 892.079L293.455 895.934L297.848 897.435L299.165 893.58ZM294.772 892.079L294.037 888.072L289.751 888.858L290.486 892.865L291.22 896.871L295.506 896.086L294.772 892.079ZM290.486 892.865L289.492 888.914L285.219 889.989L286.213 893.94L287.208 897.89L291.48 896.815L290.486 892.865ZM286.213 893.94L285.77 889.89L281.47 890.361L281.913 894.41L282.356 898.46L286.657 897.989L286.213 893.94ZM281.913 894.41L282.615 890.398L278.257 889.635L277.554 893.647L276.852 897.66L281.21 898.423L281.913 894.41ZM277.554 893.647L277.107 889.598L272.807 890.073L273.254 894.122L273.701 898.171L278.002 897.696L277.554 893.647ZM273.254 894.122L273.384 890.051L269.055 889.912L268.925 893.984L268.794 898.055L273.124 898.194L273.254 894.122ZM268.925 893.984L269.116 889.915L264.784 889.711L264.592 893.78L264.401 897.849L268.733 898.053L268.925 893.984ZM264.592 893.78L264.465 889.708L260.149 889.843L260.276 893.914L260.403 897.986L264.72 897.851L264.592 893.78ZM260.276 893.914L259.055 890.028L254.796 891.366L256.016 895.252L257.237 899.139L261.497 897.801L260.276 893.914ZM256.016 895.252L255.673 891.193L251.367 891.557L251.711 895.616L252.054 899.676L256.359 899.311L256.016 895.252ZM251.711 895.616L251.661 891.543L247.341 891.596L247.39 895.669L247.44 899.742L251.76 899.69L251.711 895.616ZM247.39 895.669L248.184 891.673L243.821 890.807L243.027 894.802L242.233 898.797L246.596 899.664L247.39 895.669ZM243.027 894.802L241.736 890.938L237.48 892.36L238.771 896.224L240.062 900.088L244.318 898.666L243.027 894.802ZM238.771 896.224L238.868 892.152L234.54 892.049L234.443 896.121L234.347 900.193L238.674 900.296L238.771 896.224ZM234.443 896.121L235.279 892.134L230.913 891.219L230.078 895.206L229.242 899.193L233.608 900.108L234.443 896.121ZM230.078 895.206L228.925 891.299L224.661 892.558L225.814 896.464L226.967 900.371L231.231 899.113L230.078 895.206ZM225.814 896.464L225.181 892.44L220.89 893.115L221.523 897.139L222.156 901.163L226.447 900.489L225.814 896.464ZM221.523 897.139L221.478 893.066L217.158 893.114L217.203 897.187L217.247 901.26L221.568 901.213L221.523 897.139ZM217.203 897.187L217.489 893.123L213.152 892.818L212.866 896.881L212.579 900.945L216.916 901.25L217.203 897.187ZM212.866 896.881L213.503 892.858L209.148 892.168L208.51 896.191L207.873 900.215L212.228 900.905L212.866 896.881ZM208.51 896.191L207.198 892.335L202.943 893.783L204.256 897.639L205.568 901.496L209.823 900.048L208.51 896.191ZM204.256 897.639L204.917 893.62L200.561 892.903L199.899 896.923L199.238 900.942L203.594 901.659L204.256 897.639ZM199.899 896.923L199.486 892.87L195.184 893.308L195.597 897.361L196.01 901.414L200.312 900.975L199.899 896.923ZM195.597 897.361L195.427 893.291L191.113 893.471L191.283 897.541L191.453 901.611L195.767 901.431L195.597 897.361ZM191.283 897.541L190.957 893.481L186.65 893.827L186.977 897.887L187.303 901.948L191.609 901.602L191.283 897.541ZM186.977 897.887L187.241 893.822L182.905 893.541L182.641 897.606L182.376 901.671L186.712 901.952L186.977 897.887ZM182.641 897.606L181.597 893.668L177.327 894.8L178.371 898.737L179.415 902.675L183.684 901.543L182.641 897.606ZM178.371 898.737L178.219 894.666L173.904 894.828L174.056 898.898L174.208 902.969L178.523 902.808L178.371 898.737ZM174.056 898.898L174.55 894.855L170.203 894.323L169.708 898.367L169.214 902.41L173.561 902.942L174.056 898.898ZM169.708 898.367L169.256 894.318L164.956 894.798L165.408 898.847L165.86 902.895L170.16 902.415L169.708 898.367ZM165.408 898.847L165.809 894.793L161.466 894.363L161.065 898.417L160.664 902.471L165.007 902.9L165.408 898.847ZM161.065 898.417L160.898 894.347L156.584 894.524L156.751 898.594L156.918 902.664L161.232 902.487L161.065 898.417ZM156.751 898.594L155.342 894.772L151.093 896.338L152.502 900.16L153.91 903.982L158.159 902.417L156.751 898.594ZM152.502 900.16L152.579 896.087L148.253 896.005L148.175 900.077L148.097 904.15L152.424 904.233L152.502 900.16ZM148.175 900.077L148.977 896.084L144.613 895.207L143.811 899.201L143.009 903.195L147.373 904.071L148.175 900.077ZM143.811 899.201L142.881 895.235L138.606 896.237L139.535 900.203L140.465 904.169L144.741 903.167L143.811 899.201ZM139.535 900.203L139.363 896.133L135.049 896.316L135.221 900.386L135.393 904.456L139.708 904.273L139.535 900.203ZM135.221 900.386L135.144 896.313L130.825 896.395L130.902 900.467L130.98 904.54L135.298 904.459L135.221 900.386ZM130.902 900.467L130.866 896.394L126.545 896.433L126.582 900.506L126.618 904.58L130.939 904.541L130.902 900.467ZM126.582 900.506L128.786 897.081L125.887 895.215L123.682 898.641L121.478 902.066L124.377 903.932L126.582 900.506ZM123.682 898.641L127.738 899.02L128.144 894.678L124.089 894.299L120.033 893.919L119.626 898.261L123.682 898.641ZM124.089 894.299L128.078 893.474L127.193 889.193L123.204 890.018L119.215 890.842L120.099 895.123L124.089 894.299ZM123.204 890.018L127.275 890.165L127.432 885.835L123.361 885.688L119.29 885.54L119.133 889.87L123.204 890.018ZM123.361 885.688L127.429 885.89L127.645 881.558L123.577 881.355L119.508 881.152L119.292 885.485L123.361 885.688ZM123.577 881.355L127.617 881.876L128.178 877.527L124.138 877.006L120.098 876.485L119.537 880.834L123.577 881.355ZM124.138 877.006L128.116 876.13L127.174 871.851L123.195 872.727L119.217 873.603L120.159 877.882L124.138 877.006ZM123.195 872.727L127.191 871.935L126.342 867.652L122.346 868.444L118.35 869.237L119.2 873.52L123.195 872.727ZM122.346 868.444L126.359 869.142L127.117 864.784L123.104 864.086L119.091 863.388L118.333 867.746L122.346 868.444ZM123.104 864.086L127.169 863.825L126.893 859.516L122.828 859.776L118.762 860.037L119.039 864.347L123.104 864.086ZM122.828 859.776L126.873 860.25L127.382 855.904L123.337 855.43L119.291 854.956L118.782 859.303L122.828 859.776ZM123.337 855.43L127.391 855.037L126.975 850.734L122.92 851.127L118.866 851.519L119.282 855.822L123.337 855.43ZM122.92 851.127L126.979 850.778L126.609 846.473L122.55 846.821L118.492 847.17L118.862 851.475L122.92 851.127ZM122.55 846.821L126.591 846.306L126.044 842.009L122.003 842.524L117.962 843.039L118.509 847.336L122.55 846.821ZM122.003 842.524L126.067 842.8L126.361 838.463L122.297 838.188L118.233 837.912L117.939 842.249L122.003 842.524ZM122.297 838.188L126.307 837.471L125.54 833.184L121.53 833.901L117.52 834.618L118.287 838.905L122.297 838.188ZM121.53 833.901L125.604 833.889L125.591 829.567L121.518 829.579L117.444 829.591L117.457 833.913L121.53 833.901ZM121.518 829.579L125.555 829.037L124.978 824.741L120.941 825.283L116.903 825.825L117.48 830.121L121.518 829.579ZM120.941 825.283L125.007 825.526L125.066 824.531L121 824.289L116.934 824.046L116.874 825.041L120.941 825.283Z" fill="white"/>
<path d="M434.315 935.181C430.568 950.047 420.781 963.585 406.649 973.452C392.516 983.319 374.926 988.896 356.921 989.218C338.916 989.539 321.629 984.585 308.048 975.212C294.468 965.84 285.449 952.638 282.551 937.89C279.653 923.143 283.058 907.777 292.179 894.45C301.299 881.123 315.56 870.674 332.495 864.909C349.431 859.145 367.976 858.427 384.922 862.881C401.869 867.335 416.151 876.68 425.3 889.3L386.789 909.743C382.936 904.428 376.922 900.493 369.786 898.618C362.649 896.742 354.84 897.044 347.709 899.472C340.577 901.899 334.572 906.3 330.731 911.911C326.891 917.523 325.457 923.994 326.677 930.204C327.897 936.414 331.695 941.974 337.414 945.921C343.133 949.867 350.413 951.953 357.994 951.818C365.576 951.683 372.984 949.334 378.935 945.179C384.886 941.024 389.007 935.323 390.585 929.063L434.315 935.181Z" fill="#DED6CC"/>
<path d="M233.994 1151.76L229.012 1181.09C221.792 1183.75 213.59 1184.35 204.423 1182.79C194.824 1181.16 187.843 1176.54 183.568 1169.04C179.293 1161.55 178.117 1152.14 180.003 1141.03C181.853 1130.14 186.015 1121.97 192.398 1116.4C198.889 1110.84 206.88 1108.87 216.371 1110.48C226.185 1112.15 233.49 1116.83 238.286 1124.52L231.778 1129.52C228.36 1124.17 221.989 1119.87 215.626 1118.79C201.498 1116.39 191.812 1125.73 188.955 1142.55C185.932 1160.35 193.197 1172.45 209.266 1175.18C214.227 1176.03 218.219 1176.04 221.117 1175.31L224.011 1158.27L210.098 1155.91L211.454 1147.93L233.994 1151.76Z" fill="white"/>
<path d="M291.057 1196.4L241.016 1187.9C242.096 1181.54 244.882 1176.24 247.806 1172.74C249.341 1170.89 251.18 1169.21 253.325 1167.69C257.849 1164.57 261.072 1163.23 266.204 1161.11L270.705 1159.43L275.224 1157.65L279.078 1155.86C282.572 1154.24 283.528 1153.18 285.62 1151.31C287.712 1149.45 288.654 1147.17 289.094 1144.58C289.79 1140.48 288.811 1137.1 286.247 1134.55C283.684 1132.01 280.523 1130.36 276.857 1129.74C272.219 1128.95 267.973 1129.79 264.35 1132.17C260.728 1134.55 258.596 1137.96 257.882 1142.16L249.577 1140.75C250.676 1134.28 254.001 1129.08 259.445 1125.12C264.996 1121.18 271.438 1119.83 278.879 1121.1C285.027 1122.14 289.982 1124.98 293.744 1129.61C297.506 1134.25 298.821 1139.57 297.795 1145.61C296.751 1151.76 293.985 1156.28 288.957 1159.76C286.452 1161.44 284.236 1162.73 282.202 1163.6C280.275 1164.5 277.538 1165.59 274.099 1166.89L267.076 1169.69C265.762 1170.24 263.943 1171.16 261.403 1172.39C256.522 1175 253.941 1177.78 251.97 1181.55L292.412 1188.42L291.057 1196.4Z" fill="white"/>
<path d="M309.243 1163.54C311.093 1152.64 315.075 1144.22 321.154 1138.49C327.232 1132.75 334.378 1130.52 342.467 1131.9C350.555 1133.27 356.566 1137.73 360.391 1145.26C364.235 1152.68 365.232 1161.84 363.382 1172.73C361.551 1183.52 357.587 1191.83 351.508 1197.57C345.43 1203.3 338.284 1205.53 330.195 1204.15C322.107 1202.78 316.096 1198.32 312.252 1190.9C308.409 1183.48 307.412 1174.32 309.243 1163.54ZM317.979 1165.02C316.935 1171.17 316.9 1176.6 317.946 1181.55L351.951 1147.27C349.357 1142.94 345.804 1140.34 341.166 1139.55C335.666 1138.62 330.697 1140.44 326.456 1145.16C322.234 1149.76 319.444 1156.39 317.979 1165.02ZM331.496 1196.5C336.996 1197.43 341.857 1195.59 346.079 1190.99C350.32 1186.27 353.2 1179.77 354.647 1171.25C355.691 1165.1 355.707 1159.78 354.714 1155.17L320.961 1189.27C323.485 1193.36 327.074 1195.75 331.496 1196.5Z" fill="white"/>
<path d="M418.303 1194.71L379.478 1188.11L380.943 1179.49L419.768 1186.08L418.303 1194.71Z" fill="white"/>
<path d="M450.666 1183.56L481.26 1164.79L446.426 1158.87L447.781 1150.89L493.292 1158.62L491.937 1166.6L471.629 1179.69C472.654 1179.53 473.751 1179.6 475.153 1179.84C483.349 1181.23 488.471 1188.32 486.713 1198.67C485.614 1205.14 482.72 1210.42 478.013 1214.61C468.726 1222.91 455.752 1225.48 442.271 1223.19C437.957 1222.46 434.777 1221.58 432.748 1220.46L437.734 1213.32C438.865 1213.84 440.68 1214.26 443.161 1214.68C448.122 1215.53 452.977 1215.69 457.637 1215.04C462.404 1214.4 466.708 1212.58 470.637 1209.7C474.585 1206.71 477.025 1202.79 477.886 1197.73C479.113 1190.5 476.158 1186.34 469.04 1185.13C466.129 1184.63 462.871 1185.52 459.285 1187.69L455.555 1190.05L450.666 1183.56Z" fill="white"/>
<path d="M503.24 1196.48C505.09 1185.59 509.073 1177.17 515.151 1171.43C521.229 1165.7 528.375 1163.47 536.464 1164.84C544.552 1166.22 550.563 1170.68 554.389 1178.21C558.232 1185.63 559.229 1194.79 557.379 1205.68C555.548 1216.46 551.584 1224.78 545.506 1230.51C539.427 1236.25 532.281 1238.47 524.192 1237.1C516.104 1235.73 510.093 1231.27 506.249 1223.85C502.406 1216.42 501.409 1207.27 503.24 1196.48ZM511.976 1197.97C510.932 1204.11 510.897 1209.55 511.943 1214.49L545.948 1180.21C543.354 1175.89 539.801 1173.29 535.164 1172.5C529.663 1171.57 524.694 1173.39 520.454 1178.1C516.231 1182.71 513.441 1189.34 511.976 1197.97ZM525.493 1229.44C530.993 1230.38 535.854 1228.54 540.077 1223.93C544.317 1219.22 547.197 1212.71 548.644 1204.19C549.688 1198.05 549.704 1192.72 548.711 1188.12L514.959 1222.22C517.482 1226.31 521.071 1228.69 525.493 1229.44Z" fill="white"/>
<path d="M618.018 1227.96C616.754 1235.4 613.59 1240.97 608.417 1244.64C603.244 1248.31 597.054 1249.48 589.721 1248.23C582.172 1246.95 576.356 1243.3 572.401 1237.19C568.445 1231.08 567.281 1223.56 568.838 1214.39C571.182 1200.59 576.213 1190.57 584.037 1184.35C591.879 1178.03 600.806 1175.77 610.836 1177.47C615.258 1178.23 619.551 1179.73 623.59 1182.08L619.756 1188.98C616.615 1187.22 613.363 1186.11 610.128 1185.57C602.794 1184.32 596.207 1185.86 590.457 1190.32C584.724 1194.68 580.677 1200.87 578.512 1209.04C583.78 1203.5 590.782 1201.48 599.41 1202.94C606.528 1204.15 611.68 1207.13 614.777 1211.76C617.981 1216.41 619.062 1221.81 618.018 1227.96ZM591.003 1240.68C600.17 1242.24 607.972 1237.46 609.657 1227.54C611.268 1218.05 605.713 1211.56 596.223 1209.94C591.801 1209.19 587.662 1210.04 584.04 1212.42C580.418 1214.81 578.322 1218 577.626 1222.1C576.875 1226.52 577.762 1230.44 580.359 1234.1C582.955 1237.76 586.581 1239.93 591.003 1240.68Z" fill="white"/>
<path d="M676.966 1238.64L638.141 1232.04L639.606 1223.41L678.431 1230.01L676.966 1238.64Z" fill="white"/>
<path d="M758.318 1203.63L756.963 1211.61C744.751 1217.53 735.611 1224.96 729.433 1233.9C723.381 1242.75 719.083 1254.33 716.647 1268.68L708.235 1267.25C710.689 1252.8 714.682 1241.05 720.213 1232C725.852 1222.97 734.111 1215.5 745.207 1209.62L711.236 1203.85L709.294 1215.28L700.667 1213.81L703.963 1194.4L758.318 1203.63Z" fill="white"/>
<defs>
<clipPath id="clip0_424_5">
<rect width="318.216" height="178.997" fill="white" transform="translate(436.59 399) rotate(0.828775)"/>
</clipPath>
</defs>
</svg>
