<svg width="1147" height="1651" viewBox="0 0 1147 1651" fill="none" xmlns="http://www.w3.org/2000/svg">
<path d="M-374.364 393.22V73.3912L-493 50.1194V361.171L-374.364 393.22Z" fill="#C5C5C8"/>
<path d="M-159.104 887L-218.813 470.785L-269.133 120.009L-374.364 73.3912V393.22L-493 361.171V50.1194L-159.104 18.5795L-162.729 46.0341L-168.733 91.5L-171.915 115.605L-173.882 130.5L-178.569 166L-185.287 216.879L-210.291 406.248L-218.813 470.785L-269.133 851.892L-159.104 887Z" fill="#C5C5C8"/>
<path d="M983.5 627V688.665L1051.5 725.5V622.5L983.5 627Z" fill="#C5C5C8"/>
<path d="M1146 775.408V674L1093 678.783L1051.5 725.5V788L1146 775.408Z" fill="#C5C5C8"/>
<path d="M-168.733 91.5L937.5 51.5L600 15.3307H563.5L-162.729 46.0341L-168.733 91.5Z" fill="#404559"/>
<path d="M1051.5 725.5L983.5 688.665V731.5L1051.5 725.5Z" fill="#C5C5C8"/>
<path d="M1051.5 622.5V725.5L1093 678.783V620.5L1051.5 622.5Z" fill="#C5C5C8"/>
<path d="M1093 146.421L1051.5 148.709V209.5L1093 207.5V146.421Z" fill="#C5C5C8"/>
<path fill-rule="evenodd" clip-rule="evenodd" d="M596.574 0L499.5 2.38671L-159.104 18.5795L-162.729 46.0341L563.5 15.3307H600L937.5 51.5L1051.5 46.4225L911.466 32.3574L779.141 18.5795L596.574 0Z" fill="#999999"/>
<path d="M-171.915 115.605L990 62.9796L1051.5 60.1942L1146 55.914L1051.5 46.4225L937.5 51.5L-168.733 91.5L-171.915 115.605Z" fill="#999999"/>
<path fill-rule="evenodd" clip-rule="evenodd" d="M818 703.601L-89.5 785.5L-178.569 505.846L818 425.155V703.601Z" fill="#181C2C"/>
<path d="M983.5 688.665V627L1051.5 622.5V406.248L818 425.155V703.601L983.5 688.665Z" fill="#0D0F19"/>
<path fill-rule="evenodd" clip-rule="evenodd" d="M818 703.601L-89.5 785.5V830.5L818 746.77V703.601Z" fill="#E8E8E8"/>
<path d="M983.5 731.5V688.665L818 703.601V746.77L983.5 731.5Z" fill="#A9A9A9"/>
<path fill-rule="evenodd" clip-rule="evenodd" d="M818 805L-159.104 887L-218.813 470.785L-210.291 406.248L-198.267 444L-193.49 459L-178.569 505.846L-89.5 785.5V830.5L818 746.77V805Z" fill="#C5C5C8"/>
<path d="M1051.5 788V725.5L983.5 731.5L818 746.77V805L1051.5 788Z" fill="#767679"/>
<path d="M1051.5 406.248V359L818 377.755V425.155L1051.5 406.248Z" fill="#767679"/>
<path d="M1051.5 359V344L818 362.683V377.755L1051.5 359Z" fill="#767679"/>
<path d="M1051.5 344V315.5L818 332.293V362.683L1051.5 344Z" fill="#767679"/>
<path d="M818 289V332.293L1051.5 315.5V244.863L934.75 266.931L818 289Z" fill="#0D0F19"/>
<path fill-rule="evenodd" clip-rule="evenodd" d="M1093 207.5V237.018L1051.5 244.863V209.5L1093 207.5Z" fill="#E8E8E8"/>
<path d="M1051.5 315.5V344V359V406.248V622.5L1093 620.5V237.018L1051.5 244.863V315.5Z" fill="#A9A9A9"/>
<path d="M1093 678.783L1146 674V227L1093 237.018V620.5V678.783Z" fill="#767679"/>
<path d="M983.5 213V152.457L924.797 155.692C927.909 159.78 931.614 162.747 934.75 164.5V266.931L1051.5 244.863V209.5L983.5 213Z" fill="#0D0F19"/>
<path d="M983.5 152.457V110.262L925.5 113.044C913.925 132.084 917.904 146.637 924.797 155.692L983.5 152.457Z" fill="#BEBEBE"/>
<path fill-rule="evenodd" clip-rule="evenodd" d="M586.651 174.33L924.797 155.692C927.909 159.78 931.614 162.747 934.75 164.5V266.931L818 289V332.293L-210.291 406.248L-185.287 216.879L315.114 189.297L466.5 207.5L586.651 174.33Z" fill="#181C2C"/>
<path d="M315.114 189.297L466.5 207.5L586.651 174.33L315.114 189.297Z" fill="#0D0F19"/>
<path fill-rule="evenodd" clip-rule="evenodd" d="M586.651 174.33L924.797 155.692C917.904 146.637 913.925 132.084 925.5 113.044L784.081 119.827L586.651 174.33ZM315.114 189.297L35.8327 155.716L-178.569 166L-185.287 216.879L315.114 189.297Z" fill="#E8E8E8"/>
<path d="M315.114 189.297L586.651 174.33L784.081 119.827L35.8327 155.716L315.114 189.297Z" fill="#BEBEBE"/>
<path fill-rule="evenodd" clip-rule="evenodd" d="M1051.5 60.1942L1146 55.914V143.5V227L1093 237.018V207.5V146.421L1051.5 148.709V209.5L983.5 213V152.457V110.262L925.5 113.044L784.081 119.827L990 62.9796L1051.5 60.1942ZM-171.915 115.605L-269.133 120.009L-218.813 470.785L-210.291 406.248L-198.267 444L-193.49 459L-178.569 505.846L818 425.155V377.755V362.683V332.293L-210.291 406.248L-185.287 216.879L-178.569 166L35.8327 155.716L-173.882 130.5L-171.915 115.605Z" fill="#C5C5C8"/>
<path d="M-171.915 115.605L-173.882 130.5L35.8327 155.716L784.081 119.827L990 62.9796L-171.915 115.605Z" fill="#ABABAB"/>
<path d="M983.864 1390.43V1452.09L1051.86 1488.93V1385.93L983.864 1390.43Z" fill="#C5C5C8"/>
<path d="M1146.36 1538.84V1437.43L1093.36 1442.21L1051.86 1488.93V1546.92L1146.36 1538.84Z" fill="#C5C5C8"/>
<path d="M1051.86 1488.93L983.864 1452.09V1494.93L1051.86 1488.93Z" fill="#C5C5C8"/>
<path d="M1051.86 1385.93V1488.93L1093.36 1442.21V1383.93L1051.86 1385.93Z" fill="#C5C5C8"/>
<path d="M1093.36 872.999L1051.86 875.286V972.929L1093.36 970.929V872.999Z" fill="#C5C5C8"/>
<path d="M983.864 1452.09V1390.43L1051.86 1385.93V1169.68L818.364 1188.58V1467.03L983.864 1452.09Z" fill="#0D0F19"/>
<path fill-rule="evenodd" clip-rule="evenodd" d="M818.364 1467.03L-89.1359 1548.93V1593.93L818.364 1510.2V1467.03Z" fill="#E8E8E8"/>
<path d="M983.864 1494.93V1452.09L818.364 1467.03V1510.2L983.864 1494.93Z" fill="#A9A9A9"/>
<path fill-rule="evenodd" clip-rule="evenodd" d="M818.364 1566.88L-158.74 1650.43L-218.449 1234.21L-209.927 1169.68L-197.903 1207.43L-193.126 1222.43L-178.205 1269.28L-89.1359 1548.93V1593.93L818.364 1510.2V1566.88Z" fill="#C5C5C8"/>
<path d="M1051.86 1546.92V1488.93L983.864 1494.93L818.364 1510.2V1566.88L1051.86 1546.92Z" fill="#767679"/>
<path d="M818.364 893.374V1095.72L1051.86 1078.93L1045 915.508L986.814 976.277L974.5 881.279L818.364 893.374Z" fill="#0D0F19"/>
<path fill-rule="evenodd" clip-rule="evenodd" d="M1093.36 970.929V1000.45L1045 915.508L1051.86 972.929L1093.36 970.929Z" fill="#E8E8E8"/>
<path d="M1051.86 1078.93V875.286V1188.58V1169.68V1385.93L1093.36 1383.93V1000.45L1045 915.508L1051.86 1078.93Z" fill="#A9A9A9"/>
<path d="M1093.36 1442.21L1146.36 1437.43V990.429L1093.36 1000.45V1383.93V1442.21Z" fill="#767679"/>
<path d="M1051.86 875.286V1078.93L818.364 1095.72V893.374L1051.86 875.286Z" fill="#C5C5C8"/>
<path d="M1051.86 1169.68V1188.58H818.364L1051.86 1169.68Z" fill="#181C2C"/>
<path d="M1051.86 1188.58V875.286L818.364 893.374V1188.58H1051.86Z" fill="#0D0F19"/>
<path fill-rule="evenodd" clip-rule="evenodd" d="M974.5 881.279L983.864 915.508L986.814 976.277L1045 915.508L1051.86 972.929L986.814 976.277L974.5 881.279ZM818.364 893.374L-184.923 980.307L-209.927 1169.68L-197.903 1207.43L-193.126 1222.43L-178.205 1269.28L-89.1359 1548.93L818.364 1467.03V1188.58V893.374ZM818.364 893.374L983.864 879.034L974.5 881.279L818.364 893.374ZM369 1147.71L120 1169.21V1375.21L369 1348.71V1147.71Z" fill="#181C2C"/>
<path fill-rule="evenodd" clip-rule="evenodd" d="M369 1147.71L120 1169.21V1375.21L369 1348.71V1147.71ZM348.5 1169.21L328.5 1171.71L168 1185.21L160 1186.01L145.5 1187.21V1351.71L348.5 1328.71V1169.21Z" fill="#A3A3A8"/>
<path fill-rule="evenodd" clip-rule="evenodd" d="M818.364 893.374L-184.923 980.307L-178.205 929.429L818.364 850.026V893.374Z" fill="#D1D1DA"/>
<path d="M818.364 893.374L983.864 879.034V836.839L818.364 850.026V893.374Z" fill="#939399"/>
<path fill-rule="evenodd" clip-rule="evenodd" d="M818.364 850.026V804.381L-171.551 879.034L-178.205 929.429L818.364 850.026Z" fill="#A3A3A8"/>
<path d="M1051.86 833.577V786.772L818.364 804.381V850.026L983.864 836.839L1051.86 833.577Z" fill="#6C6C71"/>
<path d="M168 1185.21V1322.21L328.5 1304.21V1171.71L168 1185.21Z" fill="#A3A3A8"/>
<path fill-rule="evenodd" clip-rule="evenodd" d="M328.5 1304.21L322 1313L160 1332.01V1186.01L145.5 1187.21V1351.71L348.5 1328.71V1169.21L328.5 1171.71V1304.21Z" fill="#616165"/>
<path d="M168 1322.21V1185.21L160 1186.01V1332.01L322 1313L328.5 1304.21L168 1322.21Z" fill="#7F7F7F"/>
<g clip-path="url(#clip0_424_6)">
<rect width="307.152" height="172.773" transform="translate(24.4785 549.326) rotate(-2.60918)" fill="white"/>
<path d="M59.3056 670.69L62.5851 639.639M81.3254 695.494L120.596 686.552M51.591 695.614L54.1541 669.727C59.3466 686.153 70.7243 697.508 84.2569 703.167L60.4681 704.675C60.2982 710.367 52.851 715.166 46.1839 707.944C41.75 703.14 46.312 694.217 51.591 695.614Z" stroke="black" stroke-width="2.12285"/>
</g>
<g clip-path="url(#clip1_424_6)">
<rect width="206.959" height="252.322" transform="translate(632.416 1156.56) rotate(-0.208392)" fill="white"/>
<rect x="819.416" y="1152.81" width="100" height="325" fill="#38383D"/>
</g>
<rect x="357" y="487" width="168" height="168" rx="84" fill="#365BCD"/>
<rect x="372" y="502" width="137" height="137" rx="68.5" fill="#F5F4F0"/>
<defs>
<clipPath id="clip0_424_6">
<rect width="307.152" height="172.773" fill="white" transform="translate(24.4785 549.326) rotate(-2.60918)"/>
</clipPath>
<clipPath id="clip1_424_6">
<rect width="206.959" height="252.322" fill="white" transform="translate(632.416 1156.56) rotate(-0.208392)"/>
</clipPath>
</defs>
</svg>
