<svg width="955" height="722" viewBox="0 0 955 722" fill="none" xmlns="http://www.w3.org/2000/svg">
<path d="M810.91 189.742V217.984L899.952 199.636L915.481 196.437C921.404 195.216 947.97 189.742 947.97 189.742V158.5L915.481 166.118C884.27 173.264 848.415 181.382 810.91 189.742Z" fill="#5F5F5F"/>
<path d="M766.25 199.636C740.935 205.209 715.413 210.763 690.545 216.089V242.786L766.25 227.187V199.636Z" fill="#5F5F5F"/>
<path d="M521.163 204.557V239.808V252.258C538.936 249.396 558.018 245.04 581.366 239.71C596.254 236.311 611.876 233.056 631 229C633.41 228.489 636.859 227.434 639.349 226.915V217.464V208.858L660.59 195.3L690.545 188.772V207.785V216.089C715.413 210.763 740.935 205.209 766.25 199.636V193.321L766.192 185.257L783.678 172.703L810.91 166.677V184.933V189.742C848.415 181.382 884.27 173.264 915.481 166.118L947.97 158.5C947.97 158.5 951.485 157.757 955 156V114.454L954.978 114.459L948.472 115.96C932.732 119.397 915.292 123.227 896.655 127.319L896.646 127.321L896.643 127.322C776.131 153.784 605.59 191.231 521.163 204.557Z" fill="#8F8F8F"/>
<path d="M690.545 308.981L766.25 295.379V227.187L690.545 242.786V308.981Z" fill="#414141"/>
<path d="M639.349 349.242L660.59 363.932V248.958V222.46V213.449V195.3L639.349 208.858V217.464V226.915V253.335V349.242Z" fill="#5F5F5F"/>
<path d="M766.25 295.379L783.678 304.628V223.595V195.79V190.178V172.703L766.192 185.257L766.25 193.321V199.636V227.187V295.379Z" fill="#5F5F5F"/>
<path d="M690.545 322.039L783.678 304.628L766.25 295.379L690.545 308.981V322.039Z" fill="#5F5F5F"/>
<path d="M660.59 363.932L810.91 333.464V260.015V217.984V189.742V184.933V166.677L783.678 172.703V190.178V195.79V223.595V304.628L690.545 322.039V308.981V242.786V216.089V207.785V188.772L660.59 195.3V213.449V222.46V248.958V363.932Z" fill="#7D7D7D"/>
<path d="M930.395 59.7557C789.291 51.7213 73.7286 0 73.7286 0C2.88757 1.36125 -67.0142 5.80087 -133.833 14.5259C-202.586 23.5037 -272.372 37.1941 -338.034 50.6808L477.591 138L930.395 59.7557Z" fill="#707070"/>
<path d="M436.199 715.336C452.701 719.603 465.836 721.411 477.591 721.162V283.714C471.183 283.388 456.934 282.158 436.199 280.196V715.336Z" fill="#4D4D4D"/>
<path d="M521.163 710.492V607.13V472.746V277.688C515.89 279.864 499.794 282.107 477.591 283.714V721.162C492.994 720.836 506.027 716.978 521.163 710.492Z" fill="#7D7D7D"/>
<path d="M915.481 622.364C915.481 622.364 948.472 608.066 948.472 595.512C948.472 477.449 947.97 158.5 947.97 158.5V189.742L915.481 196.437V386.783V518.448V622.364Z" fill="#7D7D7D"/>
<path d="M231.71 259.68L231.718 259.681L231.747 259.684L231.774 259.687L231.823 259.692L231.847 259.694C304.501 267.096 366.283 273.389 410.203 277.688C419.733 278.621 428.422 279.46 436.199 280.196V254.5C293.02 242.959 -164.254 195.51 -416.5 167.124V196.497C-206.485 215.041 47.5214 240.917 231.708 259.68L231.71 259.68Z" fill="#303030"/>
<path fill-rule="evenodd" clip-rule="evenodd" d="M477.591 168C490.01 168 521.163 161.5 521.163 161.5C521.163 161.5 904.12 94.9749 923.867 91.857C931.399 90.3506 946.765 86.4338 947.97 82.8183C947.97 86.9441 948.079 91.7415 948.196 96.8639C948.29 100.994 948.389 105.335 948.439 109.706L520.5 196C520.5 196 494 200.5 477.591 200.5C477.591 188.073 477.591 168 477.591 168Z" fill="#747474"/>
<path d="M483 210C491.547 210 501.257 207.699 521.163 204.557C605.59 191.231 776.131 153.784 896.643 127.322L896.646 127.321L896.655 127.319C915.292 123.227 932.732 119.397 948.472 115.96C948.476 113.882 948.463 111.79 948.439 109.706L520.5 196C520.5 196 494 200.5 477.591 200.5C477.591 204.601 483 210 483 210Z" fill="#A7A7A7"/>
<path d="M952 109L948.439 109.706C948.463 111.79 948.476 113.882 948.472 115.96L954.978 114.459L952 109Z" fill="#A7A7A7"/>
<path d="M521.163 472.746V607.13L542.5 602.332V468.094L521.163 472.746Z" fill="#3153BD"/>
<path d="M521.163 277.688V472.746L542.5 468.094V273.292L521.163 277.688Z" fill="#5F5F5F"/>
<path d="M521.163 607.13V710.492L542.5 705.723V602.332L521.163 607.13Z" fill="#5F5F5F"/>
<path fill-rule="evenodd" clip-rule="evenodd" d="M899.952 390.168L542.5 468.094V602.332L899.952 521.94V390.168Z" fill="#365BCD"/>
<path d="M915.481 518.448V386.783L899.952 390.168V521.94L915.481 518.448Z" fill="#3153BD"/>
<path d="M915.481 386.783V196.437L899.952 199.636V390.168L915.481 386.783Z" fill="#5F5F5F"/>
<path fill-rule="evenodd" clip-rule="evenodd" d="M899.952 625.835V521.94L542.5 602.332V705.723L899.952 625.835Z" fill="#727272"/>
<path d="M915.481 622.364V518.448L899.952 521.94V625.835L915.481 622.364Z" fill="#5F5F5F"/>
<path fill-rule="evenodd" clip-rule="evenodd" d="M810.91 260.015V333.464V343.5L658 374.5L631 356.5V255L542.5 273.292V468.094L899.952 390.168V199.636L810.91 217.984V260.015Z" fill="#727272"/>
<path fill-rule="evenodd" clip-rule="evenodd" d="M542.5 273.292L521.163 277.688V252.258C538.936 249.396 558.018 245.04 581.366 239.71C596.254 236.311 611.876 233.056 631 229V255L542.5 273.292Z" fill="#5F5F5F"/>
<path d="M810.91 333.464L660.59 363.932L639.349 349.242V253.335L631 255V356.5L658 374.5L810.91 343.5V333.464Z" fill="#535353"/>
<path d="M639.349 253.335V226.915C636.859 227.434 633.41 228.489 631 229V255L639.349 253.335Z" fill="#535353"/>
<path fill-rule="evenodd" clip-rule="evenodd" d="M-416.5 167.124V196.497V636.858L-447 633.603V193.83V163.664V120.479V116.596V109V73.2853C-447 73.2853 -390.209 61.3974 -338.034 50.6808L477.591 138L930.395 59.7557C938.434 60.2135 947.97 73.7796 947.97 82.8183C946.765 86.4338 931.399 90.3506 923.867 91.857C904.12 94.9749 521.163 161.5 521.163 161.5C521.163 161.5 490.01 168 477.591 168C454.86 168 436 164 436 164L-416.5 76.1304V112.086V123.562V167.124Z" fill="#8F8F8F"/>
<path d="M436.199 206.62C457.806 208.419 477.672 209.947 483 210L477.591 200.5C477.591 200.5 456.5 199.5 436.199 197.5C140.182 168.337 -297.961 124.076 -416.5 112.086V123.562C-280.937 137.247 267.533 192.44 432.629 206.321C433.84 206.423 435.03 206.523 436.199 206.62Z" fill="#6B6969"/>
<path d="M483.5 257.5L483 210C477.672 209.947 457.806 208.419 436.199 206.62C435.03 206.523 433.84 206.423 432.629 206.321C267.533 192.44 -280.937 137.247 -416.5 123.562V167.124C-164.254 195.51 293.02 242.959 436.199 254.5C448.986 255.531 465.322 256.917 477.591 257.5C479.591 257.595 482 257.5 483.5 257.5Z" fill="#575757"/>
<path d="M483 210L483.5 257.5C498.262 257.5 506.301 254.651 521.163 252.258V239.808V204.557C501.257 207.699 491.547 210 483 210Z" fill="#8F8F8F"/>
<path fill-rule="evenodd" clip-rule="evenodd" d="M436.199 254.5C448.986 255.531 465.322 256.917 477.591 257.5V283.714C471.183 283.388 456.934 282.158 436.199 280.196V254.5Z" fill="#3E3E3E"/>
<path d="M477.591 168C454.86 168 436 164 436 164L-416.5 76.1304V112.086C-297.961 124.076 140.182 168.337 436.199 197.5C456.5 199.5 477.591 200.5 477.591 200.5V168Z" fill="#4B4B4B"/>
<path d="M436.199 715.336V280.196C428.422 279.46 419.733 278.621 410.203 277.688V712.943L436.199 715.336Z" fill="#303030"/>
<path d="M477.591 283.714C499.794 282.107 515.89 279.864 521.163 277.688V252.258C506.301 254.651 498.262 257.5 483.5 257.5C482 257.5 479.591 257.595 477.591 257.5V283.714Z" fill="#6B6B6B"/>
<path d="M49.9751 505.332L112.091 447.841L61 393.283L-2.05502 444.844L49.9751 505.332Z" fill="#142F83"/>
<path d="M128 590L191 529L112.091 447.841L49.9751 505.332L128 590Z" fill="#142F83"/>
<path d="M114.5 349.242L61 393.283L112.091 447.841L160 403.5L114.5 349.242Z" fill="#142F83"/>
<path d="M-9.5 318L-44.5 395.5L-2.05502 444.844L61 393.283L-9.5 318Z" fill="#142F83"/>
<path d="M-58.5 491L-28 577.5L49.9751 505.332L-2.05502 444.844L-58.5 491Z" fill="#142F83"/>
<path fill-rule="evenodd" clip-rule="evenodd" d="M410.203 712.943L-416.5 636.858V196.497C-206.485 215.041 47.5214 240.917 231.708 259.68L231.71 259.68L231.718 259.681L231.747 259.684L231.774 259.687L231.823 259.692L231.847 259.694C304.501 267.096 366.283 273.389 410.203 277.688V712.943ZM128 590L191 529L112.091 447.841L160 403.5L114.5 349.242L61 393.283L-9.5 318L-44.5 395.5L-2.05502 444.844L-58.5 491L-28 577.5L49.9751 505.332L128 590ZM194 383.5L200.035 314.147L356.535 340.147L352.035 413.019L194 383.5Z" fill="#373737"/>
<path d="M200.035 314.147L194 383.5L352.035 413.019L356.535 340.147L200.035 314.147Z" fill="#A4A4A4"/>
<g filter="url(#filter0_f_424_4)">
<path d="M299.714 551.424L297.078 579.876C290.359 582.947 282.548 584.122 273.657 583.299C264.347 582.436 257.325 578.516 252.686 571.65C248.047 564.785 246.236 555.861 247.233 545.087C248.212 534.521 251.602 526.395 257.309 520.594C263.12 514.802 270.629 512.332 279.834 513.185C289.353 514.067 296.689 518.016 301.841 525.035L295.974 530.294C292.311 525.418 285.897 521.765 279.725 521.193C266.022 519.924 257.427 529.572 255.916 545.891C254.317 563.15 262.154 574.215 277.74 575.659C282.552 576.104 286.376 575.826 289.098 574.917L290.628 558.39L277.134 557.14L277.851 549.399L299.714 551.424Z" fill="#212121"/>
<path d="M325.775 560.062L345.022 561.845L338.354 529.049L325.775 560.062ZM359.174 590.164L350.701 589.379L346.711 569.809L322.652 567.58L315.136 586.085L306.872 585.32L334.404 519.294L344.237 520.205L359.174 590.164Z" fill="#212121"/>
<path d="M88.6446 639.894L93.0527 592.299L101.421 593.074L97.042 640.355C96.4317 646.945 93.8552 651.982 89.3029 655.569C84.8552 659.166 79.1271 660.64 72.3278 660.011C65.5285 659.381 60.1686 656.88 56.3526 652.517C52.6412 648.165 51.0335 642.741 51.6438 636.151L56.0229 588.87L64.3912 589.645L59.9831 637.239C59.2468 645.189 64.6105 651.067 73.0835 651.851C81.5564 652.636 87.9083 647.844 88.6446 639.894Z" fill="#212121"/>
<path d="M143.901 639.737L130.825 638.526L123.889 600.641L118.096 663.194L110.041 662.448L116.339 594.456L131.088 595.822L138.157 633.402L151.904 597.75L166.549 599.106L160.251 667.099L152.197 666.353L157.951 604.218L143.901 639.737Z" fill="#212121"/>
<path d="M223.182 672.927L181.236 669.042L187.533 601.05L195.901 601.825L190.321 662.077L223.899 665.186L223.182 672.927Z" fill="#212121"/>
<path d="M253.341 648.712L272.589 650.495L265.92 617.699L253.341 648.712ZM286.74 678.814L278.268 678.029L274.278 658.458L250.219 656.23L242.702 674.735L234.438 673.97L261.97 607.944L271.803 608.854L286.74 678.814Z" fill="#212121"/>
<path d="M339.531 663.13L343.939 615.535L352.307 616.31L347.928 663.592C347.318 670.182 344.742 675.218 340.189 678.805C335.742 682.403 330.013 683.877 323.214 683.247C316.415 682.617 311.055 680.116 307.239 675.754C303.528 671.401 301.92 665.977 302.53 659.387L306.909 612.106L315.278 612.881L310.869 660.476C310.133 668.426 315.497 674.303 323.97 675.088C332.443 675.872 338.795 671.08 339.531 663.13Z" fill="#212121"/>
<path fill-rule="evenodd" clip-rule="evenodd" d="M395.797 628.145L410 629.461V621.654L365.656 617.547L364.939 625.287L387.429 627.37L381.848 687.622L390.217 688.397L395.797 628.145Z" fill="#212121"/>
<path d="M418.287 630.228L419.004 622.488L410 621.654V629.461L418.287 630.228Z" fill="#181818"/>
<path fill-rule="evenodd" clip-rule="evenodd" d="M390.237 532.272L405.509 533.687C406.447 533.774 407.343 533.907 408.195 534.084V526.128L382.586 523.756L376.288 591.749L384.657 592.524L387.524 561.561L402.901 562.986L408.195 577.269V555.55C407.687 555.581 407.171 555.574 406.652 555.526L388.241 553.821L390.237 532.272Z" fill="#212121"/>
<path d="M414.887 595.324L424.616 596.225L411.946 563.296C419.766 562.015 426.073 555.426 427.003 545.384C427.478 540.258 426.087 535.909 422.831 532.337C419.575 528.765 415.222 526.779 409.783 526.275L408.195 526.128V534.084C414.853 535.468 418.789 539.526 418.282 544.998C417.727 550.993 413.318 555.234 408.195 555.55V577.269L414.887 595.324Z" fill="#191919"/>
<path d="M70.7126 531.797L67.8062 563.178L59.4378 562.403L63.3651 520L75 532.194L70.7126 531.797Z" fill="#212121"/>
<path d="M104.836 566.608L96.4677 565.833L97.3321 556.5L104.985 565L104.836 566.608Z" fill="#212121"/>
<path d="M230.279 578.226L216.576 576.957L198.69 512.633L192.936 574.768L184.881 574.022L188.847 531.198L191 529L189.225 527.118L191.178 506.029L206.241 507.424L223.087 568.17L228.522 509.488L236.576 510.234L230.279 578.226Z" fill="#212121"/>
<path d="M161.737 566.919C166.289 563.332 168.865 558.296 169.476 551.706L169.634 550L147 571.493C152.825 571.635 157.786 570.115 161.737 566.919Z" fill="#212121"/>
<path d="M173.261 510.832L173.855 504.424L166.5 503.743L173.261 510.832Z" fill="#212121"/>
</g>
<defs>
<filter id="filter0_f_424_4" x="49.0176" y="501.243" width="380.576" height="189.654" filterUnits="userSpaceOnUse" color-interpolation-filters="sRGB">
<feFlood flood-opacity="0" result="BackgroundImageFix"/>
<feBlend mode="normal" in="SourceGraphic" in2="BackgroundImageFix" result="shape"/>
<feGaussianBlur stdDeviation="1.25" result="effect1_foregroundBlur_424_4"/>
</filter>
</defs>
</svg>
