<svg width="660" height="962" viewBox="0 0 660 962" fill="none" xmlns="http://www.w3.org/2000/svg">
<path d="M479.354 737.389L611.751 748.436L612.352 824.449L479.932 810.522L479.354 737.389Z" fill="#282828"/>
<path d="M309.926 503.762C305.309 503.23 294.147 505.023 286.429 516.444C278.711 527.865 216.793 605.413 186.798 642.76C182.439 649.042 176.146 663.065 185.854 668.895C197.99 676.183 897.427 738.442 911.596 733.973C925.764 729.505 930.481 722.084 933.293 714.109C933.647 713.105 934.716 710.136 936.314 705.698L936.316 705.694C947.409 674.886 983.982 573.316 983.929 566.596C983.881 560.446 971.17 556.561 964.821 555.387C754.382 537.355 328.788 501.784 309.926 503.762Z" fill="#0D0D0D"/>
<path fill-rule="evenodd" clip-rule="evenodd" d="M197.568 876.354L923.466 955.021L925.936 751.257C917.983 754.131 909.664 754.326 904.389 753.611L182.869 687.902L182.948 697.886L197.568 876.354ZM611.751 748.436L479.354 737.389L479.932 810.522L612.352 824.449L611.751 748.436Z" fill="#151515"/>
<path d="M985.721 793.28L984.319 615.918C974.453 645.942 952.898 711.188 945.601 731.977C941.903 742.516 934.113 748.302 925.936 751.257L923.466 955.021L985.721 793.28Z" fill="#222222"/>
<path d="M464.947 105.764L882.084 121.074C900.861 124.428 931.011 131.061 951.891 138.791C965.498 143.828 975.168 149.331 975.189 154.696C975.197 156.677 975.276 162.083 975.393 170.114C976.28 231.027 979.364 442.929 970.483 456.218C962.442 468.251 943.443 473.994 934.948 475.362C923.913 474.721 912.203 474.035 899.94 473.312C709.594 462.083 385.937 441.724 379.851 436.112C378.156 434.549 376.135 432.943 373.985 431.234C365.863 424.781 355.893 416.859 354.655 404.214C353.091 388.22 360.124 149.689 366.589 141.163C367.472 139.999 368.197 138.501 369.029 136.78C374.296 125.892 383.874 106.093 464.947 105.764Z" fill="#0D0D0D"/>
<path d="M464.947 105.764L882.084 121.074C900.861 124.428 931.011 131.061 951.891 138.791L956.036 126.899L813.381 88.7847L699.42 98.8136L468.383 90.1832C432.193 89.8522 358.553 95.9954 353.516 123.216C347.221 157.242 325.555 426.529 331.765 431.405C333.407 432.694 335.161 435.143 337.306 438.138C343.276 446.474 352.28 459.045 370.35 462.65C390 466.571 706.686 493.269 862.573 506.127L899.94 473.312C709.594 462.083 385.937 441.724 379.851 436.112C378.156 434.549 376.135 432.943 373.985 431.234C365.863 424.781 355.893 416.859 354.655 404.214C353.091 388.22 360.124 149.689 366.589 141.163C367.472 139.999 368.197 138.501 369.029 136.78C374.296 125.892 383.874 106.093 464.947 105.764Z" fill="#121212"/>
<path fill-rule="evenodd" clip-rule="evenodd" d="M574.172 49.6061L574.34 70.9126L756.245 77.5376L756.086 57.3828L875.024 61.6259L874.842 38.5919L881.658 16.0784L927.701 15.7146L922.633 38.2142L922.838 64.1276L968.904 66.643C986.081 76.6813 1020.46 99.5219 1020.54 110.578C1020.56 112.897 1020.4 125.169 1020.09 144.014C1018.6 237.499 1013.75 492.739 1011.36 497.071C1010.92 497.866 1010.44 499.05 1009.85 500.516L1009.85 500.517C1006.58 508.653 999.821 525.46 976.665 532.475C976.199 532.478 976.547 542.074 976.779 546.871C984.744 546.808 1000.81 549.1 1001.35 558.77C1001.9 568.441 990.223 600.898 984.319 615.918C974.453 645.942 952.898 711.188 945.601 731.977C941.903 742.516 934.113 748.302 925.936 751.257C917.983 754.131 909.664 754.326 904.389 753.611L182.869 687.902C175.661 685.463 161.453 677.36 162.283 664.453C163.114 651.547 168.321 641.754 170.821 638.471L259.12 527.203C266.624 517.929 282.56 498.914 286.276 497.042C290.92 494.702 300.815 492.896 308.974 492.831L348.606 492.518L348.552 485.608C331.623 482.286 298.066 469.652 299.276 445.685C300.485 421.719 311.899 199.106 317.455 90.795C318.176 83.6866 322.985 67.8309 336.456 61.2746C343.937 57.6331 351.753 52.6247 358.692 48.1785C367.37 42.6181 374.675 37.9371 378.237 37.9089L433.606 37.4714L433.476 21.0596L480.102 20.6912L480.232 37.103L574.172 49.6061ZM505.418 495.31L505.478 502.796L505.614 502.846C515.037 506.244 536.372 511.17 547.512 511.541C551.901 511.687 577.708 513.195 611.915 515.195L611.922 515.195L611.936 515.196L611.951 515.197C664.989 518.298 738.204 522.578 783.094 524.79C787.166 523.798 794.953 520.78 793.521 516.645C791.732 511.476 774.789 506.427 760.218 506.542C754.441 506.588 719.319 503.606 678.086 500.106L678.083 500.106C615.322 494.778 538.406 488.248 529.269 489.363C525.476 489.826 522.193 490.104 519.377 490.342L519.374 490.343C511.223 491.033 506.976 491.393 505.551 494.945C505.54 494.974 505.529 495.003 505.517 495.032L505.505 495.065C505.498 495.084 505.49 495.104 505.483 495.123L505.468 495.165L505.455 495.203L505.44 495.246C505.433 495.267 505.426 495.289 505.418 495.31ZM309.926 503.762C305.309 503.23 294.147 505.023 286.429 516.444C278.711 527.865 216.793 605.413 186.798 642.76C182.439 649.042 176.146 663.065 185.854 668.895C197.99 676.183 897.427 738.442 911.596 733.973C925.764 729.505 930.481 722.084 933.293 714.109C933.647 713.105 934.716 710.136 936.314 705.698L936.316 705.694C947.409 674.886 983.982 573.316 983.929 566.596C983.881 560.446 971.17 556.561 964.821 555.387C754.382 537.355 328.788 501.784 309.926 503.762ZM899.94 473.312C912.203 474.035 923.913 474.721 934.948 475.362C943.443 473.994 962.442 468.251 970.483 456.218C979.364 442.929 976.28 231.027 975.393 170.114C975.276 162.083 975.197 156.677 975.189 154.696C975.168 149.331 965.498 143.828 951.891 138.791L956.036 126.899L813.381 88.7847L699.42 98.8136L468.383 90.1832C432.193 89.8522 358.553 95.9954 353.516 123.216C347.221 157.242 325.555 426.529 331.765 431.405C333.407 432.694 335.161 435.143 337.306 438.138C343.276 446.474 352.28 459.045 370.35 462.65C390 466.571 706.686 493.269 862.573 506.127L899.94 473.312Z" fill="#1A1A1A"/>
<path d="M479.973 4.27942L433.346 4.64786L433.476 21.0596L480.102 20.6912L479.973 4.27942Z" fill="#1F1F1F"/>
<path d="M475.167 607.801C479.145 616.071 479.739 625.434 479.538 629.082L314.266 679.894C310.569 669.087 304.791 654.99 302.238 650.426C300.86 647.962 273.528 597.377 246.903 548.078C255.915 547.711 275.751 548.28 283.004 553.487C292.069 559.996 325.303 563.677 332.554 564.48C339.805 565.284 365.243 545.47 369.2 531.839C372.365 520.935 397.901 508.331 410.274 503.393C414.516 509.263 418.626 514.973 422.217 519.974L374.104 542.781L402.179 576.474L446.49 556.915C457.469 575.624 471.923 601.057 475.167 607.801Z" fill="#3E4144"/>
<path d="M474.448 663.995L310.651 712.524C313.088 705.25 317.222 688.541 314.266 679.894L479.538 629.082L474.448 663.995Z" fill="#27282A"/>
<path d="M208.405 525.651C211.536 517.638 210.594 486.013 211.882 483.219C220.739 499.625 232.322 521.079 244.228 543.124C245.118 544.773 246.01 546.424 246.903 548.078C273.528 597.377 300.86 647.962 302.238 650.426C304.791 654.99 310.569 669.087 314.266 679.894C317.222 688.541 313.088 705.25 310.651 712.524L208.405 525.651Z" fill="#1D1F21"/>
<path d="M422.217 519.974C428.257 528.382 432.833 534.788 434.122 536.584C435.78 538.893 440.642 546.95 446.49 556.915L402.179 576.474L374.104 542.781L422.217 519.974Z" fill="#EAE6CB"/>
<path d="M352.15 503.535L289.667 520.944L287.987 518.287L350.15 500.482L352.15 503.535Z" fill="#555658"/>
<path d="M284.214 519.368L270.262 497.332L274.012 496.179L287.987 518.287L284.214 519.368Z" fill="#555658"/>
<path d="M289.667 520.944L285.88 521.999L284.214 519.368L287.987 518.287L289.667 520.944Z" fill="#555658"/>
<path d="M270.262 497.332L267.138 492.398L270.93 491.303L274.012 496.179L270.262 497.332Z" fill="#555658"/>
<path d="M336.014 472.502L338.649 476.323L335.05 477.428L274.012 496.179L270.93 491.303L336.014 472.502Z" fill="#555658"/>
<path d="M356.568 502.304L352.15 503.535L350.15 500.482L354.46 499.247L356.568 502.304Z" fill="#555658"/>
<path fill-rule="evenodd" clip-rule="evenodd" d="M274.012 496.179L287.987 518.287L350.15 500.482L335.05 477.428L274.012 496.179Z" fill="#747A7D"/>
<path d="M338.649 476.323L354.46 499.247L350.15 500.482L335.05 477.428L338.649 476.323Z" fill="#555658"/>
<path fill-rule="evenodd" clip-rule="evenodd" d="M311.361 435.945C303.586 427.875 287.743 435.226 286.321 446.201C282.975 441.433 277.673 433.105 272.301 424.463C269.529 415.593 276.916 397.817 290.761 408.158C298.451 418.389 306.456 429.157 311.361 435.945Z" fill="#4D5258"/>
<path fill-rule="evenodd" clip-rule="evenodd" d="M312.607 437.677C306.852 437.304 293.858 438.924 287.916 448.396C287.454 447.79 286.919 447.052 286.321 446.201C287.743 435.226 303.586 427.875 311.361 435.945C311.802 436.556 312.218 437.134 312.607 437.677Z" fill="#3E4144"/>
<path d="M316.064 442.767C317.247 445.345 316.872 448.361 316.536 449.548C309.857 450.948 295.994 453.877 293.98 454.39C293.644 453.741 292.287 452 289.548 450.229C289.23 450.023 288.67 449.385 287.916 448.396C293.858 438.924 306.852 437.304 312.607 437.677C312.889 438.072 313.157 438.448 313.409 438.803C314.914 440.926 315.866 442.336 316.064 442.767Z" fill="#202225"/>
<path fill-rule="evenodd" clip-rule="evenodd" d="M272.301 424.463C269.529 415.593 276.916 397.817 290.761 408.158C280.211 394.121 270.255 381.096 269.718 380.749C268.933 380.241 266.939 380.179 265.181 380.124C264.385 380.099 263.637 380.076 263.072 380.013C259.216 379.847 252.027 381.427 254.212 388.207C253.676 389.37 252.804 392.088 253.61 393.645C254.146 394.681 263.32 410.012 272.301 424.463Z" fill="#3E4144"/>
<path d="M247.093 380.69C246.757 378.206 251.321 375.653 253.872 374.712C255.415 374.143 257.793 376.127 259.833 377.829C261.166 378.942 262.355 379.934 263.072 380.013C259.216 379.847 252.027 381.427 254.212 388.207C251.952 386.529 247.363 382.677 247.093 380.69Z" fill="#202125"/>
<path fill-rule="evenodd" clip-rule="evenodd" d="M377.231 459.329C374.881 458.457 360.042 454.367 357.625 454.099C356.37 453.96 353.993 452.048 351.583 450.109C349.352 448.315 347.093 446.498 345.672 446.047C343.309 445.296 325.264 448.068 316.536 449.548C309.857 450.948 295.994 453.877 293.98 454.39C282.232 457.37 258.213 463.64 256.119 464.876C255.306 465.356 250.888 466.969 245.134 469.071C232.357 473.738 212.992 480.812 211.882 483.219C220.739 499.625 232.322 521.079 244.228 543.124C256.2 533.177 296.243 547.1 317.971 554.656C324.518 556.932 329.402 558.63 331.355 558.924C339.792 560.191 361.41 534.717 364.571 525.145C367.1 517.487 394.624 505.422 408.071 500.347C393.668 480.449 378.503 459.801 377.231 459.329ZM284.214 519.368L285.88 521.999L289.667 520.944L352.15 503.535L356.568 502.304L354.46 499.247L338.649 476.323L336.014 472.502L270.93 491.303L267.138 492.398L270.262 497.332L284.214 519.368Z" fill="#3E4144"/>
<path d="M410.274 503.393C397.901 508.331 372.365 520.935 369.2 531.839C365.243 545.47 339.805 565.284 332.554 564.48C325.303 563.677 292.069 559.996 283.004 553.487C275.751 548.28 255.915 547.711 246.903 548.078L244.228 543.124C256.2 533.177 296.243 547.1 317.971 554.656C324.518 556.932 329.402 558.63 331.355 558.924C339.792 560.191 361.41 534.717 364.571 525.145C367.1 517.487 394.624 505.422 408.071 500.347C408.808 501.365 409.543 502.381 410.274 503.393Z" fill="#323336"/>
<path d="M213.771 572.544C126.619 476.495 131.333 388.601 144.584 356.661C147.356 316.312 248.744 224.537 269.915 225.348C291.087 226.159 473.188 349.866 527.643 445.505C582.099 541.144 494.58 720.681 475.659 732.177C456.737 743.673 322.712 692.605 213.771 572.544Z" stroke="#102462" stroke-width="24.3492"/>
<path d="M374.925 744.484C318.45 751.115 205.408 609.44 155.946 537.774C139.146 514.153 153.342 492.457 156.627 446.842C159.912 401.226 188.027 305.765 234.736 275.181C281.445 244.597 460.881 432.944 484.699 450.539C508.518 468.135 553.202 572.433 548.507 657.301C543.813 742.168 445.519 736.194 374.925 744.484Z" stroke="#131E3D" stroke-width="24.3492"/>
<path d="M406.127 763.55C359.862 784.158 286.712 702.065 255.921 658.442C158.215 536.926 180.298 470.208 156.15 385.857C132.001 301.505 200.673 261.663 220.338 230.454C240.002 199.245 330.089 222.22 396.3 265.69C462.511 309.16 508.074 456.328 536.971 565.261C565.869 674.195 463.959 737.79 406.127 763.55Z" stroke="#23409B" stroke-width="24.3492"/>
<path d="M225.037 462.803C207.135 432.254 184.567 347.679 175.52 309.211C170.399 288.342 217.147 249.564 245.026 230.416C272.905 211.268 581 554.23 593.798 591.072C606.596 627.915 503.88 787.828 462.213 794.896C420.546 801.965 247.414 500.99 225.037 462.803Z" stroke="#3E68E8" stroke-width="24.3492"/>
<path d="M368.869 247.219C328.263 224.741 250.058 215.426 208.901 269.865C187.807 303.705 176.77 337.339 172.703 369.418C161.95 454.242 199.926 528.195 229.529 566.341C253.272 603.293 291.978 701.071 332.446 742.779C372.913 784.487 536.571 796.047 551.1 759.687C565.628 723.327 595.951 644.743 560.341 493.754C515.913 321.667 409.475 269.697 368.869 247.219Z" stroke="#365BCD" stroke-width="24.3492"/>
<path d="M386.723 390.1L417.411 400.045L421.836 401.378C423.331 399.619 426.336 394.838 425.191 391.036L420.766 389.702L389.187 380.993C388.151 381.133 385.794 382.144 384.656 385.071C383.518 387.999 385.56 389.644 386.723 390.1Z" fill="#7A7B6E"/>
<path d="M390.183 407.092L412.622 413.747L427.134 417.399C429.673 415.7 433.719 411.44 429.588 407.993L416 404.004C408.94 401.87 394.569 397.552 393.561 397.35C392.302 397.097 389.84 398.093 388.729 401.74C387.841 404.658 389.328 406.524 390.183 407.092Z" fill="#7A7B6E"/>
<path d="M409.435 436.701C409.705 436.691 413.992 436.554 414.448 436.58C416.167 436.68 419.068 436.847 422.065 435.638C422.881 435.309 423.705 434.877 424.514 434.314C429.079 431.136 446.882 381.787 446.307 374.899C445.847 369.389 442.104 365.746 440.29 364.614C438.614 364.448 434.565 369.337 432.025 371.899C431.239 372.693 430.497 373.441 429.855 374.034C427.681 376.04 422.89 385.315 420.766 389.702L425.191 391.036C426.336 394.838 423.331 399.619 421.836 401.378L417.411 400.045L416 404.004L429.588 407.993C433.719 411.44 429.673 415.7 427.134 417.399L412.622 413.747C409.134 420.61 409.044 431.909 409.435 436.701Z" fill="#D4D4D2"/>
<path fill-rule="evenodd" clip-rule="evenodd" d="M485.369 456.928C483.885 459.628 478.782 461.695 476.935 461.465L474.861 468.144C499.373 476.94 492.479 497.877 489.451 507.074C489.114 508.099 488.824 508.979 488.631 509.679C486.711 516.662 459.915 543.221 467.95 532.7C475.985 522.179 475.679 505.967 474.792 499.091C474.082 493.59 469.8 488.366 467.747 486.441C466.644 489.279 461.418 494.272 457.982 496.978C459.697 497.809 463.405 500.004 461.095 508.626C458.885 516.221 452.825 529.371 447.414 534.985C443.086 539.476 437.064 547.597 434.593 551.097L423.593 549.413L425.067 530.73C434.918 524.454 455.113 508.832 457.186 496.504C453.32 499.012 445.591 495.302 442.209 493.133C440.573 491.193 437.278 486.712 437.186 484.312C437.1 482.065 440.971 471.937 442.864 466.984C442.866 466.979 442.868 466.975 442.87 466.97C442.997 466.637 443.115 466.328 443.222 466.047C429.259 476.794 426.448 485.013 426.459 485.313C407.883 496.356 403.385 519.34 403.459 529.452C386.471 542.838 387.738 554.186 390.494 558.187C385.907 562.447 387.039 568.633 388.178 571.193C383.323 574.984 383.995 581.668 384.938 584.536C378.871 589.334 380.711 596.614 382.39 599.654C379.023 603.148 378.819 609.805 379.138 612.697C374.042 616.737 374.415 622.691 375.239 625.163C368.5 628.725 370.739 638.253 370.727 637.953C365.422 642.16 367.364 648.799 367.98 650.907C368.104 651.33 368.174 651.57 368.122 651.572C363.48 654.393 362.095 660.114 361.982 662.622C341.184 680.96 349.976 702.836 356.972 711.482C353.757 717.313 330.096 735.941 313.465 742.283C296.834 748.626 272.409 739.043 257.309 728.202C245.23 719.53 247.941 698.317 250.807 688.794C250.609 683.607 248.575 683.202 243.948 682.284L243.945 682.283L243.691 682.233L243.517 682.198L243.367 682.168C239.337 681.36 237.041 685.614 236.397 687.842C235.598 691.477 234.079 700.788 234.39 708.948C234.779 719.148 242.158 732.386 245.416 735.866C248.673 739.347 258.065 748.002 275.812 754.535C293.559 761.068 319.885 754.957 334.02 748.709C345.328 743.712 362.351 726.899 369.449 719.118C366.497 726.921 368.639 733.369 370.078 735.617C371.911 737.25 376.795 739.687 381.669 736.377C386.542 733.066 389.329 718.76 390.113 712.02C399.013 707.775 403.836 694.973 403.524 694.985C427.006 694.57 428.605 680.81 426.47 673.981C437.242 668.042 435.561 661.117 433.375 658.396C443.87 651.747 440.456 644.707 437.437 642.018C444.206 635.991 441.555 629.844 439.383 627.523C444.524 624.683 443.1 618.469 441.745 615.716C447.903 613.318 446.294 606.63 444.72 603.586C445.032 603.574 448.65 600.131 450.719 597.048C452.375 594.581 450.595 591.044 449.497 589.584C454.888 586.734 454.65 582.678 453.857 581.005C462.456 577.072 462.885 571.949 462.147 568.972C461.556 566.592 457.912 561.723 456.164 559.587C465.362 552.226 484.607 536.871 488.01 534.338C492.263 531.171 501.166 518.815 504.057 512.696C506.948 506.577 507.536 481.018 503.113 471.573C499.575 464.017 489.81 458.661 485.369 456.928ZM441.456 493.453C439.799 493.716 436.015 494.982 434.128 497.939C431.769 501.634 428.079 511.388 429.928 510.717C431.777 510.045 438.135 504.695 438.991 502.56C439.194 502.052 439.567 501.369 439.987 500.599C441.336 498.127 443.173 494.762 441.456 493.453ZM373.738 684.104C372.98 683.893 368.224 678.807 365.941 676.29C360.985 677.441 363.007 692.225 364.638 699.473C365.366 699.445 366.75 699.152 366.464 698.202C366.287 697.613 368.301 694.216 370.264 690.904C372.266 687.527 374.216 684.238 373.738 684.104Z" fill="#C7C7C2"/>
<path d="M447.376 452.068C446.095 456.724 443.472 466.037 443.222 466.047C443.115 466.328 442.997 466.637 442.87 466.97L442.864 466.984C440.971 471.937 437.1 482.065 437.186 484.312C437.278 486.712 440.573 491.193 442.209 493.133C445.591 495.302 453.32 499.012 457.186 496.504C457.2 496.607 457.417 496.71 457.751 496.868C457.823 496.902 457.9 496.938 457.982 496.978C461.418 494.272 466.644 489.279 467.747 486.441L474.861 468.144L476.935 461.465C478.782 461.695 483.885 459.628 485.369 456.928C490.827 447.106 501.355 427.117 499.802 425.734C497.862 424.005 495.755 401.553 496.021 400.342C496.234 399.372 489.513 385.368 486.126 378.487C471.579 373.935 442.047 364.787 440.29 364.614C442.104 365.746 445.847 369.389 446.307 374.899C446.882 381.787 429.079 431.136 424.514 434.314C423.705 434.877 422.881 435.309 422.065 435.638C419.068 436.847 416.167 436.68 414.448 436.58C413.992 436.554 409.705 436.691 409.435 436.701L411.927 440.202L447.376 452.068Z" fill="#B8B8B7"/>
<path d="M713.927 420.837C715.556 414.511 714.899 409.614 714.367 407.957C708.6 397.134 699.162 379.411 692.778 367.393C694.301 370.927 696.228 379.959 691.754 387.814C687.279 395.668 567.345 617.034 507.937 726.736C501.072 734.636 481.782 748.955 459.54 743.032C437.298 737.11 411.789 729.035 401.815 725.739C407.7 736.6 414.482 748.482 417.22 752.749C422.228 760.552 430.396 766.211 434.833 767.775C439.27 769.339 471.059 787.157 497.086 782.241C517.908 778.309 532.198 760.911 536.74 752.703C595.124 644.717 712.298 427.164 713.927 420.837Z" fill="#D4D4D2"/>
<path fill-rule="evenodd" clip-rule="evenodd" d="M576.018 353.634L393.347 677.145C389.583 683.811 390.006 699.833 391.842 705.752C392.675 708.435 396.937 716.736 401.815 725.739C411.789 729.035 437.298 737.11 459.54 743.032C481.782 748.955 501.072 734.636 507.937 726.736C567.345 617.034 687.279 395.668 691.754 387.814C696.228 379.959 694.301 370.927 692.778 367.393C688.976 360.233 686.257 355.098 686.043 354.65C685.47 353.452 680.41 349.693 677.951 347.964C666.702 344.319 640.796 336.076 627.172 332.27C610.141 327.514 594.5 338.87 589.521 341.812C585.538 344.165 578.86 350.674 576.018 353.634ZM493.484 709.565C484.472 725.021 467.33 725.937 459.885 724.464C451.808 723.15 406.08 702.144 399.421 698.455C394.094 695.504 395.475 683.326 396.831 677.606C456.071 573.884 575.999 363.921 581.797 353.85C589.045 341.26 612.934 335.878 614.516 335.478C616.098 335.077 657.215 348.515 668.391 354.083C677.331 358.538 676.063 371.516 674.312 377.449C617.791 481.714 502.497 694.109 493.484 709.565Z" fill="#EAEBE6"/>
<path fill-rule="evenodd" clip-rule="evenodd" d="M459.885 724.464C467.33 725.937 484.472 725.021 493.484 709.565C502.497 694.109 617.791 481.714 674.312 377.449C676.063 371.516 677.331 358.538 668.391 354.083C657.215 348.515 616.098 335.077 614.516 335.478C612.934 335.878 589.045 341.26 581.797 353.85C575.999 363.921 456.071 573.884 396.831 677.606C395.475 683.326 394.094 695.504 399.421 698.455C406.08 702.144 451.808 723.15 459.885 724.464ZM438.034 635.578C419.327 648.921 417.066 667.102 418.273 674.524C419.979 687.333 424.365 695.275 430.154 700.149C439.551 708.06 452.642 707.883 463.954 707.303C482.236 706.367 499.136 692.004 508.565 666.765C509.803 663.45 510.394 660.329 510.479 657.405C511.044 638.057 489.503 627.311 487.162 626.153C484.467 624.82 461.418 618.9 438.034 635.578ZM487.186 547.853C468.479 561.196 466.217 579.377 467.425 586.8C469.13 599.608 473.517 607.55 479.306 612.424C488.702 620.335 501.793 620.158 513.106 619.578C531.388 618.642 548.287 604.279 557.717 579.04C558.958 575.716 559.549 572.586 559.631 569.654C560.176 550.323 538.654 539.586 536.314 538.428C533.619 537.095 510.569 531.175 487.186 547.853ZM513.496 501.535C512.289 494.113 515.107 476.799 533.814 463.456C557.197 446.778 577.323 454.447 580.018 455.78C582.333 456.925 604.074 466.05 604.164 484.61C604.167 485.274 604.143 485.951 604.088 486.64C603.895 489.101 603.323 491.717 602.286 494.492C592.857 519.731 577.459 533.378 559.177 534.314C547.865 534.894 534.774 535.07 525.377 527.159C519.588 522.286 515.202 514.343 513.496 501.535ZM578.227 379.62C559.52 392.963 557.258 411.144 558.466 418.566C560.171 431.374 564.558 439.317 570.347 444.19C579.743 452.101 592.834 451.925 604.147 451.345C622.429 450.409 639.328 436.045 648.757 410.806C650 407.481 650.59 404.351 650.672 401.418C651.215 382.089 629.694 371.352 627.355 370.195C624.66 368.862 601.61 362.942 578.227 379.62Z" fill="#F4F5F1"/>
<path fill-rule="evenodd" clip-rule="evenodd" d="M648.757 410.806C650 407.481 650.59 404.351 650.672 401.418C650.146 392.443 631.739 386.428 619.249 387.37C606.033 388.367 589.512 396.25 576.096 411.074C565.364 422.934 567.791 438.093 570.347 444.19C579.743 452.101 592.834 451.925 604.147 451.345C622.429 450.409 639.328 436.045 648.757 410.806ZM623.617 421.882C622.474 418.699 621.61 411.57 627.301 408.515C634.414 404.696 639.804 407.363 640.917 409.097C642.03 410.831 645.848 417.928 634.546 423.816C631.069 426.042 625.447 425.114 623.617 421.882ZM586.327 447.46C585.184 444.278 584.32 437.149 590.011 434.094C597.124 430.275 602.514 432.942 603.627 434.676C604.739 436.41 608.558 443.507 597.255 449.395C593.779 451.621 588.156 450.693 586.327 447.46Z" fill="#E5E6E0"/>
<path d="M578.227 379.62C559.52 392.963 557.258 411.144 558.466 418.566C560.171 431.374 564.558 439.317 570.347 444.19C567.791 438.093 565.364 422.934 576.096 411.074C589.512 396.25 606.033 388.367 619.249 387.37C631.739 386.428 650.146 392.443 650.672 401.418C651.215 382.089 629.694 371.352 627.355 370.195C624.66 368.862 601.61 362.942 578.227 379.62Z" fill="#D5D6D0"/>
<path d="M533.814 463.456C515.107 476.799 512.289 494.113 513.496 501.535C515.202 514.343 519.588 522.286 525.377 527.159C522.822 521.062 520.394 505.903 531.127 494.043C544.542 479.219 561.064 471.336 574.279 470.339C586.569 469.412 603.269 475.793 604.164 484.61C604.074 466.05 582.333 456.925 580.018 455.78C577.323 454.447 557.197 446.778 533.814 463.456Z" fill="#D5D6D0"/>
<path d="M487.186 547.853C468.479 561.196 466.217 579.377 467.425 586.8C469.13 599.608 473.517 607.55 479.306 612.424C476.75 606.326 474.323 591.167 485.055 579.308C498.471 564.483 514.992 556.6 528.208 555.603C540.699 554.661 559.106 560.678 559.631 569.654C560.176 550.323 538.654 539.586 536.314 538.428C533.619 537.095 510.569 531.175 487.186 547.853Z" fill="#D5D6D0"/>
<path fill-rule="evenodd" clip-rule="evenodd" d="M438.034 635.578C419.327 648.921 417.066 667.102 418.273 674.524C419.979 687.333 424.365 695.275 430.154 700.149C427.599 694.051 425.171 678.892 435.904 667.033C449.319 652.208 465.841 644.325 479.056 643.328C491.552 642.386 509.968 648.421 510.479 657.405C511.044 638.057 489.503 627.311 487.162 626.153C484.467 624.82 461.418 618.9 438.034 635.578Z" fill="#D4D4D2"/>
<path fill-rule="evenodd" clip-rule="evenodd" d="M463.954 707.303C482.236 706.367 499.136 692.004 508.565 666.765C509.583 664.04 510.163 661.447 510.384 658.985C510.432 658.452 510.464 657.925 510.479 657.405C509.968 648.421 491.552 642.386 479.056 643.328C465.841 644.325 449.319 652.208 435.904 667.033C425.171 678.892 427.599 694.051 430.154 700.149C439.551 708.06 452.642 707.883 463.954 707.303ZM487.108 664.473C481.418 667.528 482.281 674.657 483.425 677.84C485.254 681.072 490.876 682 494.353 679.775C505.656 673.886 501.837 666.789 500.724 665.055C499.611 663.321 494.222 660.655 487.108 664.473ZM449.818 690.052C444.128 693.107 444.991 700.236 446.135 703.419C447.964 706.651 453.586 707.579 457.063 705.354C468.366 699.465 464.547 692.368 463.434 690.634C462.321 688.9 456.932 686.234 449.818 690.052Z" fill="#E5E6E0"/>
<path fill-rule="evenodd" clip-rule="evenodd" d="M513.106 619.578C531.388 618.642 548.287 604.279 557.717 579.04C558.958 575.716 559.549 572.586 559.631 569.654C559.106 560.678 540.699 554.661 528.208 555.603C514.992 556.6 498.471 564.483 485.055 579.308C474.323 591.167 476.75 606.326 479.306 612.424C488.702 620.335 501.793 620.158 513.106 619.578ZM536.26 576.748C530.569 579.803 531.433 586.932 532.576 590.115C534.406 593.347 540.028 594.275 543.505 592.05C554.807 586.161 550.989 579.064 549.876 577.33C548.763 575.596 543.373 572.93 536.26 576.748ZM498.97 602.327C493.279 605.382 494.143 612.511 495.286 615.694C497.116 618.926 502.738 619.854 506.214 617.629C517.517 611.74 513.699 604.643 512.586 602.909C511.473 601.175 506.083 598.509 498.97 602.327Z" fill="#E5E6E0"/>
<path fill-rule="evenodd" clip-rule="evenodd" d="M559.177 534.314C577.459 533.378 592.857 519.731 602.286 494.492C603.322 491.718 603.894 489.103 604.088 486.643C604.088 486.642 604.088 486.641 604.088 486.64C604.143 485.951 604.167 485.274 604.164 484.61C603.269 475.793 586.569 469.412 574.279 470.339C561.064 471.336 544.542 479.219 531.127 494.043C520.394 505.903 522.822 521.062 525.377 527.159C534.774 535.07 547.865 534.894 559.177 534.314ZM582.331 491.484C576.641 494.539 577.504 501.668 578.648 504.85C580.477 508.083 586.099 509.01 589.576 506.785C600.879 500.897 597.06 493.8 595.947 492.066C594.834 490.332 589.445 487.665 582.331 491.484ZM545.041 517.063C539.351 520.118 540.214 527.247 541.358 530.429C543.187 533.662 548.809 534.589 552.286 532.364C563.589 526.476 559.77 519.379 558.657 517.645C557.544 515.911 552.155 513.244 545.041 517.063Z" fill="#E5E6E0"/>
<path d="M451.571 694.312C450.335 695.634 448.243 698.718 449.768 700.482C451.673 702.687 455.081 704.176 457.448 701.56C459.816 698.944 463.132 696.087 459.881 693.887C456.63 691.686 454.571 691.536 451.571 694.312Z" fill="#D4D4D2"/>
<path fill-rule="evenodd" clip-rule="evenodd" d="M446.135 703.419C444.991 700.236 444.128 693.107 449.818 690.052C456.932 686.234 462.321 688.9 463.434 690.634C464.547 692.368 468.366 699.465 457.063 705.354C453.586 707.579 447.964 706.651 446.135 703.419ZM449.768 700.482C448.243 698.718 450.335 695.634 451.571 694.312C454.571 691.536 456.63 691.686 459.881 693.887C463.132 696.087 459.816 698.944 457.448 701.56C455.081 704.176 451.673 702.687 449.768 700.482Z" fill="#D4D4D2"/>
<path fill-rule="evenodd" clip-rule="evenodd" d="M483.425 677.84C482.281 674.657 481.418 667.528 487.108 664.473C494.222 660.655 499.611 663.321 500.724 665.055C501.837 666.789 505.656 673.886 494.353 679.775C490.876 682 485.254 681.072 483.425 677.84ZM487.53 674.111C486.006 672.347 488.098 669.263 489.334 667.942C492.334 665.165 494.393 665.316 497.644 667.516C500.895 669.716 497.579 672.573 495.211 675.189C492.844 677.805 489.436 676.316 487.53 674.111Z" fill="#D4D4D2"/>
<path d="M489.334 667.942C488.098 669.263 486.006 672.347 487.53 674.111C489.436 676.316 492.844 677.805 495.211 675.189C497.579 672.573 500.895 669.716 497.644 667.516C494.393 665.316 492.334 665.165 489.334 667.942Z" fill="#D4D4D2"/>
<path d="M500.723 606.587C499.486 607.909 497.395 610.993 498.919 612.757C500.825 614.962 504.232 616.451 506.6 613.835C508.967 611.219 512.284 608.362 509.033 606.162C505.781 603.961 503.723 603.811 500.723 606.587Z" fill="#D4D4D2"/>
<path fill-rule="evenodd" clip-rule="evenodd" d="M495.286 615.694C494.143 612.511 493.279 605.382 498.97 602.327C506.083 598.509 511.473 601.175 512.586 602.909C513.699 604.643 517.517 611.74 506.214 617.629C502.738 619.854 497.116 618.926 495.286 615.694ZM498.919 612.757C497.395 610.993 499.486 607.909 500.723 606.587C503.723 603.811 505.781 603.961 509.033 606.162C512.284 608.362 508.967 611.219 506.6 613.835C504.232 616.451 500.825 614.962 498.919 612.757Z" fill="#D4D4D2"/>
<path d="M538.486 580.217C537.249 581.538 535.157 584.622 536.682 586.386C538.588 588.591 541.995 590.08 544.363 587.464C546.73 584.848 550.047 581.991 546.796 579.791C543.544 577.591 541.486 577.44 538.486 580.217Z" fill="#D4D4D2"/>
<path fill-rule="evenodd" clip-rule="evenodd" d="M532.576 590.115C531.433 586.932 530.569 579.803 536.26 576.748C543.373 572.93 548.763 575.596 549.876 577.33C550.989 579.064 554.807 586.161 543.505 592.05C540.028 594.275 534.406 593.347 532.576 590.115ZM536.682 586.386C535.157 584.622 537.249 581.538 538.486 580.217C541.486 577.44 543.544 577.591 546.796 579.791C550.047 581.991 546.73 584.848 544.363 587.464C541.995 590.08 538.588 588.591 536.682 586.386Z" fill="#D4D4D2"/>
<path d="M546.794 521.323C545.558 522.644 543.466 525.728 544.991 527.493C546.896 529.698 550.304 531.186 552.671 528.57C555.039 525.954 558.355 523.098 555.104 520.897C551.853 518.697 549.794 518.547 546.794 521.323Z" fill="#D4D4D2"/>
<path fill-rule="evenodd" clip-rule="evenodd" d="M541.358 530.429C540.214 527.247 539.351 520.118 545.041 517.063C552.155 513.244 557.544 515.911 558.657 517.645C559.77 519.379 563.589 526.476 552.286 532.364C548.809 534.589 543.187 533.662 541.358 530.429ZM544.991 527.493C543.466 525.728 545.558 522.644 546.794 521.323C549.794 518.547 551.853 518.697 555.104 520.897C558.355 523.098 555.039 525.954 552.671 528.57C550.304 531.186 546.896 529.698 544.991 527.493Z" fill="#D4D4D2"/>
<path d="M584.557 494.952C583.321 496.274 581.229 499.358 582.753 501.122C584.659 503.327 588.067 504.816 590.434 502.2C592.802 499.584 596.118 496.727 592.867 494.527C589.616 492.326 587.557 492.176 584.557 494.952Z" fill="#D4D4D2"/>
<path fill-rule="evenodd" clip-rule="evenodd" d="M578.648 504.85C577.504 501.668 576.641 494.539 582.331 491.484C589.445 487.665 594.834 490.332 595.947 492.066C597.06 493.8 600.879 500.897 589.576 506.785C586.099 509.01 580.477 508.083 578.648 504.85ZM582.753 501.122C581.229 499.358 583.321 496.274 584.557 494.952C587.557 492.176 589.616 492.326 592.867 494.527C596.118 496.727 592.802 499.584 590.434 502.2C588.067 504.816 584.659 503.327 582.753 501.122Z" fill="#D4D4D2"/>
<path d="M591.764 438.354C590.527 439.676 588.436 442.759 589.96 444.524C591.866 446.729 595.273 448.218 597.641 445.601C600.008 442.985 603.325 440.129 600.074 437.928C596.822 435.728 594.764 435.578 591.764 438.354Z" fill="#D4D4D2"/>
<path fill-rule="evenodd" clip-rule="evenodd" d="M586.327 447.46C585.184 444.278 584.32 437.149 590.011 434.094C597.124 430.275 602.514 432.942 603.627 434.676C604.739 436.41 608.558 443.507 597.255 449.395C593.779 451.621 588.156 450.693 586.327 447.46ZM589.96 444.524C588.436 442.759 590.527 439.676 591.764 438.354C594.764 435.578 596.822 435.728 600.074 437.928C603.325 440.129 600.008 442.985 597.641 445.601C595.273 448.218 591.866 446.729 589.96 444.524Z" fill="#D4D4D2"/>
<path d="M629.527 411.983C628.29 413.305 626.198 416.389 627.723 418.153C629.629 420.358 633.036 421.847 635.404 419.231C637.771 416.615 641.088 413.758 637.836 411.558C634.585 409.357 632.527 409.207 629.527 411.983Z" fill="#D4D4D2"/>
<path fill-rule="evenodd" clip-rule="evenodd" d="M623.617 421.882C622.474 418.699 621.61 411.57 627.301 408.515C634.414 404.696 639.804 407.363 640.917 409.097C642.03 410.831 645.848 417.928 634.546 423.816C631.069 426.042 625.447 425.114 623.617 421.882ZM627.723 418.153C626.198 416.389 628.29 413.305 629.527 411.983C632.527 409.207 634.585 409.357 637.836 411.558C641.088 413.758 637.771 416.615 635.404 419.231C633.036 421.847 629.629 420.358 627.723 418.153Z" fill="#D4D4D2"/>
<path d="M540.345 703.602C537.106 712.188 537.333 721.568 537.852 725.184L706.935 761.351C709.672 750.261 714.195 735.713 716.339 730.943C717.497 728.368 740.301 675.587 762.513 624.149C753.504 624.571 733.793 626.872 727.024 632.694C718.562 639.971 685.777 646.544 678.624 647.978C671.471 649.412 644.398 631.898 639.265 618.666C635.159 608.08 608.618 597.758 595.861 593.919C592.148 600.138 588.554 606.185 585.413 611.481L635.336 629.994L610.315 666.013L564.463 650.404C555.162 670.001 542.987 696.6 540.345 703.602Z" fill="#363731"/>
<path d="M545.975 759.518L713.388 793.539C710.324 786.506 704.745 770.222 706.935 761.351L537.852 725.184L545.975 759.518Z" fill="#2A2A27"/>
<path d="M798.903 598.442C795.084 590.733 793.257 559.147 791.729 556.477C784.341 573.594 774.678 595.978 764.745 618.98C764.002 620.7 763.258 622.424 762.513 624.149C740.301 675.587 717.497 728.368 716.339 730.943C714.195 735.713 709.672 750.261 706.935 761.351C704.745 770.222 710.324 786.506 713.388 793.539L798.903 598.442Z" fill="#21211D"/>
<path d="M585.413 611.481C580.132 620.386 576.133 627.167 575.006 629.069C573.557 631.514 569.418 639.966 564.463 650.404L610.315 666.013L635.336 629.994L585.413 611.481Z" fill="#365BCD"/>
<path d="M653.775 588.979L717.541 600.858L718.982 598.064L655.5 585.762L653.775 588.979Z" fill="#585855"/>
<path d="M722.835 598.811L734.807 575.639L730.97 574.82L718.982 598.064L722.835 598.811Z" fill="#585855"/>
<path d="M717.541 600.858L721.406 601.578L722.835 598.811L718.982 598.064L717.541 600.858Z" fill="#585855"/>
<path d="M734.807 575.639L737.487 570.452L733.614 569.692L730.97 574.82L734.807 575.639Z" fill="#585855"/>
<path d="M667.136 556.654L664.845 560.691L668.526 561.477L730.97 574.82L733.614 569.692L667.136 556.654Z" fill="#585855"/>
<path d="M649.266 588.139L653.775 588.979L655.5 585.762L651.099 584.91L649.266 588.139Z" fill="#585855"/>
<path fill-rule="evenodd" clip-rule="evenodd" d="M730.97 574.82L718.982 598.064L655.5 585.762L668.526 561.477L730.97 574.82Z" fill="#7C7D74"/>
<path d="M664.845 560.691L651.099 584.91L655.5 585.762L668.526 561.477L664.845 560.691Z" fill="#585855"/>
<path fill-rule="evenodd" clip-rule="evenodd" d="M688.498 518.082C695.537 509.363 711.963 515.3 714.338 526.109C717.255 521.066 721.809 512.307 726.404 503.229C728.39 494.15 719.476 477.087 706.589 488.6C699.823 499.464 692.79 510.891 688.498 518.082Z" fill="#57584D"/>
<path fill-rule="evenodd" clip-rule="evenodd" d="M687.408 519.916C693.108 519.041 706.194 519.519 712.942 528.434C713.349 527.791 713.817 527.009 714.338 526.109C711.963 515.3 695.537 509.363 688.498 518.082C688.112 518.728 687.748 519.341 687.408 519.916Z" fill="#363731"/>
<path d="M684.409 525.289C683.457 527.96 684.094 530.932 684.532 532.085C691.308 532.895 705.373 534.601 707.425 534.936C707.703 534.26 708.902 532.407 711.476 530.403C711.775 530.171 712.277 529.486 712.942 528.434C706.194 519.519 693.108 519.041 687.408 519.916C687.161 520.334 686.928 520.731 686.707 521.108C685.394 523.354 684.568 524.842 684.409 525.289Z" fill="#242520"/>
<path fill-rule="evenodd" clip-rule="evenodd" d="M726.404 503.229C728.39 494.15 719.476 477.087 706.589 488.6C715.871 473.694 724.65 459.849 725.154 459.456C725.893 458.881 727.874 458.645 729.62 458.436C730.411 458.342 731.154 458.253 731.711 458.141C735.538 457.639 742.837 458.585 741.253 465.529C741.89 466.641 742.996 469.272 742.329 470.894C741.885 471.973 734.087 488.047 726.404 503.229Z" fill="#363731"/>
<path d="M747.688 457.418C747.806 454.915 743.036 452.771 740.412 452.057C738.826 451.625 736.63 453.809 734.747 455.683C733.516 456.907 732.418 458 731.711 458.141C735.538 457.639 742.837 458.585 741.253 465.529C743.359 463.66 747.593 459.422 747.688 457.418Z" fill="#242520"/>
<path fill-rule="evenodd" clip-rule="evenodd" d="M624.924 547.135C627.189 546.061 641.613 540.689 643.998 540.211C645.236 539.963 647.437 537.85 649.668 535.709C651.734 533.726 653.825 531.718 655.201 531.145C657.49 530.19 675.708 531.373 684.532 532.085C691.308 532.895 705.373 534.601 707.425 534.936C719.388 536.877 743.864 541.023 746.058 542.071C746.91 542.478 751.452 543.699 757.367 545.29C770.503 548.822 790.413 554.175 791.729 556.477C784.341 573.594 774.678 595.978 764.745 618.98C751.949 610.118 713.277 627.489 692.292 636.916C685.97 639.756 681.253 641.874 679.333 642.338C671.039 644.338 647.276 620.852 643.291 611.592C640.102 604.185 611.628 594.573 597.789 590.692C610.397 569.611 623.699 547.717 624.924 547.135ZM722.835 598.811L721.406 601.578L717.541 600.858L653.775 588.979L649.266 588.139L651.099 584.91L664.845 560.691L667.136 556.654L733.614 569.692L737.487 570.452L734.807 575.639L722.835 598.811Z" fill="#363731"/>
<path d="M595.861 593.919C608.618 597.758 635.159 608.08 639.265 618.666C644.398 631.898 671.471 649.412 678.624 647.978C685.777 646.544 718.562 639.971 727.024 632.694C733.793 626.872 753.504 624.571 762.513 624.149L764.745 618.98C751.949 610.118 713.277 627.489 692.292 636.916C685.97 639.756 681.253 641.874 679.333 642.338C671.039 644.338 647.276 620.852 643.291 611.592C640.102 604.185 611.628 594.573 597.789 590.692C597.144 591.771 596.501 592.848 595.861 593.919Z" fill="#282823"/>
<path d="M479.354 737.389L611.751 748.437L612.352 824.449L479.932 810.522L479.354 737.389Z" fill="#282828"/>
<path d="M985.721 793.28L984.319 615.918C979.434 630.783 971.684 654.282 964.218 676.745C956.604 699.652 949.285 721.481 945.601 731.977C941.903 742.516 934.113 748.302 925.936 751.257L923.467 955.021L985.721 793.28Z" fill="black"/>
<path fill-rule="evenodd" clip-rule="evenodd" d="M964.218 676.745L949.373 669.305C944.009 684.331 939.276 697.474 936.331 705.654L936.316 705.694L936.315 705.698C934.716 710.137 933.647 713.105 933.293 714.11C930.481 722.084 925.765 729.505 911.596 733.974C897.427 738.442 197.99 676.184 185.855 668.896C176.147 663.065 182.439 649.042 186.798 642.76C192.051 636.22 198.282 628.448 205.029 620.014L194.98 608.027L170.821 638.471C168.321 641.754 163.114 651.547 162.283 664.454C161.453 677.36 175.661 685.464 182.869 687.902L195.076 689.014L904.389 753.611C909.664 754.326 917.983 754.131 925.936 751.257C934.113 748.302 941.903 742.516 945.601 731.977C949.285 721.481 956.604 699.652 964.218 676.745Z" fill="#282828"/>
<path fill-rule="evenodd" clip-rule="evenodd" d="M923.467 955.021L195.076 878.365L195.076 689.014L904.389 753.611C909.664 754.326 917.983 754.131 925.936 751.257L923.467 955.021ZM479.354 737.389L611.751 748.437L612.352 824.449L479.932 810.522L479.354 737.389Z" fill="#151515"/>
<path d="M182.869 687.902L182.948 697.887L183.625 864.911L195.076 878.365L195.076 689.014L182.869 687.902Z" fill="#0F0F0F"/>
<path fill-rule="evenodd" clip-rule="evenodd" d="M198.064 382.323C200.047 377.895 195.317 353.176 192.704 341.369C180.428 331.452 150.825 326.634 134.724 344.104C134.017 360.092 133.608 393.268 137.628 398.07C152.339 385.322 177.729 375.955 198.064 382.323ZM13.6341 399.872L126.686 412.414C122.269 408.252 126.02 371.491 128.448 353.63C128.302 353.631 126.092 353.238 122.366 352.575C105.597 349.591 58.1235 341.143 29.8856 338.53L13.6341 399.872Z" fill="#D9D9D9"/>
<path d="M209.087 387.803L197.927 348.348C197.205 345.899 195.36 343.515 192.704 341.369C195.317 353.176 200.047 377.895 198.064 382.323C201.961 383.543 205.672 385.341 209.087 387.803Z" fill="#B4B4B4"/>
<path d="M128.448 353.63C126.02 371.491 122.269 408.252 126.686 412.414C128.507 407.576 132.39 402.609 137.628 398.07C133.608 393.268 134.017 360.092 134.724 344.104C132.287 346.749 130.159 349.905 128.448 353.63Z" fill="#C1C1C1"/>
</svg>
